<svg width="501" height="209" viewBox="0 0 501 209" fill="none" xmlns="http://www.w3.org/2000/svg">
<path d="M89.056 205V166.408H0.64V129.544L78.976 3.976H130.24V133H155.584V166.408H130.24V205H89.056ZM35.2 133H89.056V48.616H86.176L35.2 133ZM251.088 208.456C224.784 208.456 205.296 199.336 192.624 181.096C179.952 162.856 173.616 137.32 173.616 104.488C173.616 71.656 179.952 46.12 192.624 27.88C205.296 9.63999 224.784 0.519989 251.088 0.519989C277.392 0.519989 296.88 9.63999 309.552 27.88C322.224 46.12 328.56 71.656 328.56 104.488C328.56 137.32 322.224 162.856 309.552 181.096C296.88 199.336 277.392 208.456 251.088 208.456ZM251.088 171.88C262.608 171.88 270.576 167.656 274.992 159.208C279.408 150.76 281.616 138.856 281.616 123.496V85.48C281.616 70.12 279.408 58.216 274.992 49.768C270.576 41.32 262.608 37.096 251.088 37.096C239.568 37.096 231.6 41.32 227.184 49.768C222.768 58.216 220.56 70.12 220.56 85.48V123.496C220.56 138.856 222.768 150.76 227.184 159.208C231.6 167.656 239.568 171.88 251.088 171.88ZM434.431 205V166.408H346.015V129.544L424.351 3.976H475.615V133H500.959V166.408H475.615V205H434.431ZM380.575 133H434.431V48.616H431.551L380.575 133Z" fill="#FEFEFE"/>
</svg>
