<svg width="210" height="55" viewBox="0 0 210 55" fill="none" xmlns="http://www.w3.org/2000/svg">
<path d="M209.5 1C167.5 41.5 81.5 61 9 47.5" stroke="#C5C5C5" stroke-dasharray="7 5"/>
<path d="M0.147687 47.0884L6.14267 40.1696C6.33908 39.9431 6.65709 39.9435 6.85318 40.1708C7.04912 40.3981 7.04861 40.7663 6.85217 40.9931L1.21403 47.5L6.85237 54.007C7.04879 54.2337 7.04929 54.6017 6.85338 54.8291C6.75508 54.943 6.62631 55 6.49753 55C6.36908 55 6.24081 54.9434 6.14269 54.8302L0.147687 47.9116C0.0530858 47.8027 0 47.6545 0 47.5C0 47.3456 0.0532374 47.1975 0.147687 47.0884Z" fill="#C5C5C5"/>
</svg>
