<svg width="18" height="13" viewBox="0 0 18 13" fill="none" xmlns="http://www.w3.org/2000/svg">
<path d="M3.23317 6.10352e-05C3.23273 6.10352e-05 3.23222 6.10352e-05 3.23178 6.10352e-05C3.07461 6.10352e-05 2.92678 0.0613286 2.81516 0.172673C2.7023 0.285249 2.64014 0.435145 2.64014 0.594721V9.51154C2.64014 9.83852 2.9072 10.1052 3.23552 10.106C4.61967 10.1093 6.93867 10.3978 8.53846 12.072V2.74026C8.53846 2.62942 8.51014 2.52529 8.45671 2.43913C7.14368 0.324584 4.62045 0.00330626 3.23317 6.10352e-05Z" fill="#8E8E92"/>
<path d="M15.3599 9.51153V0.59466C15.3599 0.435084 15.2978 0.285188 15.1849 0.172612C15.0733 0.0612676 14.9253 0 14.7683 0C14.7678 0 14.7673 0 14.7669 0C13.3797 0.00330118 10.8564 0.324578 9.54336 2.43912C9.48993 2.52529 9.46167 2.62942 9.46167 2.74026V12.0719C11.0615 10.3978 13.3804 10.1093 14.7646 10.106C15.0929 10.1051 15.3599 9.83846 15.3599 9.51153Z" fill="#8E8E92"/>
<path d="M16.7143 2.0564H16.2831V9.51152C16.2831 10.3464 15.6029 11.0272 14.7668 11.0292C13.5927 11.032 11.6569 11.2616 10.2859 12.5592C12.657 11.9786 15.1566 12.356 16.5812 12.6807C16.7591 12.7212 16.9429 12.6793 17.0854 12.5657C17.2274 12.4524 17.3088 12.2831 17.3088 12.1013V2.65094C17.3089 2.32312 17.0421 2.0564 16.7143 2.0564Z" fill="#8E8E92"/>
<path d="M1.71688 9.51152V2.0564H1.28571C0.957942 2.0564 0.691162 2.32312 0.691162 2.65094V12.1011C0.691162 12.2829 0.772628 12.4523 0.914635 12.5656C1.05703 12.6791 1.24067 12.7211 1.41882 12.6805C2.84336 12.3558 5.34303 11.9785 7.71406 12.559C6.34312 11.2615 4.40728 11.032 3.23324 11.0292C2.39714 11.0272 1.71688 10.3464 1.71688 9.51152Z" fill="#8E8E92"/>
</svg>
