<svg width="11" height="13" viewBox="0 0 11 13" fill="none" xmlns="http://www.w3.org/2000/svg">
<path d="M8.95176 5.81447L8.38063 5.16447C8.2229 4.98507 7.9499 4.96773 7.76963 5.1246L6.06663 6.617V0.433333C6.06663 0.194133 5.8725 0 5.6333 0H4.76663C4.52743 0 4.33329 0.194133 4.33329 0.433333V6.617L2.63029 5.1246C2.45089 4.96773 2.17789 4.98507 2.01929 5.16447L1.44816 5.8136C1.28956 5.99387 1.30776 6.2686 1.48803 6.42633L4.91483 9.42587C5.07863 9.56887 5.32216 9.56887 5.48596 9.42587L8.9119 6.42633C9.09216 6.2686 9.11036 5.99387 8.95176 5.81447Z" fill="#1C1D25"/>
<path d="M9.96667 11.2667H0.433333C0.194133 11.2667 0 11.4608 0 11.7V12.5667C0 12.8059 0.194133 13 0.433333 13H9.96667C10.2059 13 10.4 12.8059 10.4 12.5667V11.7C10.4 11.4608 10.2059 11.2667 9.96667 11.2667Z" fill="#1C1D25"/>
</svg>
