<svg width="69" height="116" viewBox="0 0 69 116" fill="none" xmlns="http://www.w3.org/2000/svg">
<g opacity="0.2">
<path fill-rule="evenodd" clip-rule="evenodd" d="M21.9614 85.8867H25.2254V74.2684C25.2254 72.537 26.6205 71.1335 28.3414 71.1335H38.3994C40.1201 71.1335 41.5152 72.537 41.5152 74.2684V85.5665H44.3845C45.4032 85.5665 46.2291 86.3973 46.2291 87.4221V125.112C46.2291 126.137 45.4032 126.967 44.3845 126.967H38.551C37.5323 126.967 36.7065 126.137 36.7065 125.112C36.7065 124.087 37.5323 123.256 38.551 123.256H42.54V115.138C41.4468 113.458 40.0724 112.458 38.5797 112.458C35.0164 112.458 32.128 118.157 32.128 125.188C32.128 132.218 35.0164 137.918 38.5797 137.918C41.8382 137.918 44.5327 133.15 44.9692 126.957C45.7161 126.72 46.2576 126.018 46.2576 125.188V104.039C49.5911 108.76 51.7627 116.473 51.7627 125.188C51.7627 139.554 45.8603 151.201 38.5795 151.201C38.4044 151.201 38.2301 151.194 38.0567 151.181H28.3352C28.1617 151.194 27.9874 151.201 27.8124 151.201C20.5313 151.201 14.6292 139.554 14.6292 125.188C14.6292 116.489 16.7931 108.787 20.1168 104.064V87.7424C20.1168 86.7175 20.9427 85.8867 21.9614 85.8867ZM25.2255 91.7951V89.5981H23.806V100.398C25.0694 99.6033 26.4156 99.1747 27.8124 99.1747L27.8535 99.1748H38.5385L38.5796 99.1747C39.9595 99.1747 41.2899 99.593 42.54 100.369V89.2778H41.5153V91.7951C41.5153 93.5265 40.1202 94.93 38.3994 94.93H28.3415C26.6206 94.93 25.2255 93.5265 25.2255 91.7951Z" fill="#2F5A53"/>
<path fill-rule="evenodd" clip-rule="evenodd" d="M41.5693 83.1232H25.2795V77.5105H41.5693V83.1232Z" fill="#19141E"/>
<path opacity="0.395764" fill-rule="evenodd" clip-rule="evenodd" d="M23.6824 100.414C23.7376 100.377 23.7936 100.339 23.8504 100.302V89.6901H25.3241V85.9788H22.0058C20.9871 85.9788 20.1613 86.8096 20.1613 87.8344C20.1319 94.9564 20.1171 100.311 20.1168 103.899C20.2183 103.765 20.3208 103.634 20.4242 103.505C20.5024 103.397 20.5788 103.29 20.6491 103.214C20.6673 103.194 20.685 103.175 20.7022 103.156C16.9951 107.76 14.5317 115.906 14.5317 125.188C14.5317 139.554 20.4338 151.201 27.7149 151.201C27.8899 151.201 28.0642 151.194 28.2377 151.181H37.9592C30.9207 150.639 25.2988 139.209 25.2988 125.188C25.2988 110.848 31.179 99.2184 38.4409 99.1746L27.7559 99.1747C27.7423 99.1746 27.7286 99.1746 27.7149 99.1746C26.3084 99.1746 24.9534 99.6091 23.6824 100.414ZM21.5255 102.214C21.4268 102.318 21.3287 102.424 21.2315 102.532C21.3182 102.431 21.4108 102.328 21.5255 102.214ZM42.5399 123.256H38.551C37.5323 123.256 36.7064 124.087 36.7064 125.112C36.7064 126.137 37.5323 126.968 38.551 126.968H44.3845C45.4032 126.968 46.229 126.137 46.229 125.112V87.4223C46.229 86.3975 45.4032 85.5667 44.3845 85.5667H38.551C37.5323 85.5667 36.7064 86.3975 36.7064 87.4223C36.7064 88.4472 37.5323 89.278 38.551 89.278H42.5399V123.256Z" fill="black"/>
<path d="M59.8406 108.531L64.188 103.819L57.8852 95.7229L50.3183 102.284L53.0473 108.045" stroke="#19141E" stroke-width="4"/>
<path d="M12.6294 108.142L16.5264 103.052L9.50778 95.5676L2.5744 102.794L5.81995 108.281" stroke="#19141E" stroke-width="4"/>
<path d="M9.43045 74.1658L12.5547 51.2715" stroke="#19141E" stroke-width="7" stroke-linecap="round"/>
<path d="M59.3286 73.4683L56.035 50.5979" stroke="#19141E" stroke-width="7" stroke-linecap="round"/>
<path fill-rule="evenodd" clip-rule="evenodd" d="M22.5167 60.705H31.4113C32.7367 60.705 33.811 59.6312 33.811 58.3065V49.4164C33.811 48.0919 32.7367 47.0181 31.4113 47.0181H22.5167C21.1915 47.0181 20.1171 48.0919 20.1171 49.4164V58.3065C20.1171 59.6312 21.1915 60.705 22.5167 60.705Z" fill="#19141E"/>
<path fill-rule="evenodd" clip-rule="evenodd" d="M24.7859 60.705H31.4113C32.7367 60.705 33.811 59.6312 33.811 58.3065V49.4164C33.811 48.0919 32.7367 47.0181 31.4113 47.0181H24.7859C23.4607 47.0181 22.3863 48.0919 22.3863 49.4164V58.3065C22.3863 59.6312 23.4607 60.705 24.7859 60.705Z" fill="#405FD3"/>
<path fill-rule="evenodd" clip-rule="evenodd" d="M55.6718 57.9122C55.7343 57.9137 55.797 57.9145 55.8598 57.9145C59.9942 57.9145 63.3458 54.5644 63.3458 50.4321C63.3458 46.2997 59.9942 42.9496 55.8598 42.9496C54.9767 42.9496 54.1293 43.1025 53.3427 43.3831C49.6538 36.749 42.5708 32.2598 34.4386 32.2598C26.6813 32.2598 19.8786 36.3445 16.066 42.4793C15.3098 42.2225 14.4993 42.0832 13.6563 42.0832C9.52187 42.0832 6.17009 45.4333 6.17009 49.5656C6.17009 53.4959 9.20206 56.7184 13.0557 57.0241C14.5866 67.4553 23.5768 75.4634 34.4386 75.4634C44.9898 75.4634 53.775 67.9064 55.6718 57.9122ZM68.7115 78.5734C68.9386 75.5326 66.6562 72.8838 63.6139 72.6568L55.9706 72.0869C52.9283 71.8599 50.2781 74.1411 50.0512 77.1817L48.7511 94.5952C48.5242 97.636 50.8064 100.285 53.8485 100.512L61.492 101.082C64.5343 101.309 67.1845 99.0275 67.4114 95.9869L68.7115 78.5734ZM13.3108 71.7127C16.3614 71.6964 18.8478 74.155 18.8639 77.2042L18.957 94.6658C18.9732 97.7151 16.5132 100.2 13.4626 100.216L5.79817 100.257C2.74756 100.273 0.261154 97.8147 0.245071 94.7654L0.152031 77.3038C0.135735 74.2548 2.59573 71.7698 5.64634 71.7533L13.3108 71.7127Z" fill="#2F5A53"/>
<path fill-rule="evenodd" clip-rule="evenodd" d="M42.6914 33.9092H26.1856V28.4534H42.6914V33.9092Z" fill="#19141E"/>
<path fill-rule="evenodd" clip-rule="evenodd" d="M24.7861 60.705C23.4609 60.705 22.3866 59.6312 22.3866 58.3065V49.4164C22.3866 48.0919 23.4609 47.0181 24.7861 47.0181H22.517C21.1918 47.0181 20.1174 48.0919 20.1174 49.4164V58.3065C20.1174 59.6312 21.1918 60.705 22.517 60.705H24.7861Z" fill="#19141E"/>
<path opacity="0.397763" fill-rule="evenodd" clip-rule="evenodd" d="M24.7771 60.6969H31.4025C32.7279 60.6969 33.8022 59.6231 33.8022 58.2984V49.4083C33.8022 48.0838 32.7279 47.01 31.4025 47.01H24.7771C23.4519 47.01 22.3775 48.0838 22.3775 49.4083V58.2984C22.3775 59.6231 23.4519 60.6969 24.7771 60.6969ZM30.2689 53.1657C29.3089 53.1657 28.5303 52.3877 28.5303 51.4279C28.5303 50.4684 29.3089 49.6904 30.2689 49.6904C31.229 49.6904 32.0073 50.4684 32.0073 51.4279C32.0073 52.3877 31.229 53.1657 30.2689 53.1657ZM25.3285 53.1657C24.3685 53.1657 23.5899 52.3877 23.5899 51.4279C23.5899 50.4684 24.3685 49.6904 25.3285 49.6904C26.2886 49.6904 27.0671 50.4684 27.0671 51.4279C27.0671 52.3877 26.2886 53.1657 25.3285 53.1657ZM30.2689 58.1879C29.3089 58.1879 28.5303 57.41 28.5303 56.4502C28.5303 55.4906 29.3089 54.7126 30.2689 54.7126C31.229 54.7126 32.0073 55.4906 32.0073 56.4502C32.0073 57.41 31.229 58.1879 30.2689 58.1879Z" fill="black"/>
<path opacity="0.404204" fill-rule="evenodd" clip-rule="evenodd" d="M63.5698 50.3689C63.5698 54.5013 60.2182 57.8513 56.0838 57.8513C51.9493 57.8513 48.5976 54.5013 48.5976 50.3689C48.5976 46.2366 51.9493 42.8865 56.0838 42.8865C60.2182 42.8865 63.5698 46.2366 63.5698 50.3689Z" fill="black"/>
<path opacity="0.398763" fill-rule="evenodd" clip-rule="evenodd" d="M18.7121 77.2438L18.8051 94.7053C18.8214 97.7546 16.3614 100.24 13.3108 100.256L5.64632 100.297C2.59572 100.313 0.109312 97.8542 0.0932217 94.8049L0.000185013 77.3434C-0.0161114 74.2943 2.44389 71.8094 5.49449 71.7929L13.159 71.7523C16.2096 71.736 18.696 74.1945 18.7121 77.2438Z" fill="black"/>
<path opacity="0.397856" fill-rule="evenodd" clip-rule="evenodd" d="M16.123 42.5609C15.3669 42.3041 14.5564 42.1648 13.7134 42.1648C9.57896 42.1648 6.22717 45.5149 6.22717 49.6472C6.22717 53.5775 9.25915 56.7999 13.1128 57.1057C12.9613 56.0735 12.8828 55.0176 12.8828 53.9433C12.8828 49.7662 14.069 45.866 16.123 42.5609H16.123Z" fill="black"/>
<path opacity="0.598121" fill-rule="evenodd" clip-rule="evenodd" d="M30.2694 58.1862C29.3093 58.1862 28.5308 57.4082 28.5308 56.4485C28.5308 55.4889 29.3093 54.7109 30.2694 54.7109C31.2295 54.7109 32.0078 55.4889 32.0078 56.4485C32.0078 57.4082 31.2295 58.1862 30.2694 58.1862Z" fill="black"/>
<path d="M38.665 2.5614C38.665 2.5614 35.0628 4.94263 34.6665 9.0624" stroke="#19141E" stroke-width="3" stroke-linecap="round"/>
<path fill-rule="evenodd" clip-rule="evenodd" d="M39.0058 4.34575C37.8052 4.34575 36.832 3.37276 36.832 2.17277C36.832 0.972778 37.8052 0 39.0058 0C40.2065 0 41.1799 0.972778 41.1799 2.17277C41.1799 3.37276 40.2065 4.34575 39.0058 4.34575ZM49.3617 19.8864H38.4536V28.5207H32.1909V19.8864H21.8559C19.4875 19.8864 17.5496 17.9495 17.5496 15.5823V12.6807C17.5496 10.3135 19.4875 8.37659 21.8559 8.37659H49.3617C51.7301 8.37659 53.668 10.3135 53.668 12.6807V15.5823C53.668 17.9495 51.7301 19.8864 49.3617 19.8864Z" fill="#2F5A53"/>
<path opacity="0.399042" fill-rule="evenodd" clip-rule="evenodd" d="M38.4536 28.5206H32.1909V19.8608H38.4536V28.5206Z" fill="black"/>
<path opacity="0.400367" fill-rule="evenodd" clip-rule="evenodd" d="M38.4531 25.7197L32.1904 23.6579V19.8262H38.4531V25.7197Z" fill="black"/>
<path fill-rule="evenodd" clip-rule="evenodd" d="M49.3617 19.8864C51.7301 19.8864 53.668 17.9495 53.668 15.5823V12.6807C53.668 10.3135 51.7301 8.37659 49.3617 8.37659C46.9933 8.37659 45.0554 10.3135 45.0554 12.6807V15.5823C45.0554 17.9495 46.9933 19.8864 49.3617 19.8864Z" fill="#19141E"/>
<path fill-rule="evenodd" clip-rule="evenodd" d="M42.6079 14.1316C42.6079 15.9541 41.1296 17.4316 39.3063 17.4316C37.4827 17.4316 36.0044 15.9541 36.0044 14.1316C36.0044 12.3089 37.4827 10.8314 39.3063 10.8314C41.1296 10.8314 42.6079 12.3089 42.6079 14.1316Z" fill="white"/>
<path fill-rule="evenodd" clip-rule="evenodd" d="M40.3955 13.6679C40.3955 14.5052 39.7164 15.184 38.8787 15.184C38.0409 15.184 37.3618 14.5052 37.3618 13.6679C37.3618 12.8306 38.0409 12.1519 38.8787 12.1519C39.7164 12.1519 40.3955 12.8306 40.3955 13.6679Z" fill="#19141E"/>
<path fill-rule="evenodd" clip-rule="evenodd" d="M26.5068 14.1316C26.5068 15.9541 25.0286 17.4316 23.205 17.4316C21.3814 17.4316 19.9031 15.9541 19.9031 14.1316C19.9031 12.3089 21.3814 10.8314 23.205 10.8314C25.0286 10.8314 26.5068 12.3089 26.5068 14.1316Z" fill="white"/>
<path fill-rule="evenodd" clip-rule="evenodd" d="M24.2944 13.6679C24.2944 14.5052 23.6153 15.184 22.7776 15.184C21.9398 15.184 21.2607 14.5052 21.2607 13.6679C21.2607 12.8306 21.9398 12.1519 22.7776 12.1519C23.6153 12.1519 24.2944 12.8306 24.2944 13.6679Z" fill="#19141E"/>
<path fill-rule="evenodd" clip-rule="evenodd" d="M32.0098 11.8696L29.0565 14.1094L32.0098 16.3935" fill="#19141E"/>
</g>
</svg>
