<svg width="76" height="117" viewBox="0 0 76 117" fill="none" xmlns="http://www.w3.org/2000/svg">
<g opacity="0.2">
<path d="M31.0422 65.5071L27.7338 102.064" stroke="#19141E" stroke-width="5" stroke-linecap="round"/>
<path d="M44.192 65.2407L44.3745 101.705" stroke="#19141E" stroke-width="5" stroke-linecap="round"/>
<path fill-rule="evenodd" clip-rule="evenodd" d="M45.8624 63.9711C45.8624 65.3908 44.7037 66.5521 43.2873 66.5521H31.6845C30.2683 66.5521 29.1094 65.3908 29.1094 63.9711C29.1094 62.5517 30.2683 61.3901 31.6845 61.3901H43.2873C44.7037 61.3901 45.8624 62.5517 45.8624 63.9711ZM43.4847 97.9271L43.4599 97.927C41.5188 97.927 39.9454 99.943 39.9454 102.43C39.9454 104.916 41.5187 106.932 43.4597 106.932L45.3924 106.932V106.931C47.2891 106.866 48.8109 104.875 48.8109 102.43C48.8109 99.984 47.2891 97.9937 45.3924 97.9286V97.9271H45.3214L45.2966 97.927L45.2718 97.9271H43.4847ZM27.0287 97.9271L27.0039 97.927C25.0629 97.927 23.4894 99.943 23.4894 102.43C23.4894 104.916 25.0629 106.932 27.0038 106.932L28.9365 106.932V106.931C30.833 106.865 32.355 104.875 32.355 102.43C32.355 99.9841 30.833 97.9938 28.9365 97.9286V97.9271H28.8653L28.8405 97.927L28.8157 97.9271H27.0287ZM38.4548 151.86H53.0271L50.7248 145.95L38.4548 151.86ZM31.9507 151.86H17.3785L29.6484 145.95L31.9507 151.86Z" fill="#2F5A53"/>
<path d="M10.4839 61.6773L14.7585 30.3528" stroke="#19141E" stroke-width="6" stroke-linecap="round"/>
<path fill-rule="evenodd" clip-rule="evenodd" d="M50.2874 57.8114H23.6311L19.5662 53.4377H54.3523L50.2874 57.8114Z" fill="#19141E"/>
<path d="M66.1406 60.6362L61.6343 29.344" stroke="#19141E" stroke-width="6" stroke-linecap="round"/>
<path fill-rule="evenodd" clip-rule="evenodd" d="M12.5368 47.1719V38.3399C12.3263 38.2992 12.1159 38.249 11.9058 38.189C8.01972 37.0784 5.77034 33.0293 6.88153 29.145C7.99254 25.2609 12.0438 23.0124 15.9299 24.1232C16.091 24.1693 16.2492 24.2203 16.4045 24.2762C17.4268 23.7285 18.5929 23.4173 19.8281 23.4173H54.0901C55.2028 23.4173 56.2593 23.6698 57.2052 24.1202C58.3218 23.4305 59.6379 23.0325 61.047 23.0325C65.0889 23.0325 68.3655 26.3074 68.3655 30.3473C68.3655 34.2751 65.2681 37.4798 61.3815 37.6546V47.1719C61.3815 51.18 58.1005 54.4595 54.0901 54.4595H19.8281C15.8178 54.4595 12.5368 51.18 12.5368 47.1719ZM3.43057 101.746C3.36303 100.033 3.93282 98.4417 4.92882 97.2019C1.98437 95.5502 -0.0120544 92.3923 9.15527e-05 88.7956L0.0665894 68.984C0.0842209 63.7072 4.41839 59.4044 9.69786 59.4221C14.9771 59.4399 19.2823 63.7716 19.2647 69.0484L19.1982 88.8601C19.1873 92.0812 17.568 94.9395 15.1071 96.6736C16.2192 97.7918 16.9531 99.2904 17.0784 100.958C17.0973 101.21 17.1025 101.459 17.0946 101.706C17.0586 102.822 15.6279 103.242 14.9907 102.324C14.264 101.278 13.2637 100.646 12.1838 100.688C10.1115 100.77 8.52946 103.307 8.6496 106.356L8.65053 106.376C8.68837 107.284 7.73277 107.893 6.9381 107.45C4.92532 106.329 3.52793 104.217 3.43057 101.746ZM68.0295 97.4105C71.3789 96.1119 73.8747 92.9767 74.1585 89.1742L75.6334 69.4174C76.0264 64.1552 72.0399 59.5285 66.7752 59.136C61.5104 58.7432 56.8814 62.7275 56.4885 67.9897L55.0137 87.7465C54.767 91.0503 56.2465 94.1036 58.6848 96.0158C56.9981 97.2128 55.8668 99.1521 55.7891 101.34C55.7801 101.592 55.7848 101.841 55.8025 102.087C55.8826 103.202 57.3283 103.565 57.929 102.623C58.614 101.548 59.5885 100.877 60.6692 100.877C62.7429 100.877 64.424 103.35 64.424 106.402V106.421C64.4218 107.331 65.4007 107.901 66.1775 107.427C68.1444 106.228 69.4573 104.062 69.4573 101.589C69.4573 100.015 68.9246 98.5657 68.0295 97.4105ZM43.236 57.7889V62.0118H30.6822V57.7889H43.236Z" fill="#2F5A53"/>
<path opacity="0.394764" fill-rule="evenodd" clip-rule="evenodd" d="M55.7888 101.34C55.7798 101.592 55.7846 101.841 55.8022 102.087C55.8823 103.202 57.328 103.565 57.9287 102.623C58.6137 101.548 59.5882 100.877 60.6689 100.877C62.7427 100.877 64.4237 103.35 64.4237 106.402V106.421C64.4215 107.331 65.4004 107.901 66.1773 107.427C68.1441 106.227 69.457 104.062 69.457 101.589C69.457 97.7466 66.2822 94.6446 62.4093 94.7609C58.8411 94.8679 55.9156 97.774 55.7888 101.34ZM22.2354 38.404C22.2354 43.0859 25.645 46.9709 30.1178 47.7164C30.1823 47.7054 30.2448 47.6943 30.3089 47.6815C34.6882 46.8626 38.0021 43.0198 38.0021 38.404C38.0021 33.7882 34.6882 29.9453 30.3089 29.1264C30.2448 29.1136 30.1823 29.1026 30.1178 29.0916C25.645 29.837 22.2354 33.7221 22.2354 38.404ZM37.1956 38.4167C37.1956 41.4373 34.7458 43.8859 31.7236 43.8859C28.7014 43.8859 26.2517 41.4373 26.2517 38.4167C26.2517 35.396 28.7014 32.9473 31.7236 32.9473C34.7458 32.9473 37.1956 35.396 37.1956 38.4167ZM68.404 30.3475C68.404 26.3077 65.1274 23.0327 61.0855 23.0327C57.0436 23.0327 53.767 26.3077 53.767 30.3475C53.767 34.3874 57.0436 37.6623 61.0855 37.6623C65.1274 37.6623 68.404 34.3874 68.404 30.3475ZM66.638 28.9914C66.638 30.9512 65.0485 32.5399 63.0877 32.5399C61.1269 32.5399 59.5373 30.9512 59.5373 28.9914C59.5373 27.0316 61.1269 25.4429 63.0877 25.4429C65.0485 25.4429 66.638 27.0316 66.638 28.9914ZM16.4175 24.2957C16.2622 24.2398 16.104 24.1887 15.943 24.1427C12.0569 23.0319 8.00559 25.2803 6.89459 29.1645C5.7834 33.0488 8.03278 37.0978 11.9189 38.2084C12.1289 38.2685 12.3394 38.3187 12.5499 38.3593V30.7244C12.5499 27.9508 14.1209 25.5262 16.4175 24.2957ZM4.92895 97.1662C3.93295 98.4059 3.36316 99.9968 3.4307 101.71C3.52806 104.181 4.92545 106.293 6.93822 107.414C7.7329 107.857 8.68849 107.249 8.65065 106.34C8.65028 106.333 8.6501 106.327 8.64973 106.32C8.52959 103.271 10.1116 100.734 12.1839 100.652C13.2639 100.61 14.2641 101.242 14.9908 102.288C15.628 103.206 17.0587 102.786 17.0947 101.67C17.1026 101.423 17.0974 101.174 17.0785 100.922C16.9532 99.2546 16.2193 97.756 15.1072 96.6378C17.5681 94.9037 19.1874 92.0455 19.1983 88.8243L19.2648 69.0127C19.2824 63.7359 14.9773 59.4041 9.69799 59.3863C4.41852 59.3687 0.0843506 63.6714 0.0667191 68.9482L0.000221252 88.7599C-0.0119247 92.3566 1.9845 95.5144 4.92895 97.1662ZM43.0152 45.9786C43.0152 44.9412 42.1737 44.1001 41.1358 44.1001C40.0977 44.1001 39.2564 44.9412 39.2564 45.9786C39.2564 47.0159 40.0977 47.857 41.1358 47.857C42.1737 47.857 43.0152 47.0159 43.0152 45.9786ZM48.4472 45.9786C48.4472 44.9412 47.6057 44.1001 46.568 44.1001C45.5299 44.1001 44.6884 44.9412 44.6884 45.9786C44.6884 47.0159 45.5299 47.857 46.568 47.857C47.6057 47.857 48.4472 47.0159 48.4472 45.9786ZM73.2103 70.885C73.2906 69.8506 72.5167 68.9473 71.4817 68.867C70.4468 68.787 69.5428 69.5605 69.4627 70.5947C69.3825 71.6292 70.1566 72.5325 71.1913 72.6127C72.2263 72.6928 73.1301 71.9193 73.2103 70.885ZM72.8086 76.067C72.8889 75.0326 72.115 74.1293 71.0802 74.049C70.0452 73.969 69.1413 74.7425 69.0612 75.7767C68.9809 76.8112 69.7548 77.7145 70.7898 77.7947C71.8247 77.8748 72.7283 77.1013 72.8086 76.067ZM72.3972 81.3742C72.4775 80.3399 71.7036 79.4364 70.6686 79.3562C69.6337 79.2761 68.7299 80.0496 68.6498 81.0839C68.5695 82.1183 69.3434 83.0218 70.3782 83.1019C71.4132 83.1821 72.317 82.4086 72.3972 81.3742ZM43.3293 61.9567V57.7338H30.6541V61.9567H43.3293Z" fill="black"/>
<path fill-rule="evenodd" clip-rule="evenodd" d="M30.1621 47.7284C25.6893 46.983 22.2796 43.0979 22.2796 38.416C22.2796 33.7341 25.6893 29.8491 30.1621 29.1036C29.6551 29.0192 29.1336 28.9751 28.6025 28.9751C23.3857 28.9751 19.1568 33.2017 19.1568 38.416C19.1568 43.6304 23.3857 47.857 28.6025 47.857C29.1336 47.857 29.6551 47.8129 30.1621 47.7284Z" fill="#19141E"/>
<path d="M26.306 10.2256H31.9023" stroke="#19141E" stroke-width="3" stroke-linecap="round"/>
<path d="M43.389 2.59729C44.453 2.59729 45.3237 3.46739 45.3237 4.53101" stroke="white" stroke-width="5" stroke-linecap="round"/>
<path d="M51.6833 10.2256H44.8" stroke="#19141E" stroke-width="3" stroke-linecap="round"/>
<path fill-rule="evenodd" clip-rule="evenodd" d="M26.5638 20.5542C25.5476 20.6266 24.7456 21.4736 24.7456 22.5077V23.388H50.8759V22.5077C50.8759 21.4736 50.0741 20.6266 49.0578 20.5542V20.2055C49.0578 19.0135 48.1865 18.0151 47.049 17.815V3.43882C47.049 2.0974 45.9509 1 44.609 1H31.0126C29.6705 1 28.5725 2.0974 28.5725 3.43882V17.8151C27.4351 18.0151 26.5638 19.0135 26.5638 20.2055V20.5542ZM22.4159 10.2256C22.4159 11.5341 23.4772 12.595 24.7864 12.595C26.0956 12.595 27.157 11.5341 27.157 10.2256C27.157 8.91701 26.0956 7.85632 24.7864 7.85632C23.4772 7.85632 22.4159 8.91701 22.4159 10.2256ZM51.6133 7.85632C52.9225 7.85632 53.9839 8.91701 53.9839 10.2256C53.9839 11.5341 52.9225 12.595 51.6133 12.595C50.3041 12.595 49.2426 11.5341 49.2426 10.2256C49.2426 8.91701 50.3041 7.85632 51.6133 7.85632Z" fill="#2F5A53"/>
<path opacity="0.395926" fill-rule="evenodd" clip-rule="evenodd" d="M49.0578 20.5542V19.9493C48.9514 18.8524 47.9652 17.7786 46.6297 17.7786H28.992C27.6565 17.7786 26.7117 18.7699 26.5639 19.8702V20.5542C25.5477 20.6266 24.7457 21.4735 24.7457 22.5077V23.388H50.876V22.5077C50.876 21.4736 50.0742 20.6266 49.0578 20.5542ZM22.4159 10.2256C22.4159 11.5341 23.4772 12.595 24.7864 12.595C26.0956 12.595 27.157 11.5341 27.157 10.2256C27.157 8.91701 26.0956 7.85632 24.7864 7.85632C23.4772 7.85632 22.4159 8.91701 22.4159 10.2256ZM53.9839 10.2256C53.9839 8.91701 52.9225 7.85632 51.6133 7.85632C50.3041 7.85632 49.2426 8.91701 49.2426 10.2256C49.2426 11.5341 50.3041 12.595 51.6133 12.595C52.9225 12.595 53.9839 11.5341 53.9839 10.2256Z" fill="black"/>
<path d="M48.9028 20.6123H26.6186" stroke="#19141E" stroke-width="2"/>
<path d="M43.2458 14.0896H28.5728" stroke="#19141E" stroke-width="3"/>
<path fill-rule="evenodd" clip-rule="evenodd" d="M39.4109 7.118C40.4451 7.96882 40.5933 9.49659 39.7421 10.5303C38.8908 11.564 37.3623 11.7121 36.3281 10.8613C35.2938 10.0105 35.1456 8.48273 35.9968 7.44904C36.8481 6.41534 38.3766 6.26718 39.4109 7.118Z" fill="white"/>
<path fill-rule="evenodd" clip-rule="evenodd" d="M38.1147 8.15571C38.5897 8.54661 38.6579 9.24834 38.2668 9.72333C37.8757 10.1981 37.1736 10.2662 36.6985 9.87535C36.2233 9.48446 36.1552 8.78272 36.5463 8.30774C36.9373 7.83294 37.6396 7.76482 38.1147 8.15571Z" fill="#19141E"/>
<path fill-rule="evenodd" clip-rule="evenodd" d="M33.0307 7.118C34.065 7.96882 34.2132 9.49659 33.3619 10.5303C32.5107 11.564 30.9821 11.7121 29.9479 10.8613C28.9137 10.0105 28.7655 8.48273 29.6167 7.44904C30.468 6.41534 31.9965 6.26718 33.0307 7.118Z" fill="white"/>
<path fill-rule="evenodd" clip-rule="evenodd" d="M31.7345 8.15571C32.2096 8.54661 32.2777 9.24834 31.8866 9.72333C31.4955 10.1981 30.7935 10.2662 30.3184 9.87535C29.8432 9.48446 29.775 8.78272 30.1661 8.30774C30.5572 7.83294 31.2595 7.76482 31.7345 8.15571Z" fill="#19141E"/>
</g>
</svg>
