<svg width="18" height="19" viewBox="0 0 18 19" fill="none" xmlns="http://www.w3.org/2000/svg">
<path d="M10.0547 0.69577H7.94531C7.26683 0.69577 6.71484 1.24776 6.71484 1.92624V4.03561C6.71484 4.71409 7.26683 5.26608 7.94531 5.26608H10.0547C10.7332 5.26608 11.2852 4.71409 11.2852 4.03561V1.92624C11.2852 1.24776 10.7332 0.69577 10.0547 0.69577Z" fill="white"/>
<path d="M16.7695 7.41061H14.6602C13.9817 7.41061 13.4297 7.9626 13.4297 8.64108V10.7505C13.4297 11.4289 13.9817 11.9809 14.6602 11.9809H16.7695C17.448 11.9809 18 11.4289 18 10.7505V8.64108C18 7.9626 17.448 7.41061 16.7695 7.41061Z" fill="white"/>
<path d="M3.33984 11.9809C4.01832 11.9809 4.57031 11.4289 4.57031 10.7505V8.64108C4.57031 7.9626 4.01832 7.41061 3.33984 7.41061H1.23047C0.551988 7.41061 0 7.9626 0 8.64108V10.7505C0 11.4289 0.551988 11.9809 1.23047 11.9809H3.33984Z" fill="white"/>
<path d="M10.0547 14.1255H7.94531C7.26683 14.1255 6.71484 14.6774 6.71484 15.3559V17.4653C6.71484 18.1438 7.26683 18.6958 7.94531 18.6958H10.0547C10.7332 18.6958 11.2852 18.1438 11.2852 17.4653V15.3559C11.2852 14.6774 10.7332 14.1255 10.0547 14.1255Z" fill="white"/>
<path d="M12.9023 3.50827H15.1875V4.52031L15.033 4.36584C14.8271 4.15993 14.4932 4.15993 14.2873 4.36584C14.0813 4.57175 14.0813 4.90566 14.2873 5.11161L15.3419 6.16629C15.4449 6.26927 15.5799 6.32077 15.7148 6.32077C15.8498 6.32077 15.9848 6.26927 16.0877 6.16629L17.1424 5.11161C17.3483 4.9057 17.3483 4.57178 17.1424 4.36584C16.9365 4.15993 16.6026 4.15993 16.3966 4.36584L16.2422 4.52031V2.98093C16.2422 2.68969 16.0061 2.45358 15.7148 2.45358H12.9023C12.6111 2.45358 12.375 2.68969 12.375 2.98093C12.375 3.27216 12.6111 3.50827 12.9023 3.50827Z" fill="white"/>
<path d="M5.09767 15.8833H2.81252V14.8712L2.96699 15.0257C3.06993 15.1286 3.2049 15.1801 3.33986 15.1801C3.47483 15.1801 3.60979 15.1286 3.71273 15.0257C3.91867 14.8197 3.91867 14.4858 3.71273 14.2799L2.65804 13.2252C2.45213 13.0193 2.11822 13.0193 1.91227 13.2252L0.857584 14.2799C0.651639 14.4858 0.651639 14.8197 0.857584 15.0257C1.06349 15.2316 1.39741 15.2316 1.60335 15.0257L1.75783 14.8712V16.4106C1.75783 16.7018 1.99394 16.9379 2.28517 16.9379H5.09767C5.38891 16.9379 5.62502 16.7018 5.62502 16.4106C5.62502 16.1194 5.38891 15.8833 5.09767 15.8833Z" fill="white"/>
<path d="M15.7148 13.0708C15.4236 13.0708 15.1875 13.3069 15.1875 13.5981V15.8833H14.1754L14.3299 15.7288C14.5359 15.5229 14.5359 15.189 14.3299 14.983C14.124 14.7771 13.7901 14.7771 13.5841 14.983L12.5295 16.0377C12.3235 16.2436 12.3235 16.5775 12.5295 16.7835L13.5841 17.8382C13.6871 17.9411 13.822 17.9926 13.957 17.9926C14.092 17.9926 14.2269 17.9411 14.3299 17.8382C14.5358 17.6323 14.5358 17.2983 14.3299 17.0924L14.1754 16.938H15.7148C16.0061 16.938 16.2422 16.7018 16.2422 16.4106V13.5981C16.2422 13.3069 16.0061 13.0708 15.7148 13.0708Z" fill="white"/>
<path d="M4.41583 1.55339C4.20992 1.34748 3.87601 1.34748 3.67007 1.55339C3.46412 1.7593 3.46412 2.09321 3.67007 2.29916L3.82454 2.4536H2.28516C1.99392 2.4536 1.75781 2.68971 1.75781 2.98094V5.79344C1.75781 6.08468 1.99392 6.32079 2.28516 6.32079C2.57639 6.32079 2.8125 6.08468 2.8125 5.79344V3.50829H3.82454L3.67007 3.66276C3.46412 3.86867 3.46412 4.20259 3.67007 4.40853C3.77304 4.51147 3.908 4.56297 4.04297 4.56297C4.17793 4.56297 4.3129 4.51147 4.41583 4.4085L5.47052 3.35381C5.67647 3.1479 5.67647 2.81399 5.47052 2.60804L4.41583 1.55339Z" fill="white"/>
</svg>
