<svg width="63" height="119" viewBox="0 0 63 119" fill="none" xmlns="http://www.w3.org/2000/svg">
<g opacity="0.2">
<path d="M24.4404 74.9983L20.421 119.577" stroke="#19141E" stroke-width="5" stroke-linecap="round"/>
<path d="M45.1825 74.6607C45.1755 73.244 44.0282 72.1013 42.62 72.1084C41.2117 72.1155 40.0759 73.2698 40.083 74.6865L40.3047 119.153C40.3117 120.569 41.459 121.712 42.8673 121.705C44.2755 121.698 45.4113 120.543 45.4043 119.127L45.1825 74.6607Z" fill="#19141E"/>
<path fill-rule="evenodd" clip-rule="evenodd" d="M48.0584 73.1723C48.0508 75.4838 46.9263 77.5416 45.2035 78.8276L45.1828 74.6608C45.1757 73.2441 44.0284 72.1014 42.6202 72.1085C41.212 72.1156 40.0761 73.2698 40.0832 74.6865L40.1107 80.2144L25.1211 80.1639C21.2564 80.1508 18.1048 76.959 18.1179 73.0711C18.1308 69.1831 21.3034 66.0128 25.1683 66.0257L41.0553 66.0795C44.9201 66.0924 48.0715 69.2842 48.0584 73.1723ZM33.0836 168.571L33.6363 173.677C34.8021 171.246 37.0209 169.421 39.6975 168.803L36.6222 140.312C36.4626 138.833 37.5246 137.506 38.9947 137.345L50.3558 136.102C51.8281 135.942 53.1473 137.01 53.307 138.489L56.553 168.571L57.5286 177.585L57.8213 180.302H9.28154V177.585C9.28376 173.304 12.2504 169.722 16.2281 168.803L13.1528 140.312C12.9932 138.833 14.0552 137.506 15.5253 137.345L26.8864 136.102C28.3587 135.942 29.6779 137.01 29.8376 138.489L33.0836 168.571ZM37.1355 120.968C37.1355 124.51 39.99 127.381 43.5108 127.381C47.0318 127.381 49.8862 124.51 49.8862 120.968C49.8862 117.425 47.0318 114.554 43.5108 114.554C39.99 114.554 37.1355 117.425 37.1355 120.968ZM20.068 127.381C16.5473 127.381 13.6928 124.51 13.6928 120.968C13.6928 117.425 16.5473 114.554 20.068 114.554C23.589 114.554 26.4435 117.425 26.4435 120.968C26.4435 124.51 23.589 127.381 20.068 127.381Z" fill="#2F5A53"/>
<path d="M18.2217 61.2583L8.21638 82.8529" stroke="#19141E" stroke-width="5" stroke-linecap="round"/>
<path fill-rule="evenodd" clip-rule="evenodd" d="M37.7808 66.0257H30.021V59.78H37.7808V66.0257Z" fill="#19141E"/>
<path d="M55.8315 85.0882L53.6853 61.5454" stroke="#19141E" stroke-width="5" stroke-linecap="round"/>
<path fill-rule="evenodd" clip-rule="evenodd" d="M47.4888 60.0557L47.6427 60.3597C49.0152 63.0715 52.3574 64.1678 55.0703 62.7962L55.5276 62.5651C58.2405 61.1935 59.3374 57.8528 57.9651 55.141L50.2009 39.7992C49.1565 37.7351 46.9704 36.6069 44.7893 36.7907C43.7585 36.3685 42.6322 36.1355 41.454 36.1355H26.3467C24.2238 36.1355 22.269 36.892 20.7389 38.1487C18.7214 38.5956 17.0286 40.1595 16.5334 42.2964L12.6506 59.0457C11.9646 62.0059 13.8265 64.9891 16.7882 65.6751L17.2875 65.7906C20.1084 66.4439 22.9502 64.7867 23.8072 62.0697C24.6125 62.3123 25.4651 62.4427 26.3467 62.4427H41.454C43.7799 62.4427 45.904 61.5346 47.4888 60.0557ZM6.15046 92.079L8.64779 94.3071C8.76196 94.1793 8.9423 93.9635 9.16711 93.6715C9.53475 93.194 9.90135 92.6653 10.2452 92.0955C11.1735 90.557 11.777 89 11.8825 87.4536C12.0243 85.3745 11.224 83.5259 9.39714 82.1936C7.56866 80.8601 5.66284 80.7454 4.03181 81.7955C2.86895 82.5441 1.97274 83.7859 1.23542 85.3845C0.863079 86.1918 0.554947 87.044 0.303886 87.8946C0.216244 88.1915 0.141666 88.4681 0.0797081 88.7183C0.0412903 88.8734 0.0148506 88.989 4.95911e-05 89.0587L3.27486 89.7527C3.28207 89.7187 3.30014 89.6397 3.3292 89.5224C3.3797 89.3185 3.44152 89.0892 3.51469 88.8413C3.72308 88.1353 3.97779 87.4308 4.27555 86.7852C4.77059 85.7119 5.32622 84.9421 5.84461 84.6083C6.27585 84.3307 6.6816 84.3551 7.42395 84.8965C8.29217 85.5297 8.60847 86.2603 8.54262 87.2261C8.47942 88.1528 8.05639 89.2442 7.37854 90.3675C7.10428 90.8221 6.80866 91.2484 6.51409 91.631C6.4122 91.7634 6.31857 91.8798 6.23597 91.9786C6.19006 92.0336 6.16062 92.0676 6.15046 92.079ZM62.5836 93.8164L59.2418 93.6191C59.2423 93.6106 59.2437 93.5809 59.2453 93.5318C59.2567 93.175 59.2499 92.7168 59.2108 92.1991C59.1546 91.4543 59.0401 90.7268 58.8578 90.0619C58.3168 88.0883 57.3851 87.1347 55.7791 87.198C54.3954 87.2525 54.0512 87.8926 54.3017 89.6919C54.3995 90.3942 54.604 91.1717 54.884 91.9713C55.0312 92.3917 55.1894 92.7901 55.3469 93.1513C55.4013 93.2762 55.4514 93.3867 55.4956 93.4811C55.5204 93.534 55.5366 93.5675 55.5426 93.5796L52.5442 95.0676C52.4862 94.9506 52.3936 94.7531 52.2779 94.4879C52.0889 94.0543 51.9006 93.5799 51.7243 93.0767C51.3766 92.0837 51.1179 91.1 50.9861 90.1531C50.7744 88.6332 50.896 87.2905 51.4971 86.1728C52.269 84.7377 53.7127 83.931 55.6472 83.8547C59.0823 83.7194 61.1782 85.8644 62.0864 89.1778C62.5141 90.738 62.6334 92.3178 62.5911 93.6387C62.5886 93.7186 62.5858 93.7784 62.5836 93.8164Z" fill="#2F5A53"/>
<path fill-rule="evenodd" clip-rule="evenodd" d="M33.7287 53.8203H26.3126C24.8394 53.8203 23.6345 52.6158 23.6345 51.1436V46.7968C23.6345 45.3246 24.8394 44.1201 26.3126 44.1201H33.7287C35.2018 44.1201 36.4067 45.3246 36.4067 46.7968V51.1436C36.4067 52.6158 35.2018 53.8203 33.7287 53.8203Z" fill="#19141E"/>
<path opacity="0.399182" fill-rule="evenodd" clip-rule="evenodd" d="M50.224 39.8328C48.8519 37.1211 45.5092 36.0247 42.7963 37.3963L42.3393 37.6274C39.6264 38.999 38.5293 42.3398 39.9016 45.0515L47.6658 60.3934C49.0383 63.1051 52.3805 64.2014 55.0934 62.8298L55.5507 62.5988C58.2636 61.2272 59.3605 57.8864 57.9882 55.1747L50.224 39.8328ZM19.3247 62.4858C20.1623 61.9727 20.5333 60.9872 20.3046 60.0826C21.2819 60.985 22.4614 61.6716 23.765 62.0643C22.908 64.7813 20.0663 66.4385 17.2453 65.7852L16.7461 65.6696C13.7843 64.9837 11.9224 62.0005 12.6084 59.0403L16.4912 42.291C16.9864 40.1541 18.6792 38.5902 20.6967 38.1432C18.7154 39.7705 17.4462 42.2363 17.4462 44.984V53.5836C17.4462 55.4388 18.0248 57.1655 19.0105 58.5923C18.3867 58.3374 17.6539 58.3726 17.0351 58.7516C16.0034 59.3835 15.6796 60.7317 16.3118 61.7629C16.9441 62.7941 18.2929 63.1178 19.3247 62.4858ZM8.6866 94.1874L6.18928 91.9593C6.19944 91.9479 6.22887 91.9139 6.27479 91.8589C6.35738 91.7601 6.45103 91.6437 6.55291 91.5113C6.84748 91.1287 7.1431 90.7024 7.41736 90.2479C8.0952 89.1245 8.51824 88.0331 8.58144 87.1064C8.6473 86.1406 8.33099 85.41 7.46277 84.7768C6.72042 84.2354 6.31467 84.211 5.88343 84.4886C5.36504 84.8224 4.80941 85.5922 4.31437 86.6655C4.01662 87.3111 3.7619 88.0156 3.55351 88.7216C3.48034 88.9695 3.41853 89.1988 3.36802 89.4027C3.33896 89.52 3.32089 89.599 3.31368 89.633L0.0388718 88.9391C0.0536728 88.8693 0.0801086 88.7537 0.11853 88.5986C0.180489 88.3485 0.255066 88.0718 0.342709 87.7749C0.593769 86.9243 0.901901 86.0721 1.27425 85.2648C2.01157 83.6662 2.90778 82.4244 4.07063 81.6758C5.70166 80.6257 7.60748 80.7404 9.43596 82.0739C11.2628 83.4062 12.0631 85.2548 11.9213 87.3339C11.8158 88.8803 11.2123 90.4373 10.284 91.9758C9.94017 92.5456 9.57357 93.0743 9.20593 93.5518C8.98112 93.8438 8.80078 94.0596 8.6866 94.1874ZM51.9544 55.2152C50.7961 55.565 50.1411 56.7871 50.4908 57.9448C50.8407 59.1025 52.0635 59.7572 53.2218 59.4076C54.38 59.0576 55.0353 57.8357 54.6853 56.678C54.3354 55.5201 53.1126 54.8655 51.9544 55.2152ZM43.2049 43.548C42.855 42.3904 43.5102 41.1684 44.6685 40.8185C45.8267 40.4687 47.0495 41.1236 47.3994 42.2813C47.7494 43.439 47.0941 44.6609 45.9359 45.0109C44.7776 45.3606 43.5548 44.7057 43.2049 43.548ZM62.5816 93.8383L59.2399 93.641C59.2404 93.6325 59.2417 93.6028 59.2433 93.5537C59.2547 93.1969 59.2479 92.7387 59.2089 92.2211C59.1527 91.4762 59.0382 90.7487 58.8559 90.0838C58.3149 88.1102 57.3831 87.1566 55.7772 87.2199C54.3935 87.2744 54.0492 87.9146 54.2998 89.7138C54.3975 90.4161 54.602 91.1936 54.882 91.9932C55.0293 92.4136 55.1874 92.812 55.3449 93.1733C55.3993 93.2981 55.4494 93.4086 55.4936 93.503C55.5185 93.556 55.5346 93.5894 55.5407 93.6015L52.5423 95.0895C52.4842 94.9725 52.3916 94.775 52.276 94.5098C52.087 94.0762 51.8986 93.6018 51.7224 93.0986C51.3746 92.1056 51.116 91.1219 50.9841 90.175C50.7725 88.6551 50.894 87.3124 51.4952 86.1947C52.267 84.7596 53.7108 83.9529 55.6453 83.8766C59.0803 83.7413 61.1762 85.8863 62.0845 89.1997C62.5122 90.7599 62.6314 92.3397 62.5892 93.6606C62.5866 93.7405 62.5839 93.8003 62.5816 93.8383Z" fill="black"/>
<path opacity="0.601772" fill-rule="evenodd" clip-rule="evenodd" d="M50.4979 57.94C50.8478 59.0976 52.0706 59.7523 53.2288 59.4028C54.3871 59.0528 55.0424 57.8309 54.6924 56.6732C54.3425 55.5153 53.1197 54.8606 51.9614 55.2104C50.8032 55.5601 50.1482 56.7823 50.4979 57.94ZM43.2122 43.5435C43.5622 44.7011 44.7849 45.356 45.9432 45.0063C47.1015 44.6563 47.7567 43.4344 47.4068 42.2767C47.0568 41.119 45.8341 40.4641 44.6758 40.8139C43.5175 41.1639 42.8623 42.3858 43.2122 43.5435ZM16.3142 61.7759C16.9464 62.8071 18.2953 63.1308 19.327 62.4989C20.3585 61.8669 20.6824 60.5188 20.0501 59.4876C19.4181 58.4566 18.0692 58.1327 17.0375 58.7646C16.0058 59.3965 15.6819 60.7447 16.3142 61.7759Z" fill="black"/>
<path d="M18.862 21.6654V6.08557" stroke="#19141E" stroke-width="4"/>
<path fill-rule="evenodd" clip-rule="evenodd" d="M17.4595 28.2782H23.9048V18.6761H17.4595C14.8176 18.6761 12.6562 20.8365 12.6562 23.4771C12.6562 26.1176 14.8176 28.2782 17.4595 28.2782Z" fill="#19141E"/>
<path fill-rule="evenodd" clip-rule="evenodd" d="M22.3179 3.02866C22.095 1.3197 20.6327 0 18.8621 0C16.9374 0 15.377 1.55963 15.377 3.48352C15.377 5.40741 16.9374 6.96705 18.8621 6.96705C20.2699 6.96705 21.4828 6.13277 22.0328 4.93188L24.4633 3.07319L27.7707 5.60235L31.0756 3.07336L34.3814 5.60241L37.6864 3.07337L40.992 5.6024L42.8167 4.20633C43.1496 5.78335 44.5497 6.96705 46.2266 6.96705C48.1515 6.96705 49.7119 5.40741 49.7119 3.48352C49.7119 1.55963 48.1515 0 46.2266 0C44.6575 0 43.3306 1.03646 42.8938 2.46178L40.992 3.91694L37.6863 1.38787L34.3813 3.91693L31.0755 1.38788L27.7704 3.91699L24.4633 1.38804L22.3179 3.02866ZM42.8797 35.3737H45.2079C47.2053 35.3737 48.8245 33.7554 48.8245 31.759V15.1955C48.8245 13.1991 47.2053 11.5806 45.2079 11.5806H20.121C18.1236 11.5806 16.5045 13.1991 16.5045 15.1955V31.759C16.5045 33.7554 18.1236 35.3737 20.121 35.3737H22.4489C22.4523 35.3737 22.4556 35.3737 22.459 35.3737H42.8695C42.8729 35.3737 42.8763 35.3737 42.8797 35.3737ZM42.8797 35.3737C43.7806 35.3791 44.5096 36.1109 44.5096 37.0129C44.5096 37.9183 43.7752 38.6522 42.8695 38.6522H22.459C21.5531 38.6522 20.8189 37.9183 20.8189 37.0129C20.8189 36.1109 21.5477 35.3791 22.4489 35.3737H42.8797Z" fill="#2F5A53"/>
<path opacity="0.404367" d="M37.6862 3.07333L40.9919 5.60236L42.8164 4.21968L42.9023 2.45573L40.9918 3.91689L37.6862 1.38782L34.3812 3.91688L31.0753 1.38783L27.7703 3.91694L24.4632 1.388L22.3472 3.07315L21.9953 4.94323L24.4632 3.07315L27.7705 5.6023L31.0754 3.07332L34.3813 5.60237L37.6862 3.07333Z" fill="black"/>
<path opacity="0.395624" fill-rule="evenodd" clip-rule="evenodd" d="M22.4591 38.6522H42.8697C43.7753 38.6522 44.5098 37.9183 44.5098 37.0129C44.5098 36.1075 43.7753 35.3737 42.8697 35.3737H22.4591C21.5533 35.3737 20.819 36.1075 20.819 37.0129C20.819 37.9183 21.5533 38.6522 22.4591 38.6522Z" fill="black"/>
<path fill-rule="evenodd" clip-rule="evenodd" d="M49.983 28.2782H43.538V18.6761H49.983C52.625 18.6761 54.7866 20.8365 54.7866 23.4771C54.7866 26.1176 52.625 28.2782 49.983 28.2782Z" fill="#19141E"/>
<path fill-rule="evenodd" clip-rule="evenodd" d="M18.8619 23.4772C18.8619 27.1487 21.241 30.1252 24.1755 30.1252C27.11 30.1252 29.4888 27.1487 29.4888 23.4772C29.4888 19.8056 27.11 16.8291 24.1755 16.8291C21.241 16.8291 18.8619 19.8056 18.8619 23.4772Z" fill="#19141E"/>
<path fill-rule="evenodd" clip-rule="evenodd" d="M26.6729 30.1251H24.176V16.829H26.6729V30.1251Z" fill="#19141E"/>
<path fill-rule="evenodd" clip-rule="evenodd" d="M21.359 23.4772C21.359 27.1487 23.7378 30.1252 26.6725 30.1252C29.607 30.1252 31.9858 27.1487 31.9858 23.4772C31.9858 19.8056 29.607 16.8291 26.6725 16.8291C23.7378 16.8291 21.359 19.8056 21.359 23.4772Z" fill="white"/>
<path fill-rule="evenodd" clip-rule="evenodd" d="M23.952 23.0309C23.952 24.3233 24.7894 25.3712 25.8225 25.3712C26.8555 25.3712 27.6929 24.3233 27.6929 23.0309C27.6929 21.7385 26.8555 20.6906 25.8225 20.6906C24.7894 20.6906 23.952 21.7385 23.952 23.0309Z" fill="#19141E"/>
<path d="M46.2268 21.6654V6.80337" stroke="#19141E" stroke-width="4"/>
</g>
</svg>
