<svg width="34" height="33" viewBox="0 0 34 33" fill="none" xmlns="http://www.w3.org/2000/svg">
<circle cx="17.0762" cy="16.4395" r="16.4395" fill="#4E6297"/>
<path d="M24.474 11.3586C24.474 10.1277 23.388 9.04172 22.1572 9.04172H12.8173C11.5865 9.04172 10.5005 10.1277 10.5005 11.3586V20.6984C10.5005 21.9292 11.5865 23.0153 12.8173 23.0153H17.5235V17.7299H15.7858V15.4131H17.5235V14.4719C17.5235 12.879 18.6819 11.5034 20.1299 11.5034H22.0124V13.8202H20.1299C19.9127 13.8202 19.6955 14.0374 19.6955 14.4719V15.4131H22.0124V17.7299H19.6955V23.0153H22.1572C23.388 23.0153 24.474 21.9292 24.474 20.6984V11.3586Z" fill="white"/>
</svg>
