<svg width="289" height="108" viewBox="0 0 289 108" fill="none" xmlns="http://www.w3.org/2000/svg">
<path d="M288.5 1C261.167 43.1667 161 109.5 9 100.5" stroke="#C5C5C5" stroke-dasharray="7 5"/>
<path d="M0.147687 100.088L6.14267 93.1696C6.33908 92.9431 6.65709 92.9435 6.85318 93.1708C7.04912 93.3981 7.04861 93.7663 6.85217 93.9931L1.21403 100.5L6.85237 107.007C7.04879 107.234 7.04929 107.602 6.85338 107.829C6.75508 107.943 6.62631 108 6.49753 108C6.36908 108 6.24081 107.943 6.14269 107.83L0.147687 100.912C0.0530858 100.803 0 100.654 0 100.5C0 100.346 0.0532374 100.198 0.147687 100.088Z" fill="#C5C5C5"/>
</svg>
