<svg width="17" height="16" viewBox="0 0 17 16" fill="none" xmlns="http://www.w3.org/2000/svg">
<path d="M15.8336 6.80049L8.60826 0.21676C8.29111 -0.0722639 7.81287 -0.0722324 7.49585 0.216729L0.270437 6.80052C0.0163885 7.03202 -0.0675288 7.3887 0.0565858 7.70918C0.180732 8.02966 0.482998 8.23671 0.826688 8.23671H1.98071V14.8331C1.98071 15.0947 2.19277 15.3067 2.4543 15.3067H6.41471C6.67624 15.3067 6.8883 15.0947 6.8883 14.8331V10.828H9.2159V14.8332C9.2159 15.0947 9.42796 15.3067 9.68949 15.3067H13.6497C13.9112 15.3067 14.1233 15.0947 14.1233 14.8332V8.23671H15.2775C15.6212 8.23671 15.9235 8.02962 16.0476 7.70918C16.1716 7.38867 16.0877 7.03202 15.8336 6.80049Z" fill="#8E8E92"/>
</svg>
