<?xml version="1.0" encoding="UTF-8"?>
<svg width="140px" height="137px" viewBox="0 0 140 137" version="1.1" xmlns="http://www.w3.org/2000/svg" xmlns:xlink="http://www.w3.org/1999/xlink">
    <!-- Generator: Sketch 54.1 (76490) - https://sketchapp.com -->
    <title>Group</title>
    <desc>Created with Sketch.</desc>
    <defs>
        <polygon id="path-1" points="0 0.0263048017 43.1985971 0.0263048017 43.1985971 59.874714 0 59.874714"></polygon>
    </defs>
    <g id="New" stroke="none" stroke-width="1" fill="none" fill-rule="evenodd">
        <g id="iPhone-/-Select-room" transform="translate(-118.000000, -2573.000000)">
            <g id="Group" transform="translate(118.000000, 2573.000000)">
                <g id="Group-18" transform="translate(48.000000, 0.000000)">
                    <path d="M31.233858,39.2437578 C31.288096,39.2436326 31.3417077,39.2451357 31.3941921,39.2477662 C31.3428351,39.245261 31.2903507,39.2436326 31.2372401,39.2436326 C31.2372401,39.2436326 31.2349854,39.2437578 31.233858,39.2437578" id="Fill-1" fill="#716252"></path>
                    <path d="M30.3297495,37.4913194 C30.3662004,37.4998372 30.436096,37.5157453 30.5395616,37.5371649 C30.436096,37.5157453 30.3662004,37.4998372 30.3297495,37.4913194" id="Fill-3" fill="#716252"></path>
                    <path d="M34.2015908,5.20188727 C34.2997954,5.201762 34.3993779,5.20126096 34.4923215,5.20163674 C34.4417161,5.20138622 34.39562,5.20101044 34.3433862,5.20101044 C34.2990438,5.20101044 34.2469353,5.20188727 34.2015908,5.20188727" id="Fill-5" fill="#716252"></path>
                    <path d="M18.3636576,35.5807265 C18.4072484,35.5806013 18.4503382,35.5818539 18.4924259,35.583858 C18.451215,35.5819791 18.4090021,35.5806013 18.3662881,35.5806013 L18.3636576,35.5807265 Z" id="Fill-7" fill="#716252"></path>
                    <path d="M17.6366806,34.171666 C17.6659916,34.1785553 17.7222338,34.1913319 17.8054071,34.208618 C17.7221086,34.1913319 17.6658664,34.1785553 17.6366806,34.171666" id="Fill-9" fill="#716252"></path>
                    <g id="Group-13" transform="translate(0.000000, 0.098956)">
                        <mask id="mask-2" fill="white">
                            <use xlink:href="#path-1"></use>
                        </mask>
                        <g id="Clip-12"></g>
                        <path d="M39.6653612,31.5880334 C39.6653612,13.0506639 31.2140042,1.0634405 21.2125428,1.0634405 C13.0203507,1.0634405 3.53458873,8.82561169 3.53458873,28.3129603 C3.53458873,46.6784718 11.5547975,58.8376785 22.0735866,58.8376785 C32.1624802,58.8376785 39.6653612,47.972167 39.6653612,31.5880334 M-2.50521921e-05,29.6271983 C-2.50521921e-05,12.7578038 9.546238,0.0262797495 21.6346722,0.0262797495 C36.2620209,0.0262797495 43.1985971,16.6517912 43.1985971,30.19438 C43.1985971,47.2253612 33.5839415,59.874714 21.5651524,59.874714 C9.61575783,59.874714 -2.50521921e-05,47.0610188 -2.50521921e-05,29.6271983" id="Fill-11" fill="#C69C6D" mask="url(#mask-2)"></path>
                    </g>
                    <path d="M36.8858956,32.5738497 C36.4692777,31.5877954 35.861261,30.6726388 35.1091942,29.9055407 C35.0590898,29.8392777 34.9628894,29.7373152 34.8009269,29.5900084 C34.4906555,30.1783591 34.1198831,30.6926806 33.6567933,31.1718038 C33.5867724,31.2442046 33.5157495,31.3153528 33.4437244,31.3858747 C33.3386305,31.4884635 33.292785,31.4888392 33.321595,31.6107182 C33.3526597,31.7422422 33.6056868,31.9793612 33.6862296,32.0959791 C33.9110731,32.4219081 34.1093612,32.7658747 34.2744551,33.1258747 C34.7971691,34.2653737 34.9474823,35.5368977 34.7508225,36.7718455 C34.5795908,37.8478372 34.1756242,38.9233278 33.558714,39.8259582 C32.1802171,41.8430355 29.8456033,43.2237871 27.584142,44.0041628 C24.7102797,44.9957286 21.6722004,45.0556033 18.672952,44.7745177 C18.6859791,45.100572 18.8170021,45.6082547 18.3877328,45.688547 C18.2915324,45.7067098 18.1736618,45.688547 18.076334,45.688547 L16.2075658,45.688547 L11.6722422,45.688547 C11.276167,45.688547 10.9265637,45.7331399 10.9141628,45.2237035 C10.8967516,44.5060835 10.9141628,43.7859582 10.9141628,43.0679624 C10.9141628,42.7208643 11.0171273,42.63481 11.3528267,42.5235783 C11.4143299,42.5031608 11.5171691,42.4723466 11.5627641,42.4345177 C11.7098205,42.3120125 11.6651023,42.4516785 11.6248935,42.2343507 C11.601595,42.1093403 11.5362088,42.0012401 11.5223048,41.8695908 C11.5126597,41.7787766 11.5284426,41.6988601 11.5298205,41.6109269 C11.5335783,41.3513862 11.516167,41.0897161 11.5092777,40.8304259 C11.430238,37.8196534 11.3511983,34.808881 11.2722839,31.7982338 C11.2587557,31.286167 11.2453528,30.7741002 11.2319499,30.2621587 C11.2235574,29.9408643 11.1713236,29.9175658 11.449904,29.7424509 C13.8398831,28.2399457 16.4747474,26.9893403 19.2024301,26.2452902 C21.8667307,25.5184008 24.7760418,25.4438706 27.4397161,26.2372735 C28.7010939,26.6130564 29.9945386,27.2433695 30.8211357,28.3042046 C30.9147056,28.4243299 31.001762,28.5497161 31.0781712,28.6814906 C31.4104885,28.2107599 31.6904468,27.7006973 31.8858539,27.1578163 C31.9719081,26.9185678 32.0416785,26.6734322 32.0926597,26.4241628 C32.1060626,26.3590271 32.1818455,26.1260418 32.152785,26.0660418 C32.1135783,25.9848727 31.8476493,25.8821587 31.7679833,25.8366889 C30.9242255,25.3563132 30.021595,24.9840376 29.0924092,24.7048309 C26.9416785,24.0583591 24.6651858,23.8997787 22.4306555,24.0003633 C20.0853946,24.1057077 17.8468559,24.7109687 15.762263,25.7908434 C14.7645595,26.3075449 13.8162088,26.9138079 12.9118246,27.5796952 C12.5257704,27.8639123 11.7173361,28.7060418 11.2979624,28.0263758 C11.0139958,27.566167 11.0986722,26.9101754 11.1001754,26.3859582 C11.1035574,25.2003633 11.1055616,24.0147683 11.1058121,22.829048 C11.1061879,21.3999457 11.1054363,19.9707182 11.0942881,18.5416159 C11.0863967,17.5268768 10.7892777,16.1731816 11.7869812,15.5357286 C12.4268142,15.1267516 13.1768768,15.1011983 13.9071482,15.0432025 C15.6980042,14.9010313 17.4971273,14.8347683 19.2934948,14.8367724 C21.6971273,14.8396534 24.0972526,15.0296743 26.4998831,15.0970647 C27.4273152,15.1229937 28.3552484,15.143286 29.2823048,15.1863758 C30.0673152,15.222952 30.9099457,15.2228267 31.6789228,15.3991942 C32.1217203,15.5006555 32.9458121,15.9773987 32.7243507,16.5743925 C32.5598831,17.0178163 31.547023,16.9608225 31.6229311,17.5495491 C31.6953319,18.1100919 32.4222213,18.4640793 32.8909478,18.5825762 C33.6427641,18.7723466 34.5764593,18.7395282 35.1282338,18.1244969 C35.827691,17.3451232 35.6088601,16.1146848 35.0873987,15.305499 C34.5306138,14.4416994 33.57362,13.9515532 32.6052276,13.6945177 C30.8117411,13.2184008 28.9690271,13.4597787 27.1463549,13.5587349 C23.1418873,13.7764384 19.116,13.6316367 15.1164175,13.3791106 C13.7439332,13.2923048 12.3723257,13.1890898 11.0024718,13.0672109 C10.3504885,13.0093403 9.66117745,12.8840793 9.00481002,12.9116367 C8.54309812,12.9311775 8.24973695,13.097524 8.2428476,13.5889228 C8.23232568,14.3396117 8.54297286,15.0961879 8.69491441,15.8214489 C8.97412109,17.1532234 8.93002923,18.5713027 8.90422547,19.9239958 C8.87641754,21.3815324 8.796,22.8383173 8.68890188,24.292096 C8.65420459,24.7616994 8.59357829,25.2328058 8.58718998,25.7035365 C8.55687683,27.9497161 8.56764927,30.1972735 8.55875574,32.4435783 C8.54810856,35.1723883 8.53908977,37.9011983 8.53445511,40.6300084 C8.53270146,41.6064175 8.4748309,42.5877119 8.2736618,43.5453319 C8.16481002,44.0640376 7.69708559,44.9379833 8.0942881,45.3955616 C8.43286848,45.7857495 9.09324426,46.0212401 9.56898539,46.1825762 C10.1922839,46.3938914 10.8432651,46.5197787 11.4937453,46.6129729 C13.2835992,46.869382 15.1058956,46.8970647 16.9106555,46.9272526 C19.3221795,46.9673361 21.753119,47.0692985 24.1636409,46.9915115 C27.0205929,46.8991942 30.1580042,46.4130564 32.5706555,44.760739 C32.8800501,44.5489228 33.1348309,44.2943925 33.419048,44.0576493 C33.9606764,43.6062088 34.5127015,43.2125136 34.9993403,42.6892985 C37.5034322,39.9973152 38.3322839,35.9967307 36.8858956,32.5738497" id="Fill-14" fill="#C69C6D"></path>
                    <path d="M29.8409436,17.9245553 C27.3319666,16.9354948 24.547666,16.512739 21.8585637,16.4893152 C20.8969353,16.481048 19.9374363,16.4547432 18.9755574,16.4924468 C17.5700042,16.5475616 16.1970188,16.7581253 14.8034906,16.926977 C13.9155157,17.0345762 13.0811524,17.0757871 12.2079582,16.9136994 C11.9699624,16.869357 11.5681253,16.872739 11.642405,17.2086889 C11.6857453,17.4044718 11.8798998,17.5611733 11.9877495,17.7241378 C12.0915908,17.8814656 12.171382,18.0538246 12.241904,18.2281879 C12.7330522,19.4443466 12.8615699,20.8304843 12.9949729,22.1233027 C13.1590647,23.7157453 13.2428643,25.3159541 13.3163925,26.914785 C13.8189395,26.5658079 14.3345136,26.2357453 14.8647432,25.9304843 C15.0661628,25.8144927 15.345119,25.7229269 15.5171023,25.5714864 C15.5520501,25.5406722 15.6358497,25.5350355 15.659524,25.4965804 C15.7289186,25.384096 15.6598998,24.9836367 15.6606514,24.8463507 C15.6666639,23.714618 15.6928434,22.5828852 15.7348058,21.451904 C15.7628643,20.6934489 15.7979374,19.9352443 15.8417787,19.1775407 C15.848167,19.0670605 15.814096,18.8021336 15.8710898,18.700547 C15.9701712,18.5238038 16.7113403,18.4926138 16.9378121,18.4567891 C19.1341378,18.1101921 21.37919,18.0258914 23.5906722,18.2755365 C24.8831148,18.4214656 26.3333862,18.6082296 27.5187307,19.1797954 C28.6750146,19.7373319 29.8160167,20.4448058 30.7572276,21.3206305 C32.113929,22.5828852 32.7500042,24.5379582 32.4199415,26.366142 C32.0499207,28.4159123 30.5377704,30.0391691 28.9275407,31.2500668 C27.2281253,32.5279791 25.2290856,33.2567474 23.1322171,33.5531148 C22.3229061,33.6674781 21.5044509,33.7203382 20.685119,33.7239708 C20.7332192,33.7233445 20.7814447,33.7227182 20.8295449,33.7222171 C20.7536367,33.7230939 20.6772276,33.7243466 20.6023215,33.7243466 C19.5793152,33.7245971 18.5554322,33.6465595 17.5472067,33.4961211 C17.3082088,33.4604217 17.0695866,33.420714 16.8322171,33.3753695 C16.7234906,33.3545762 16.419357,33.3456827 16.3458288,33.2726555 C16.3508392,33.2739081 16.3587307,33.2757871 16.371382,33.2786681 C16.3587307,33.2757871 16.350714,33.2739081 16.3458288,33.2726555 C16.2333445,33.1611733 16.2084175,32.7618413 16.1750981,32.6031357 C16.1188559,32.3338246 16.0716326,32.0626347 16.0299207,31.7908184 C15.8296284,30.4853486 15.7487098,29.1614656 15.7018622,27.8427182 C15.3372276,28.0044301 14.9753486,28.1725303 14.6166013,28.3468935 C14.2741378,28.5133653 13.8371023,28.6653069 13.534096,28.8977912 C13.419858,28.9854739 13.4368935,28.9392526 13.4038246,29.0820501 C13.3728852,29.2157035 13.4132192,29.4058497 13.4168518,29.5443883 C13.425119,29.8666848 13.4320084,30.1889812 13.4376451,30.5112777 C13.4619457,31.8931566 13.4648267,33.2754113 13.4434071,34.6571649 C13.4233653,35.95562 13.3856618,37.2550772 13.2932192,38.5505261 C13.2148058,39.6488142 13.1626973,40.8476868 12.5886263,41.8182088 C12.3914656,42.1515282 12.1311733,42.4488977 11.7976033,42.6503173 C11.7184384,42.6979165 11.2636159,42.8078956 11.2220292,42.8662672 C11.1967265,42.9019666 11.2220292,43.0530313 11.2220292,43.092739 L11.2220292,44.2462672 C11.2220292,44.535119 11.1280835,45.0071023 11.2220292,45.2807975 C11.2722589,45.4268518 11.1918413,45.3451816 11.3530522,45.3806305 C11.542572,45.4223424 11.7903382,45.3806305 11.9834906,45.3806305 L14.2333027,45.3806305 L18.3889603,45.3806305 C18.37681,45.0738664 18.3645344,44.7671023 18.3521336,44.4602129 C18.3404843,44.1678539 18.384952,44.1298998 18.1160167,44.0035115 C17.8338038,43.8709854 17.5687516,43.6971232 17.3469144,43.4771649 C16.7844927,42.9196284 16.5719248,42.1392526 16.6262881,41.3655157 C16.659858,40.8876451 16.6379374,40.4056409 16.6264134,39.926142 C16.6004843,38.8506514 16.5743048,37.7610063 16.4176033,36.6951608 C16.3414447,36.1773319 16.1694614,35.6310689 16.8036576,35.412238 C17.2470814,35.2592944 17.7660376,35.3318205 18.2174781,35.4025929 C19.7143466,35.6373319 21.2962672,35.6295658 22.8034071,35.5049311 C25.7842422,35.2582923 28.7261211,34.3909854 31.2414864,32.7451816 C32.4776868,31.9362463 33.7073737,30.934785 34.433261,29.6248058 C35.3192317,28.0257244 35.8619875,26.1362881 35.6733445,24.2989603 C35.3427808,21.0817578 32.651048,19.0324885 29.8409436,17.9245553" id="Fill-16" fill="#C69C6D"></path>
                </g>
                <path d="M15.316,92.504 C14.5799963,92.504 13.9440027,92.408001 13.408,92.216 C12.8719973,92.023999 12.404002,91.6880024 12.004,91.208 C11.2679963,90.2959954 10.6600024,89.5160032 10.18,88.868 C9.6999976,88.2199968 9.09200368,87.296006 8.356,86.096 C8.1159988,85.695998 7.77200224,85.3840011 7.324,85.16 C6.79599736,84.9039987 6.16400368,84.7360004 5.428,84.656 L5.38,84.656 C5.17199896,84.656 5.068,84.8159984 5.068,85.136 L5.068,89.36 C5.068,90.5440059 5.604,91.232 6.676,91.424 C6.94800136,91.4720002 7.14799936,91.5279997 7.276,91.592 C7.40400064,91.6560003 7.468,91.7439994 7.468,91.856 C7.468,92.0320009 7.23600232,92.12 6.772,92.12 C6.25999744,92.12 5.79600208,92.0880003 5.38,92.024 C5.09199856,91.9759998 4.77200176,91.952 4.42,91.952 C4.13199856,91.952 3.84000148,91.9639999 3.544,91.988 C3.24799852,92.0120001 3.03600064,92.024 2.908,92.024 C2.2679968,92.0880003 1.73200216,92.12 1.3,92.12 C0.83599768,92.12 0.604,92.0320009 0.604,91.856 C0.604,91.7439994 0.66799936,91.6560003 0.796,91.592 C0.92400064,91.5279997 1.12399864,91.4720002 1.396,91.424 C2.02000312,91.3119994 2.46799864,91.1240013 2.74,90.86 C3.01200136,90.5959987 3.148,90.1760029 3.148,89.6 L3.148,79.376 C3.148,78.7039966 3.12000028,78.2280014 3.064,77.948 C3.00799972,77.6679986 2.880001,77.4640006 2.68,77.336 C2.479999,77.2079994 2.14800232,77.1200002 1.684,77.072 C1.42799872,77.0559999 1.23200068,77.0000005 1.096,76.904 C0.95999932,76.8079995 0.892,76.7040006 0.892,76.592 C0.892,76.4159991 1.12399768,76.328 1.588,76.328 C2.27600344,76.328 2.72399896,76.3359999 2.932,76.352 L3.94,76.352 C4.1800012,76.352 4.5399976,76.3360002 5.02,76.304 C5.88400432,76.2559998 6.44399872,76.232 6.7,76.232 C8.4600088,76.232 9.7999954,76.5639967 10.72,77.228 C11.6400046,77.8920033 12.1,78.8719935 12.1,80.168 C12.1,81.8960086 11.1560094,83.2399952 9.268,84.2 C9.21999976,84.2160001 9.196,84.2559997 9.196,84.32 C9.196,84.3680002 9.21999976,84.4319996 9.268,84.512 C10.276005,86.0320076 11.0879969,87.1999959 11.704,88.016 C12.3200031,88.8320041 13.131995,89.6959954 14.14,90.608 C14.5240019,90.9440017 14.915998,91.1599995 15.316,91.256 C15.716002,91.3520005 16.2439967,91.4 16.9,91.4 C17.1400012,91.4 17.26,91.4879991 17.26,91.664 C17.26,91.9680015 17.0480021,92.1839994 16.624,92.312 C16.1999979,92.4400006 15.7640022,92.504 15.316,92.504 Z M6.34,84.104 C7.04400352,84.104 7.67199724,83.9400016 8.224,83.612 C8.77600276,83.2839984 9.19999852,82.8480027 9.496,82.304 C9.79200148,81.7599973 9.94,81.1760031 9.94,80.552 C9.94,79.4159943 9.7000024,78.5320032 9.22,77.9 C8.7399976,77.2679968 7.80400696,76.952 6.412,76.952 C5.91599752,76.952 5.58400084,77.1079984 5.416,77.42 C5.24799916,77.7320016 5.14800016,78.3199957 5.116,79.184 C5.08399984,80.2720054 5.068,81.6319918 5.068,83.264 C5.068,83.6320018 5.16399904,83.8639995 5.356,83.96 C5.54800096,84.0560005 5.87599768,84.104 6.34,84.104 Z M26.068,92.336 C23.9719895,92.336 22.3720055,91.7920054 21.268,90.704 C20.1639945,89.6159946 19.612,88.1280094 19.612,86.24 L19.612,78.872 C19.612,78.3439974 19.508001,77.9400014 19.3,77.66 C19.091999,77.3799986 18.8280016,77.2000004 18.508,77.12 C17.9799974,76.9759993 17.716,76.800001 17.716,76.592 C17.716,76.4159991 17.9479977,76.328 18.412,76.328 L19.444,76.352 C19.9560026,76.3840002 20.3799983,76.4 20.716,76.4 L21.868,76.376 C22.060001,76.3599999 22.3159984,76.352 22.636,76.352 C23.1000023,76.352 23.332,76.4399991 23.332,76.616 C23.332,76.7120005 23.2760006,76.7919997 23.164,76.856 C23.0519994,76.9200003 22.8440015,76.9999995 22.54,77.096 C22.3159989,77.1600003 22.0920011,77.3559984 21.868,77.684 C21.6439989,78.0120016 21.532,78.3919978 21.532,78.824 L21.532,85.568 C21.532,87.4240093 21.9879954,88.8159954 22.9,89.744 C23.8120046,90.6720046 25.0359923,91.136 26.572,91.136 C28.172008,91.136 29.367996,90.5800056 30.16,89.468 C30.952004,88.3559944 31.348,86.8320097 31.348,84.896 C31.348,83.9199951 31.3160003,82.2000123 31.252,79.736 C31.2359999,79.0639966 31.1480008,78.4840024 30.988,77.996 C30.8279992,77.5079976 30.5880016,77.2160005 30.268,77.12 C29.7399974,76.9759993 29.476,76.8160009 29.476,76.64 C29.476,76.4639991 29.7079977,76.376 30.172,76.376 L31.972,76.4 C32.2760015,76.4 32.6519978,76.3840002 33.1,76.352 L33.916,76.328 C34.3800023,76.328 34.612,76.4159991 34.612,76.592 C34.612,76.800001 34.3480026,76.9599994 33.82,77.072 C33.0679962,77.2160007 32.6680002,77.8159947 32.62,78.872 C32.5559997,79.8480049 32.5120001,80.8439949 32.488,81.86 C32.4639999,82.8760051 32.4440001,83.5599982 32.428,83.912 C32.428,84.3760023 32.4120002,85.0719954 32.38,86 C32.3479998,87.2160061 32.0520028,88.3079952 31.492,89.276 C30.9319972,90.2440048 30.1800047,90.9959973 29.236,91.532 C28.2919953,92.0680027 27.2360058,92.336 26.068,92.336 Z M39.748,92.384 C38.4039933,92.384 37.2760046,92.0000038 36.364,91.232 C36.1879991,91.0559991 36.0840002,90.8960007 36.052,90.752 C35.9879997,90.4639986 35.9160004,89.8000052 35.836,88.76 L35.812,88.232 C35.812,88.1199994 35.8559996,88.0360003 35.944,87.98 C36.0320004,87.9239997 36.1479993,87.896 36.292,87.896 C36.500001,87.896 36.6279998,87.9839991 36.676,88.16 C36.9640014,89.3280058 37.4159969,90.1919972 38.032,90.752 C38.6480031,91.3120028 39.3319962,91.592 40.084,91.592 C40.9160042,91.592 41.6039973,91.3240027 42.148,90.788 C42.6920027,90.2519973 42.964,89.5440044 42.964,88.664 C42.964,88.0399969 42.864001,87.524002 42.664,87.116 C42.463999,86.707998 42.1880018,86.3640014 41.836,86.084 C41.4839982,85.8039986 40.9560035,85.4480022 40.252,85.016 L39.772,84.728 C38.9879961,84.2479976 38.3720022,83.8320018 37.924,83.48 C37.4759978,83.1279982 37.0920016,82.6960026 36.772,82.184 C36.4519984,81.6719974 36.292,81.0880033 36.292,80.432 C36.292,79.1519936 36.7239957,78.1040041 37.588,77.288 C38.4520043,76.4719959 39.6919919,76.064 41.308,76.064 C42.1240041,76.064 42.9639957,76.2399982 43.828,76.592 C43.9400006,76.6400002 44.0439995,76.7199994 44.14,76.832 C44.2360005,76.9440006 44.2999998,77.0639994 44.332,77.192 C44.4920008,77.7520028 44.6119996,78.2039983 44.692,78.548 C44.7720004,78.8920017 44.812,79.2319983 44.812,79.568 C44.812,79.7440009 44.6920012,79.832 44.452,79.832 C44.3079993,79.832 44.1680007,79.8000003 44.032,79.736 C43.8959993,79.6719997 43.8120002,79.5920005 43.78,79.496 C43.4279982,78.6159956 43.0240023,77.9600022 42.568,77.528 C42.1119977,77.0959978 41.5560033,76.88 40.9,76.88 C40.099996,76.88 39.4400026,77.0999978 38.92,77.54 C38.3999974,77.9800022 38.14,78.6719953 38.14,79.616 C38.14,80.0640022 38.2839986,80.4799981 38.572,80.864 C38.8600014,81.2480019 39.2239978,81.5999984 39.664,81.92 C40.1040022,82.2400016 40.7159961,82.6399976 41.5,83.12 C42.2520038,83.5840023 42.8599977,83.9999982 43.324,84.368 C43.7880023,84.7360018 44.1799984,85.1919973 44.5,85.736 C44.8200016,86.2800027 44.98,86.9279962 44.98,87.68 C44.98,89.1040071 44.5000048,90.2439957 43.54,91.1 C42.5799952,91.9560043 41.3160078,92.384 39.748,92.384 Z M50.908,92.384 C49.5639933,92.384 48.4360046,92.0000038 47.524,91.232 C47.3479991,91.0559991 47.2440002,90.8960007 47.212,90.752 C47.1479997,90.4639986 47.0760004,89.8000052 46.996,88.76 L46.972,88.232 C46.972,88.1199994 47.0159996,88.0360003 47.104,87.98 C47.1920004,87.9239997 47.3079993,87.896 47.452,87.896 C47.660001,87.896 47.7879998,87.9839991 47.836,88.16 C48.1240014,89.3280058 48.5759969,90.1919972 49.192,90.752 C49.8080031,91.3120028 50.4919962,91.592 51.244,91.592 C52.0760042,91.592 52.7639973,91.3240027 53.308,90.788 C53.8520027,90.2519973 54.124,89.5440044 54.124,88.664 C54.124,88.0399969 54.024001,87.524002 53.824,87.116 C53.623999,86.707998 53.3480018,86.3640014 52.996,86.084 C52.6439982,85.8039986 52.1160035,85.4480022 51.412,85.016 L50.932,84.728 C50.1479961,84.2479976 49.5320022,83.8320018 49.084,83.48 C48.6359978,83.1279982 48.2520016,82.6960026 47.932,82.184 C47.6119984,81.6719974 47.452,81.0880033 47.452,80.432 C47.452,79.1519936 47.8839957,78.1040041 48.748,77.288 C49.6120043,76.4719959 50.8519919,76.064 52.468,76.064 C53.2840041,76.064 54.1239957,76.2399982 54.988,76.592 C55.1000006,76.6400002 55.2039995,76.7199994 55.3,76.832 C55.3960005,76.9440006 55.4599998,77.0639994 55.492,77.192 C55.6520008,77.7520028 55.7719996,78.2039983 55.852,78.548 C55.9320004,78.8920017 55.972,79.2319983 55.972,79.568 C55.972,79.7440009 55.8520012,79.832 55.612,79.832 C55.4679993,79.832 55.3280007,79.8000003 55.192,79.736 C55.0559993,79.6719997 54.9720002,79.5920005 54.94,79.496 C54.5879982,78.6159956 54.1840023,77.9600022 53.728,77.528 C53.2719977,77.0959978 52.7160033,76.88 52.06,76.88 C51.259996,76.88 50.6000026,77.0999978 50.08,77.54 C49.5599974,77.9800022 49.3,78.6719953 49.3,79.616 C49.3,80.0640022 49.4439986,80.4799981 49.732,80.864 C50.0200014,81.2480019 50.3839978,81.5999984 50.824,81.92 C51.2640022,82.2400016 51.8759961,82.6399976 52.66,83.12 C53.4120038,83.5840023 54.0199977,83.9999982 54.484,84.368 C54.9480023,84.7360018 55.3399984,85.1919973 55.66,85.736 C55.9800016,86.2800027 56.14,86.9279962 56.14,87.68 C56.14,89.1040071 55.6600048,90.2439957 54.7,91.1 C53.7399952,91.9560043 52.4760078,92.384 50.908,92.384 Z M66.22,92.336 C64.811993,92.336 63.4960061,92.0040033 62.272,91.34 C61.0479939,90.6759967 60.0720036,89.744006 59.344,88.544 C58.6159964,87.343994 58.252,85.9760077 58.252,84.44 C58.252,82.9679926 58.5719968,81.5920064 59.212,80.312 C59.8520032,79.0319936 60.7879938,78.0040039 62.02,77.228 C63.2520062,76.4519961 64.7239914,76.064 66.436,76.064 C67.844007,76.064 69.1599939,76.3959967 70.384,77.06 C71.6080061,77.7240033 72.5839964,78.655994 73.312,79.856 C74.0400036,81.056006 74.404,82.4239923 74.404,83.96 C74.404,85.4320074 74.0840032,86.8079936 73.444,88.088 C72.8039968,89.3680064 71.8680062,90.3959961 70.636,91.172 C69.4039938,91.9480039 67.9320086,92.336 66.22,92.336 Z M66.58,91.376 C68.372009,91.376 69.7399953,90.8200056 70.684,89.708 C71.6280047,88.5959944 72.1,87.0720097 72.1,85.136 C72.1,83.6159924 71.8680023,82.2480061 71.404,81.032 C70.9399977,79.8159939 70.2560045,78.8520036 69.352,78.14 C68.4479955,77.4279964 67.3480065,77.072 66.052,77.072 C64.2759911,77.072 62.9160047,77.6199945 61.972,78.716 C61.0279953,79.8120055 60.556,81.3199904 60.556,83.24 C60.556,84.7600076 60.7839977,86.1359938 61.24,87.368 C61.6960023,88.6000062 62.3759955,89.5759964 63.28,90.296 C64.1840045,91.0160036 65.2839935,91.376 66.58,91.376 Z M76.324,87.92 C76.2279995,87.92 76.18,87.8720005 76.18,87.776 C76.18,87.4879986 76.2159996,87.2040014 76.288,86.924 C76.3600004,86.6439986 76.4519994,86.4960001 76.564,86.48 C78.6120102,86.1919986 80.1479949,85.9920006 81.172,85.88 C81.3000006,85.88 81.364,85.9279995 81.364,86.024 C81.364,86.3760018 81.3240004,86.6759988 81.244,86.924 C81.1639996,87.1720012 81.0360009,87.3039999 80.86,87.32 L80.236,87.416 C78.5879918,87.6720013 77.2840048,87.8399996 76.324,87.92 Z M83.212,92.12 C82.7479977,92.12 82.516,92.0320009 82.516,91.856 C82.516,91.7439994 82.5799994,91.6560003 82.708,91.592 C82.8360006,91.5279997 83.0359986,91.4720002 83.308,91.424 C83.9480032,91.3119994 84.4199985,91.1200014 84.724,90.848 C85.0280015,90.5759986 85.18,90.1680027 85.18,89.624 L85.18,78.824 C85.18,78.2479971 85.0560012,77.8240014 84.808,77.552 C84.5599988,77.2799986 84.1480029,77.1200002 83.572,77.072 C83.3159987,77.0559999 83.1200007,77.0000005 82.984,76.904 C82.8479993,76.8079995 82.78,76.7040006 82.78,76.592 C82.78,76.4159991 83.0119977,76.328 83.476,76.328 C84.1960036,76.328 84.6759988,76.3359999 84.916,76.352 L85.972,76.352 C86.2120012,76.352 86.5559978,76.3360002 87.004,76.304 C87.8200041,76.2559998 88.3639986,76.232 88.636,76.232 C90.5560096,76.232 91.9639955,76.5079972 92.86,77.06 C93.7560045,77.6120028 94.204,78.5279936 94.204,79.808 C94.204,80.3040025 94.1200008,80.7599979 93.952,81.176 C93.7839992,81.5920021 93.596001,81.903999 93.388,82.112 C93.1319987,82.3680013 92.8960011,82.5639993 92.68,82.7 C92.4639989,82.8360007 92.1640019,82.9839992 91.78,83.144 C91.7159997,83.1760002 91.684,83.2199997 91.684,83.276 C91.684,83.3320003 91.7159997,83.3679999 91.78,83.384 C92.4520034,83.6080011 93.0159977,83.8479987 93.472,84.104 C93.9280023,84.3600013 94.3279983,84.7479974 94.672,85.268 C95.0160017,85.7880026 95.188,86.4799957 95.188,87.344 C95.188,88.1600041 95.0600013,88.8279974 94.804,89.348 C94.5479987,89.8680026 94.2480017,90.2599987 93.904,90.524 C93.5599983,90.7880013 93.1560023,91.0399988 92.692,91.28 C91.6039946,91.8240027 90.2440082,92.096 88.612,92.096 L87.892,92.072 C87.4599978,92.0239998 86.940003,92 86.332,92 C85.931998,92 85.4440029,92.0159998 84.868,92.048 C84.4199978,92.0960002 83.8680033,92.12 83.212,92.12 Z M88.156,83.096 C89.2600055,83.096 90.2279958,82.8640023 91.06,82.4 C91.3160013,82.2559993 91.5599988,81.9920019 91.792,81.608 C92.0240012,81.2239981 92.14,80.728003 92.14,80.12 C92.14,79.2559957 91.8880025,78.5120031 91.384,77.888 C90.8799975,77.2639969 89.9640066,76.952 88.636,76.952 C88.0119969,76.952 87.5920011,77.0359992 87.376,77.204 C87.1599989,77.3720008 87.052,77.6479981 87.052,78.032 L87.052,82.208 C87.052,82.800003 87.4199963,83.096 88.156,83.096 Z M88.948,91.112 C89.6520035,91.112 90.307997,90.9520016 90.916,90.632 C91.524003,90.3119984 92.0119982,89.8720028 92.38,89.312 C92.7480018,88.7519972 92.932,88.1360034 92.932,87.464 C92.932,86.6479959 92.7520018,85.9920025 92.392,85.496 C92.0319982,84.9999975 91.6200023,84.6240013 91.156,84.368 C90.4359964,83.967998 89.5240055,83.768 88.42,83.768 C87.9559977,83.768 87.6120011,83.8599991 87.388,84.044 C87.1639989,84.2280009 87.052,84.423999 87.052,84.632 L87.052,89.408 C87.052,90.0480032 87.2039985,90.4919988 87.508,90.74 C87.8120015,90.9880012 88.2919967,91.112 88.948,91.112 Z M96.796,92.12 C96.587999,92.12 96.4200006,92.0920003 96.292,92.036 C96.1639994,91.9799997 96.1,91.9040005 96.1,91.808 C96.1,91.599999 96.3639974,91.4160008 96.892,91.256 C97.3560023,91.1119993 97.7559983,90.9080013 98.092,90.644 C98.4280017,90.3799987 98.7159988,89.9680028 98.956,89.408 C99.8040042,87.4559902 100.543997,85.684008 101.176,84.092 C101.808003,82.499992 102.563996,80.5120119 103.444,78.128 C103.620001,77.6319975 103.732,77.1680022 103.78,76.736 C103.828,76.7199999 103.943999,76.6840003 104.128,76.628 C104.312001,76.5719997 104.483999,76.4880006 104.644,76.376 C104.772001,76.2799995 104.872,76.136001 104.944,75.944 C105.016,75.751999 105.068,75.6240003 105.1,75.56 C105.116,75.5439999 105.136,75.54 105.16,75.548 C105.184,75.556 105.204,75.5679999 105.22,75.584 C105.252,75.6640004 105.28,75.7519995 105.304,75.848 C105.328,75.9440005 105.356,76.0319996 105.388,76.112 C106.572006,79.8400186 107.995992,84.1119759 109.66,88.928 C109.964002,89.8080044 110.299998,90.4039984 110.668,90.716 C111.036002,91.0280016 111.507997,91.2319995 112.084,91.328 C112.340001,91.3760002 112.535999,91.4519995 112.672,91.556 C112.808001,91.6600005 112.876,91.7679994 112.876,91.88 C112.876,92.0400008 112.644002,92.12 112.18,92.12 L110.884,92.072 C109.987996,92.0079997 109.308002,91.976 108.844,91.976 L106.324,92 C105.859998,92 105.628,91.904001 105.628,91.712 C105.628,91.6159995 105.703999,91.5240004 105.856,91.436 C106.008001,91.3479996 106.195999,91.2880002 106.42,91.256 C107.396005,91.0959992 107.884,90.7360028 107.884,90.176 C107.884,89.6639974 107.572003,88.3680104 106.948,86.288 C106.916,86.1759994 106.856,86.1040002 106.768,86.072 C106.68,86.0399998 106.524001,86.024 106.3,86.024 L101.764,86.024 C101.587999,86.024 101.452,86.1679986 101.356,86.456 C101.179999,86.9680026 100.972001,87.6359959 100.732,88.46 C100.491999,89.2840041 100.372,89.7679993 100.372,89.912 C100.372,90.2480017 100.503999,90.5359988 100.768,90.776 C101.032001,91.0160012 101.363998,91.1839995 101.764,91.28 C102.052001,91.3600004 102.255999,91.4319997 102.376,91.496 C102.496001,91.5600003 102.556,91.6479994 102.556,91.76 C102.556,91.9360009 102.324002,92.024 101.86,92.024 C101.571999,92.024 101.332001,92.0160001 101.14,92 L99.676,91.976 C99.4039986,91.976 99.1040016,91.9879999 98.776,92.012 C98.4479984,92.0360001 98.2040008,92.048 98.044,92.048 C97.5959978,92.0960002 97.1800019,92.12 96.796,92.12 Z M106.132,85.232 C106.228,85.232 106.308,85.2240001 106.372,85.208 C106.436,85.1919999 106.468,85.1600002 106.468,85.112 L106.42,84.872 L104.548,79.016 C104.452,78.7279986 104.38,78.584 104.332,78.584 C104.3,78.584 104.236,78.7199986 104.14,78.992 L101.956,84.872 L101.908,85.064 C101.908,85.1440004 101.944,85.1919999 102.016,85.208 C102.088,85.2240001 102.219999,85.232 102.412,85.232 L106.132,85.232 Z M114.076,92.12 C113.867999,92.12 113.704001,92.0920003 113.584,92.036 C113.463999,91.9799997 113.404,91.9120004 113.404,91.832 C113.404,91.639999 113.579998,91.5040004 113.932,91.424 C114.588003,91.2959994 115.075998,91.1040013 115.396,90.848 C115.716002,90.5919987 115.876,90.2080026 115.876,89.696 L115.876,78.56 C115.876,78.1759981 115.836,77.8920009 115.756,77.708 C115.676,77.5239991 115.544001,77.3920004 115.36,77.312 C115.175999,77.2319996 114.860002,77.1520004 114.412,77.072 C113.883997,76.9759995 113.62,76.8160011 113.62,76.592 C113.62,76.4159991 113.851998,76.328 114.316,76.328 C114.796002,76.328 115.291997,76.3439998 115.804,76.376 L117.004,76.4 L118.444,76.376 C119.052003,76.3439998 119.579998,76.328 120.028,76.328 C120.492002,76.328 120.724,76.4159991 120.724,76.592 C120.724,76.8160011 120.460003,76.9759995 119.932,77.072 C119.179996,77.2160007 118.636002,77.3679992 118.3,77.528 C117.963998,77.6880008 117.796,77.9759979 117.796,78.392 L117.796,89.696 C117.796,90.2240026 117.915999,90.5999989 118.156,90.824 C118.396001,91.0480011 118.891996,91.16 119.644,91.16 L122.62,91.16 C123.020002,91.16 123.387998,91.0960006 123.724,90.968 C124.060002,90.8399994 124.315999,90.6960008 124.492,90.536 C124.812002,90.2639986 125.047999,90.0200011 125.2,89.804 C125.352001,89.5879989 125.531999,89.2640022 125.74,88.832 C125.804,88.6719992 125.884,88.5120008 125.98,88.352 C126.076,88.1919992 126.172,88.112 126.268,88.112 C126.364,88.112 126.436,88.1559996 126.484,88.244 C126.532,88.3320004 126.556,88.4319994 126.556,88.544 L126.532,88.664 C126.323999,89.4320038 126.176,90.019998 126.088,90.428 C126,90.836002 125.932,91.2639978 125.884,91.712 C125.852,91.9840014 125.740001,92.12 125.548,92.12 C123.835991,92.12 122.260007,92.0960002 120.82,92.048 C119.187992,92.0159998 118.020004,92 117.316,92 C116.819998,92 116.212004,92.0159998 115.492,92.048 C114.771996,92.0800002 114.300001,92.1039999 114.076,92.12 Z M129.028,92.12 C128.563998,92.12 128.332,92.0320009 128.332,91.856 C128.332,91.7439994 128.395999,91.6560003 128.524,91.592 C128.652001,91.5279997 128.851999,91.4720002 129.124,91.424 C129.748003,91.3119994 130.215998,91.1120014 130.528,90.824 C130.840002,90.5359986 130.996,90.1120028 130.996,89.552 L130.996,80.24 C130.996,79.1679946 130.96,78.4440019 130.888,78.068 C130.816,77.6919981 130.684001,77.4880002 130.492,77.456 C130.283999,77.4079998 130.040001,77.38 129.76,77.372 C129.479999,77.364 129.156002,77.36 128.788,77.36 L127.66,77.36 C127.243998,77.36 126.852002,77.4399992 126.484,77.6 C126.115998,77.7600008 125.852001,77.9919985 125.692,78.296 C125.596,78.488001 125.448001,78.687999 125.248,78.896 C125.047999,79.104001 124.868001,79.208 124.708,79.208 C124.595999,79.208 124.54,79.104001 124.54,78.896 C124.54,78.7359992 124.58,78.5760008 124.66,78.416 C124.884001,77.9839978 125.044,77.5880018 125.14,77.228 C125.236,76.8679982 125.324,76.4240026 125.404,75.896 C125.452,75.5279982 125.587999,75.344 125.812,75.344 C125.86,75.344 125.951999,75.4319991 126.088,75.608 C126.224001,75.7840009 126.332,75.9519992 126.412,76.112 C126.508,76.2720008 126.719998,76.3919996 127.048,76.472 C127.376002,76.5520004 127.723998,76.592 128.092,76.592 L136.54,76.592 C137.532005,76.592 138.291997,76.4720012 138.82,76.232 C138.916,76.1839998 139.055999,76.0920007 139.24,75.956 C139.424001,75.8199993 139.595999,75.752 139.756,75.752 C139.804,75.752 139.844,75.8119994 139.876,75.932 C139.908,76.0520006 139.924,76.1759994 139.924,76.304 C139.924,76.3680003 139.892,76.5919981 139.828,76.976 L139.684,77.696 C139.62,77.888001 139.588,78.1199986 139.588,78.392 L139.588,78.68 C139.588,78.8400008 139.552,79.0079991 139.48,79.184 C139.408,79.3600009 139.316001,79.448 139.204,79.448 C139.091999,79.448 139.004,79.3720008 138.94,79.22 C138.876,79.0679992 138.812,78.8160018 138.748,78.464 C138.684,78.1119982 138.484002,77.840001 138.148,77.648 C137.811998,77.455999 137.276004,77.36 136.54,77.36 L134.116,77.36 C133.715998,77.36 133.440001,77.4079995 133.288,77.504 C133.135999,77.6000005 133.036,77.8279982 132.988,78.188 C132.94,78.5480018 132.916,79.1919954 132.916,80.12 L132.916,89.552 C132.916,90.1120028 133.075998,90.5359986 133.396,90.824 C133.716002,91.1120014 134.187997,91.3119994 134.812,91.424 C135.084001,91.4720002 135.283999,91.5279997 135.412,91.592 C135.540001,91.6560003 135.604,91.7439994 135.604,91.856 C135.604,92.0320009 135.372002,92.12 134.908,92.12 C134.315997,92.12 133.804002,92.0960002 133.372,92.048 C132.859997,92.0159998 132.436002,92 132.1,92 C131.699998,92 131.212003,92.0159998 130.636,92.048 C130.155998,92.0960002 129.620003,92.12 129.028,92.12 Z" id="RUSSO-BALT" fill="#C69C6D" fill-rule="nonzero"></path>
                <path d="M15.822,111.06 C15.7179995,111.06 15.6340003,111.046 15.57,111.018 C15.5059997,110.99 15.474,110.952 15.474,110.904 C15.474,110.856 15.5019997,110.818 15.558,110.79 C15.6140003,110.762 15.7139993,110.736 15.858,110.712 C16.1540015,110.656 16.3499995,110.566001 16.446,110.442 C16.5420005,110.317999 16.59,110.108001 16.59,109.812 L16.59,104.388 C16.59,104.179999 16.5780001,104.026 16.554,103.926 C16.5299999,103.825999 16.4740004,103.744 16.386,103.68 C16.2979996,103.616 16.154001,103.568 15.954,103.536 C15.8179993,103.512 15.7180003,103.484 15.654,103.452 C15.5899997,103.42 15.558,103.376 15.558,103.32 C15.558,103.215999 15.6739988,103.164 15.906,103.164 C16.1460012,103.164 16.3859988,103.172 16.626,103.188 L17.142,103.2 L17.682,103.188 C17.9380013,103.172 18.1819988,103.164 18.414,103.164 C18.6460012,103.164 18.762,103.215999 18.762,103.32 C18.762,103.376 18.7300003,103.42 18.666,103.452 C18.6019997,103.484 18.5020007,103.512 18.366,103.536 C18.0699985,103.592 17.8600006,103.687999 17.736,103.824 C17.6119994,103.960001 17.55,104.147999 17.55,104.388 L17.55,106.752 C17.55,106.824 17.6059994,106.86 17.718,106.86 L22.17,106.86 C22.2260003,106.86 22.254,106.812 22.254,106.716 L22.254,104.376 C22.254,104.143999 22.1940006,103.958001 22.074,103.818 C21.9539994,103.677999 21.7500014,103.584 21.462,103.536 C21.3259993,103.512 21.2260003,103.484 21.162,103.452 C21.0979997,103.42 21.066,103.376 21.066,103.32 C21.066,103.272 21.0979997,103.234 21.162,103.206 C21.2260003,103.178 21.3099995,103.164 21.414,103.164 C21.6380011,103.164 21.8939986,103.172 22.182,103.188 L22.806,103.2 L23.226,103.188 C23.434001,103.172 23.6579988,103.164 23.898,103.164 C24.1300012,103.164 24.246,103.215999 24.246,103.32 C24.246,103.376 24.2140003,103.42 24.15,103.452 C24.0859997,103.484 23.9860007,103.512 23.85,103.536 C23.5779986,103.584 23.4040004,103.669999 23.328,103.794 C23.2519996,103.918001 23.214,104.111999 23.214,104.376 L23.214,109.8 C23.214,110.112002 23.2539996,110.329999 23.334,110.454 C23.4140004,110.578001 23.5979986,110.664 23.886,110.712 C24.0300007,110.736 24.1299997,110.762 24.186,110.79 C24.2420003,110.818 24.27,110.856 24.27,110.904 C24.27,110.952 24.2380003,110.99 24.174,111.018 C24.1099997,111.046 24.0260005,111.06 23.922,111.06 C23.6259985,111.06 23.3860009,111.048 23.202,111.024 C22.993999,111.008 22.8180007,111 22.674,111 C22.5139992,111 22.330001,111.008 22.122,111.024 C21.929999,111.048 21.6860015,111.06 21.39,111.06 C21.2859995,111.06 21.2020003,111.046 21.138,111.018 C21.0739997,110.99 21.042,110.952 21.042,110.904 C21.042,110.856 21.0699997,110.818 21.126,110.79 C21.1820003,110.762 21.2819993,110.736 21.426,110.712 C21.9780028,110.607999 22.254,110.316002 22.254,109.836 L22.254,107.436 C22.254,107.404 22.25,107.376 22.242,107.352 C22.234,107.328 22.2180001,107.316 22.194,107.316 L17.61,107.316 C17.5859999,107.316 17.57,107.328 17.562,107.352 C17.554,107.376 17.55,107.408 17.55,107.448 L17.55,109.728 C17.55,109.976001 17.6399991,110.189999 17.82,110.37 C18.0000009,110.550001 18.2299986,110.664 18.51,110.712 C18.6540007,110.736 18.7539997,110.762 18.81,110.79 C18.8660003,110.818 18.894,110.856 18.894,110.904 C18.894,110.952 18.8620003,110.99 18.798,111.018 C18.7339997,111.046 18.6500005,111.06 18.546,111.06 C18.2499985,111.06 17.9940011,111.048 17.778,111.024 C17.5219987,111.008 17.3100008,111 17.142,111 C16.9819992,111 16.7900011,111.008 16.566,111.024 C16.373999,111.048 16.1260015,111.06 15.822,111.06 Z M29.274,111.168 C28.5699965,111.168 27.9120031,111.002002 27.3,110.67 C26.6879969,110.337998 26.2000018,109.872003 25.836,109.272 C25.4719982,108.671997 25.29,107.988004 25.29,107.22 C25.29,106.483996 25.4499984,105.796003 25.77,105.156 C26.0900016,104.515997 26.5579969,104.002002 27.174,103.614 C27.7900031,103.225998 28.5259957,103.032 29.382,103.032 C30.0860035,103.032 30.7439969,103.197998 31.356,103.53 C31.9680031,103.862002 32.4559982,104.327997 32.82,104.928 C33.1840018,105.528003 33.366,106.211996 33.366,106.98 C33.366,107.716004 33.2060016,108.403997 32.886,109.044 C32.5659984,109.684003 32.0980031,110.197998 31.482,110.586 C30.8659969,110.974002 30.1300043,111.168 29.274,111.168 Z M29.454,110.688 C30.3500045,110.688 31.0339976,110.410003 31.506,109.854 C31.9780024,109.297997 32.214,108.536005 32.214,107.568 C32.214,106.807996 32.0980012,106.124003 31.866,105.516 C31.6339988,104.907997 31.2920023,104.426002 30.84,104.07 C30.3879977,103.713998 29.8380032,103.536 29.19,103.536 C28.3019956,103.536 27.6220024,103.809997 27.15,104.358 C26.6779976,104.906003 26.442,105.659995 26.442,106.62 C26.442,107.380004 26.5559989,108.067997 26.784,108.684 C27.0120011,109.300003 27.3519977,109.787998 27.804,110.148 C28.2560023,110.508002 28.8059968,110.688 29.454,110.688 Z M36.234,111.06 C36.0019988,111.06 35.886,111.016 35.886,110.928 C35.886,110.872 35.9179997,110.828 35.982,110.796 C36.0460003,110.764 36.1459993,110.736 36.282,110.712 C36.5940016,110.656 36.8279992,110.556001 36.984,110.412 C37.1400008,110.267999 37.218,110.056001 37.218,109.776 L37.218,105.12 C37.218,104.583997 37.2000002,104.222001 37.164,104.034 C37.1279998,103.845999 37.0620005,103.744 36.966,103.728 C36.8619995,103.704 36.7400007,103.69 36.6,103.686 C36.4599993,103.682 36.2980009,103.68 36.114,103.68 L35.55,103.68 C35.341999,103.68 35.1460009,103.72 34.962,103.8 C34.7779991,103.88 34.6460004,103.995999 34.566,104.148 C34.5179998,104.244 34.4440005,104.343999 34.344,104.448 C34.2439995,104.552001 34.1540004,104.604 34.074,104.604 C34.0179997,104.604 33.99,104.552001 33.99,104.448 C33.99,104.368 34.0099998,104.288 34.05,104.208 C34.1620006,103.991999 34.2419998,103.794001 34.29,103.614 C34.3380002,103.433999 34.3819998,103.212001 34.422,102.948 C34.4460001,102.763999 34.5139994,102.672 34.626,102.672 C34.6500001,102.672 34.6959997,102.716 34.764,102.804 C34.8320003,102.892 34.8859998,102.976 34.926,103.056 C34.9740002,103.136 35.0799992,103.196 35.244,103.236 C35.4080008,103.276 35.5819991,103.296 35.766,103.296 L39.99,103.296 C40.4860025,103.296 40.8659987,103.236001 41.13,103.116 C41.1780002,103.092 41.2479995,103.046 41.34,102.978 C41.4320005,102.91 41.5179996,102.876 41.598,102.876 C41.6220001,102.876 41.6419999,102.906 41.658,102.966 C41.6740001,103.026 41.682,103.088 41.682,103.152 C41.682,103.184 41.6660002,103.295999 41.634,103.488 L41.562,103.848 C41.5299998,103.944 41.514,104.059999 41.514,104.196 L41.514,104.34 C41.514,104.42 41.4960002,104.504 41.46,104.592 C41.4239998,104.68 41.3780003,104.724 41.322,104.724 C41.2659997,104.724 41.2220002,104.686 41.19,104.61 C41.1579998,104.534 41.1260002,104.408001 41.094,104.232 C41.0619998,104.055999 40.9620008,103.92 40.794,103.824 C40.6259992,103.728 40.3580018,103.68 39.99,103.68 L38.778,103.68 C38.577999,103.68 38.4400004,103.704 38.364,103.752 C38.2879996,103.8 38.2380001,103.913999 38.214,104.094 C38.1899999,104.274001 38.178,104.595998 38.178,105.06 L38.178,109.776 C38.178,110.056001 38.2579992,110.267999 38.418,110.412 C38.5780008,110.556001 38.8139984,110.656 39.126,110.712 C39.2620007,110.736 39.3619997,110.764 39.426,110.796 C39.4900003,110.828 39.522,110.872 39.522,110.928 C39.522,111.016 39.4060012,111.06 39.174,111.06 C38.8779985,111.06 38.6220011,111.048 38.406,111.024 C38.1499987,111.008 37.9380008,111 37.77,111 C37.569999,111 37.3260014,111.008 37.038,111.024 C36.7979988,111.048 36.5300015,111.06 36.234,111.06 Z M42.498,111.06 C42.2659988,111.06 42.15,111.016 42.15,110.928 C42.15,110.872 42.1819997,110.828 42.246,110.796 C42.3100003,110.764 42.4099993,110.736 42.546,110.712 C42.8580016,110.656 43.0839993,110.562001 43.224,110.43 C43.3640007,110.297999 43.434,110.092001 43.434,109.812 L43.434,104.412 C43.434,104.131999 43.3760006,103.930001 43.26,103.806 C43.1439994,103.681999 42.9340015,103.592 42.63,103.536 C42.3659987,103.488 42.234,103.408001 42.234,103.296 C42.234,103.208 42.3499988,103.164 42.582,103.164 C42.8860015,103.164 43.2539978,103.172 43.686,103.188 L44.706,103.2 L46.35,103.188 L47.37,103.164 C47.5060007,103.164 47.578,103.2 47.586,103.272 C47.6020001,103.336 47.6359997,103.511999 47.688,103.8 C47.7400003,104.088001 47.766,104.323999 47.766,104.508 C47.766,104.628001 47.7100006,104.688 47.598,104.688 C47.5579998,104.688 47.5300001,104.68 47.514,104.664 C47.4979999,104.648 47.4820001,104.616 47.466,104.568 C47.4499999,104.528 47.4180002,104.424001 47.37,104.256 C47.3219998,104.087999 47.2660003,103.972 47.202,103.908 C47.009999,103.691999 46.7420017,103.584 46.398,103.584 L44.826,103.584 C44.7459996,103.584 44.6540005,103.622 44.55,103.698 C44.4459995,103.774 44.394,103.863999 44.394,103.968 L44.394,106.512 C44.394,106.584 44.4159998,106.646 44.46,106.698 C44.5040002,106.75 44.5539997,106.776 44.61,106.776 L45.798,106.776 C46.0220011,106.776 46.1779996,106.736 46.266,106.656 C46.3540004,106.576 46.4299997,106.420001 46.494,106.188 C46.5420002,106.011999 46.6139995,105.924 46.71,105.924 C46.7420002,105.924 46.7759998,105.942 46.812,105.978 C46.8480002,106.014 46.866,106.06 46.866,106.116 L46.854,106.428 L46.83,106.956 L46.842,107.592 L46.854,107.88 C46.854,108.016001 46.8180004,108.084 46.746,108.084 C46.6259994,108.084 46.5340003,107.956001 46.47,107.7 C46.4219998,107.507999 46.3560004,107.37 46.272,107.286 C46.1879996,107.202 46.0700008,107.16 45.918,107.16 L44.802,107.16 C44.6499992,107.16 44.5440003,107.18 44.484,107.22 C44.4239997,107.26 44.394,107.343999 44.394,107.472 L44.394,109.776 C44.394,110.072001 44.4559994,110.279999 44.58,110.4 C44.7040006,110.520001 44.9059986,110.58 45.186,110.58 L46.074,110.58 C46.3380013,110.58 46.5559991,110.564 46.728,110.532 C46.9000009,110.5 47.0459994,110.448 47.166,110.376 C47.2860006,110.296 47.3959995,110.186001 47.496,110.046 C47.5960005,109.905999 47.7139993,109.708001 47.85,109.452 C47.9060003,109.347999 47.9619997,109.296 48.018,109.296 C48.1220005,109.296 48.174,109.351999 48.174,109.464 C48.174,109.568001 48.1300004,109.785998 48.042,110.118 C47.9539996,110.450002 47.8740004,110.695999 47.802,110.856 C47.794,110.872 47.7820001,110.9 47.766,110.94 C47.7499999,110.98 47.7320001,111.01 47.712,111.03 C47.6919999,111.05 47.6660002,111.06 47.634,111.06 C47.4739992,111.06 46.7700062,111.048 45.522,111.024 C44.9699972,111 44.4220027,110.988 43.878,110.988 C43.6539989,110.988 43.446001,111 43.254,111.024 C42.845998,111.048 42.5940005,111.06 42.498,111.06 Z M49.134,111.06 C49.0299995,111.06 48.9480003,111.046 48.888,111.018 C48.8279997,110.99 48.798,110.956 48.798,110.916 C48.798,110.82 48.8859991,110.752 49.062,110.712 C49.3900016,110.648 49.6339992,110.552001 49.794,110.424 C49.9540008,110.295999 50.034,110.104001 50.034,109.848 L50.034,104.28 C50.034,104.087999 50.0140002,103.946 49.974,103.854 C49.9339998,103.762 49.8680005,103.696 49.776,103.656 C49.6839995,103.616 49.5260011,103.576 49.302,103.536 C49.0379987,103.488 48.906,103.408001 48.906,103.296 C48.906,103.208 49.0219988,103.164 49.254,103.164 C49.4940012,103.164 49.7419987,103.172 49.998,103.188 L50.598,103.2 L51.318,103.188 C51.6220015,103.172 51.8859989,103.164 52.11,103.164 C52.3420012,103.164 52.458,103.208 52.458,103.296 C52.458,103.408001 52.3260013,103.488 52.062,103.536 C51.6859981,103.608 51.4140008,103.684 51.246,103.764 C51.0779992,103.844 50.994,103.987999 50.994,104.196 L50.994,109.848 C50.994,110.112001 51.0539994,110.299999 51.174,110.412 C51.2940006,110.524001 51.5419981,110.58 51.918,110.58 L53.406,110.58 C53.606001,110.58 53.7899992,110.548 53.958,110.484 C54.1260008,110.42 54.2539996,110.348 54.342,110.268 C54.5020008,110.131999 54.6199996,110.010001 54.696,109.902 C54.7720004,109.793999 54.8619995,109.632001 54.966,109.416 C54.9980002,109.336 55.0379998,109.256 55.086,109.176 C55.1340002,109.096 55.1819998,109.056 55.23,109.056 C55.2780002,109.056 55.3139999,109.078 55.338,109.122 C55.3620001,109.166 55.374,109.216 55.374,109.272 L55.362,109.332 C55.2579995,109.716002 55.1840002,110.009999 55.14,110.214 C55.0959998,110.418001 55.0620001,110.631999 55.038,110.856 C55.0219999,110.992001 54.9660005,111.06 54.87,111.06 C54.0139957,111.06 53.2260036,111.048 52.506,111.024 C51.6899959,111.008 51.1060018,111 50.754,111 C50.5059988,111 50.2020018,111.008 49.842,111.024 C49.4819982,111.04 49.2460006,111.052 49.134,111.06 Z M57.93,111.192 C57.2579966,111.192 56.6940023,111.000002 56.238,110.616 C56.1499996,110.528 56.0980001,110.448 56.082,110.376 C56.0499998,110.231999 56.0140002,109.900003 55.974,109.38 L55.962,109.116 C55.962,109.06 55.9839998,109.018 56.028,108.99 C56.0720002,108.962 56.1299996,108.948 56.202,108.948 C56.3060005,108.948 56.3699999,108.992 56.394,109.08 C56.5380007,109.664003 56.7639985,110.095999 57.072,110.376 C57.3800015,110.656001 57.7219981,110.796 58.098,110.796 C58.5140021,110.796 58.8579986,110.662001 59.13,110.394 C59.4020014,110.125999 59.538,109.772002 59.538,109.332 C59.538,109.019998 59.4880005,108.762001 59.388,108.558 C59.2879995,108.353999 59.1500009,108.182001 58.974,108.042 C58.7979991,107.901999 58.5340018,107.724001 58.182,107.508 L57.942,107.364 C57.549998,107.123999 57.2420011,106.916001 57.018,106.74 C56.7939989,106.563999 56.6020008,106.348001 56.442,106.092 C56.2819992,105.835999 56.202,105.544002 56.202,105.216 C56.202,104.575997 56.4179978,104.052002 56.85,103.644 C57.2820022,103.235998 57.901996,103.032 58.71,103.032 C59.118002,103.032 59.5379978,103.119999 59.97,103.296 C60.0260003,103.32 60.0779998,103.36 60.126,103.416 C60.1740002,103.472 60.2059999,103.532 60.222,103.596 C60.3020004,103.876001 60.3619998,104.101999 60.402,104.274 C60.4420002,104.446001 60.462,104.615999 60.462,104.784 C60.462,104.872 60.4020006,104.916 60.282,104.916 C60.2099996,104.916 60.1400003,104.9 60.072,104.868 C60.0039997,104.836 59.9620001,104.796 59.946,104.748 C59.7699991,104.307998 59.5680011,103.980001 59.34,103.764 C59.1119989,103.547999 58.8340016,103.44 58.506,103.44 C58.105998,103.44 57.7760013,103.549999 57.516,103.77 C57.2559987,103.990001 57.126,104.335998 57.126,104.808 C57.126,105.032001 57.1979993,105.239999 57.342,105.432 C57.4860007,105.624001 57.6679989,105.799999 57.888,105.96 C58.1080011,106.120001 58.413998,106.319999 58.806,106.56 C59.1820019,106.792001 59.4859988,106.999999 59.718,107.184 C59.9500012,107.368001 60.1459992,107.595999 60.306,107.868 C60.4660008,108.140001 60.546,108.463998 60.546,108.84 C60.546,109.552004 60.3060024,110.121998 59.826,110.55 C59.3459976,110.978002 58.7140039,111.192 57.93,111.192 Z M66.006,111.18 C65.597998,111.18 65.2360016,111.106001 64.92,110.958 C64.6039984,110.809999 64.3580009,110.608001 64.182,110.352 C64.0059991,110.095999 63.918,109.804002 63.918,109.476 C63.918,108.875997 64.0959982,108.368002 64.452,107.952 C64.8080018,107.535998 65.2979969,107.184001 65.922,106.896 L66.162,106.788 L65.982,106.596 C65.9419998,106.548 65.8500007,106.450001 65.706,106.302 C65.5619993,106.153999 65.4420005,105.986001 65.346,105.798 C65.2499995,105.609999 65.202,105.408001 65.202,105.192 C65.202,104.919999 65.2819992,104.680001 65.442,104.472 C65.6020008,104.263999 65.8099987,104.102001 66.066,103.986 C66.3220013,103.869999 66.5899986,103.812 66.87,103.812 C67.1900016,103.812 67.4659988,103.887999 67.698,104.04 C67.9300012,104.192001 68.1039994,104.379999 68.22,104.604 C68.3360006,104.828001 68.394,105.051999 68.394,105.276 C68.402,105.860003 67.9820042,106.307998 67.134,106.62 L66.966,106.68 L67.122,106.848 C67.2260005,106.968001 67.3219996,107.07 67.41,107.154 C67.4980004,107.238 67.5739997,107.316 67.638,107.388 C67.8700012,107.620001 68.0639992,107.823999 68.22,108 C68.3760008,108.176001 68.5299992,108.371999 68.682,108.588 L68.826,108.804 L69.042,108.576 C69.3300014,108.263998 69.6219985,107.908002 69.918,107.508 C70.2140015,107.107998 70.362,106.864 70.362,106.776 C70.362,106.72 70.3300003,106.654 70.266,106.578 C70.2019997,106.502 70.1220005,106.456 70.026,106.44 C70.0019999,106.432 69.9720002,106.412 69.936,106.38 C69.8999998,106.348 69.882,106.324 69.882,106.308 C69.882,106.26 69.9119997,106.226 69.972,106.206 C70.0320003,106.186 70.0899997,106.176 70.146,106.176 L70.41,106.2 C70.818002,106.224 71.0140001,106.236 70.998,106.236 C71.1340007,106.236 71.3459986,106.204 71.634,106.14 C71.8580011,106.084 72.0299994,106.056 72.15,106.056 C72.1740001,106.056 72.2039998,106.068 72.24,106.092 C72.2760002,106.116 72.294,106.14 72.294,106.164 C72.294,106.212 72.2580004,106.26 72.186,106.308 C72.1139996,106.356 72.0500003,106.384 71.994,106.392 C71.6659984,106.416 71.3740013,106.539999 71.118,106.764 C71.0539997,106.82 70.7320029,107.153997 70.152,107.766 C69.5719971,108.378003 69.178001,108.795999 68.97,109.02 L69.174,109.308 C69.4540014,109.708002 69.7159988,110.009999 69.96,110.214 C70.2040012,110.418001 70.4699986,110.52 70.758,110.52 C71.1340019,110.52 71.4459988,110.448001 71.694,110.304 C71.7580003,110.264 71.8259996,110.244 71.898,110.244 C71.9540003,110.244 71.9919999,110.254 72.012,110.274 C72.0320001,110.294 72.042,110.332 72.042,110.388 C72.042,110.46 71.9560009,110.559999 71.784,110.688 C71.6119991,110.816001 71.4060012,110.93 71.166,111.03 C70.9259988,111.13 70.702001,111.18 70.494,111.18 C70.1979985,111.18 69.952001,111.132 69.756,111.036 C69.559999,110.94 69.3840008,110.800001 69.228,110.616 C69.0719992,110.431999 68.8780012,110.156002 68.646,109.788 L68.49,109.536 L68.418,109.608 L68.166,109.884 C67.8939986,110.188002 67.6640009,110.423999 67.476,110.592 C67.2879991,110.760001 67.0740012,110.899999 66.834,111.012 C66.5939988,111.124001 66.3180016,111.18 66.006,111.18 Z M66.966,106.416 C67.174001,106.32 67.3359994,106.160001 67.452,105.936 C67.5680006,105.711999 67.626,105.472001 67.626,105.216 C67.626,104.919999 67.5560007,104.664001 67.416,104.448 C67.2759993,104.231999 67.0740013,104.124 66.81,104.124 C66.5699988,104.124 66.3580009,104.197999 66.174,104.346 C65.9899991,104.494001 65.898,104.675999 65.898,104.892 C65.898,105.140001 65.9419996,105.353999 66.03,105.534 C66.1180004,105.714001 66.3139985,105.963998 66.618,106.284 L66.81,106.488 L66.966,106.416 Z M66.318,110.4 C66.6940019,110.4 67.0299985,110.320001 67.326,110.16 C67.6220015,109.999999 67.9259984,109.756002 68.238,109.428 L68.346,109.32 L68.202,109.092 C68.0739994,108.891999 67.9180009,108.688001 67.734,108.48 C67.5499991,108.271999 67.3180014,108.024001 67.038,107.736 L66.486,107.148 L66.342,106.992 L66.09,107.088 C65.5859975,107.280001 65.2520008,107.547998 65.088,107.892 C64.9239992,108.236002 64.842,108.631998 64.842,109.08 C64.842,109.456002 64.9799986,109.769999 65.256,110.022 C65.5320014,110.274001 65.8859978,110.4 66.318,110.4 Z M82.578,111.252 C82.2099982,111.252 81.8920013,111.204 81.624,111.108 C81.3559987,111.012 81.122001,110.844001 80.922,110.604 C80.5539982,110.147998 80.2500012,109.758002 80.01,109.434 C79.7699988,109.109998 79.4660018,108.648003 79.098,108.048 C78.9779994,107.847999 78.8060011,107.692001 78.582,107.58 C78.3179987,107.451999 78.0020018,107.368 77.634,107.328 L77.61,107.328 C77.5059995,107.328 77.454,107.407999 77.454,107.568 L77.454,109.68 C77.454,110.272003 77.722,110.616 78.258,110.712 C78.3940007,110.736 78.4939997,110.764 78.558,110.796 C78.6220003,110.828 78.654,110.872 78.654,110.928 C78.654,111.016 78.5380012,111.06 78.306,111.06 C78.0499987,111.06 77.818001,111.044 77.61,111.012 C77.4659993,110.988 77.3060009,110.976 77.13,110.976 C76.9859993,110.976 76.8400007,110.982 76.692,110.994 C76.5439993,111.006 76.4380003,111.012 76.374,111.012 C76.0539984,111.044 75.7860011,111.06 75.57,111.06 C75.3379988,111.06 75.222,111.016 75.222,110.928 C75.222,110.872 75.2539997,110.828 75.318,110.796 C75.3820003,110.764 75.4819993,110.736 75.618,110.712 C75.9300016,110.656 76.1539993,110.562001 76.29,110.43 C76.4260007,110.297999 76.494,110.088001 76.494,109.8 L76.494,104.688 C76.494,104.351998 76.4800001,104.114001 76.452,103.974 C76.4239999,103.833999 76.3600005,103.732 76.26,103.668 C76.1599995,103.604 75.9940012,103.56 75.762,103.536 C75.6339994,103.528 75.5360003,103.5 75.468,103.452 C75.3999997,103.404 75.366,103.352 75.366,103.296 C75.366,103.208 75.4819988,103.164 75.714,103.164 C76.0580017,103.164 76.2819995,103.168 76.386,103.176 L76.89,103.176 C77.0100006,103.176 77.1899988,103.168 77.43,103.152 C77.8620022,103.128 78.1419994,103.116 78.27,103.116 C79.1500044,103.116 79.8199977,103.281998 80.28,103.614 C80.7400023,103.946002 80.97,104.435997 80.97,105.084 C80.97,105.948004 80.4980047,106.619998 79.554,107.1 C79.5299999,107.108 79.518,107.128 79.518,107.16 C79.518,107.184 79.5299999,107.216 79.554,107.256 C80.0580025,108.016004 80.4639985,108.599998 80.772,109.008 C81.0800015,109.416002 81.4859975,109.847998 81.99,110.304 C82.182001,110.472001 82.377999,110.58 82.578,110.628 C82.778001,110.676 83.0419984,110.7 83.37,110.7 C83.4900006,110.7 83.55,110.744 83.55,110.832 C83.55,110.984001 83.4440011,111.092 83.232,111.156 C83.0199989,111.22 82.8020011,111.252 82.578,111.252 Z M78.09,107.052 C78.4420018,107.052 78.7559986,106.970001 79.032,106.806 C79.3080014,106.641999 79.5199993,106.424001 79.668,106.152 C79.8160007,105.879999 79.89,105.588002 79.89,105.276 C79.89,104.707997 79.7700012,104.266002 79.53,103.95 C79.2899988,103.633998 78.8220035,103.476 78.126,103.476 C77.8779988,103.476 77.7120004,103.553999 77.628,103.71 C77.5439996,103.866001 77.4940001,104.159998 77.478,104.592 C77.4619999,105.136003 77.454,105.815996 77.454,106.632 C77.454,106.816001 77.5019995,106.932 77.598,106.98 C77.6940005,107.028 77.8579988,107.052 78.09,107.052 Z M84.282,111.06 C84.0499988,111.06 83.934,111.016 83.934,110.928 C83.934,110.872 83.9659997,110.828 84.03,110.796 C84.0940003,110.764 84.1939993,110.736 84.33,110.712 C84.6420016,110.656 84.8679993,110.562001 85.008,110.43 C85.1480007,110.297999 85.218,110.092001 85.218,109.812 L85.218,104.412 C85.218,104.131999 85.1600006,103.930001 85.044,103.806 C84.9279994,103.681999 84.7180015,103.592 84.414,103.536 C84.1499987,103.488 84.018,103.408001 84.018,103.296 C84.018,103.208 84.1339988,103.164 84.366,103.164 C84.6700015,103.164 85.0379978,103.172 85.47,103.188 L86.49,103.2 L88.134,103.188 L89.154,103.164 C89.2900007,103.164 89.362,103.2 89.37,103.272 C89.3860001,103.336 89.4199997,103.511999 89.472,103.8 C89.5240003,104.088001 89.55,104.323999 89.55,104.508 C89.55,104.628001 89.4940006,104.688 89.382,104.688 C89.3419998,104.688 89.3140001,104.68 89.298,104.664 C89.2819999,104.648 89.2660001,104.616 89.25,104.568 C89.2339999,104.528 89.2020002,104.424001 89.154,104.256 C89.1059998,104.087999 89.0500003,103.972 88.986,103.908 C88.793999,103.691999 88.5260017,103.584 88.182,103.584 L86.61,103.584 C86.5299996,103.584 86.4380005,103.622 86.334,103.698 C86.2299995,103.774 86.178,103.863999 86.178,103.968 L86.178,106.512 C86.178,106.584 86.1999998,106.646 86.244,106.698 C86.2880002,106.75 86.3379997,106.776 86.394,106.776 L87.582,106.776 C87.8060011,106.776 87.9619996,106.736 88.05,106.656 C88.1380004,106.576 88.2139997,106.420001 88.278,106.188 C88.3260002,106.011999 88.3979995,105.924 88.494,105.924 C88.5260002,105.924 88.5599998,105.942 88.596,105.978 C88.6320002,106.014 88.65,106.06 88.65,106.116 L88.638,106.428 L88.614,106.956 L88.626,107.592 L88.638,107.88 C88.638,108.016001 88.6020004,108.084 88.53,108.084 C88.4099994,108.084 88.3180003,107.956001 88.254,107.7 C88.2059998,107.507999 88.1400004,107.37 88.056,107.286 C87.9719996,107.202 87.8540008,107.16 87.702,107.16 L86.586,107.16 C86.4339992,107.16 86.3280003,107.18 86.268,107.22 C86.2079997,107.26 86.178,107.343999 86.178,107.472 L86.178,109.776 C86.178,110.072001 86.2399994,110.279999 86.364,110.4 C86.4880006,110.520001 86.6899986,110.58 86.97,110.58 L87.858,110.58 C88.1220013,110.58 88.3399991,110.564 88.512,110.532 C88.6840009,110.5 88.8299994,110.448 88.95,110.376 C89.0700006,110.296 89.1799995,110.186001 89.28,110.046 C89.3800005,109.905999 89.4979993,109.708001 89.634,109.452 C89.6900003,109.347999 89.7459997,109.296 89.802,109.296 C89.9060005,109.296 89.958,109.351999 89.958,109.464 C89.958,109.568001 89.9140004,109.785998 89.826,110.118 C89.7379996,110.450002 89.6580004,110.695999 89.586,110.856 C89.578,110.872 89.5660001,110.9 89.55,110.94 C89.5339999,110.98 89.5160001,111.01 89.496,111.03 C89.4759999,111.05 89.4500002,111.06 89.418,111.06 C89.2579992,111.06 88.5540062,111.048 87.306,111.024 C86.7539972,111 86.2060027,110.988 85.662,110.988 C85.4379989,110.988 85.230001,111 85.038,111.024 C84.629998,111.048 84.3780005,111.06 84.282,111.06 Z M92.706,111.192 C92.0339966,111.192 91.4700023,111.000002 91.014,110.616 C90.9259996,110.528 90.8740001,110.448 90.858,110.376 C90.8259998,110.231999 90.7900002,109.900003 90.75,109.38 L90.738,109.116 C90.738,109.06 90.7599998,109.018 90.804,108.99 C90.8480002,108.962 90.9059996,108.948 90.978,108.948 C91.0820005,108.948 91.1459999,108.992 91.17,109.08 C91.3140007,109.664003 91.5399985,110.095999 91.848,110.376 C92.1560015,110.656001 92.4979981,110.796 92.874,110.796 C93.2900021,110.796 93.6339986,110.662001 93.906,110.394 C94.1780014,110.125999 94.314,109.772002 94.314,109.332 C94.314,109.019998 94.2640005,108.762001 94.164,108.558 C94.0639995,108.353999 93.9260009,108.182001 93.75,108.042 C93.5739991,107.901999 93.3100018,107.724001 92.958,107.508 L92.718,107.364 C92.325998,107.123999 92.0180011,106.916001 91.794,106.74 C91.5699989,106.563999 91.3780008,106.348001 91.218,106.092 C91.0579992,105.835999 90.978,105.544002 90.978,105.216 C90.978,104.575997 91.1939978,104.052002 91.626,103.644 C92.0580022,103.235998 92.677996,103.032 93.486,103.032 C93.894002,103.032 94.3139978,103.119999 94.746,103.296 C94.8020003,103.32 94.8539998,103.36 94.902,103.416 C94.9500002,103.472 94.9819999,103.532 94.998,103.596 C95.0780004,103.876001 95.1379998,104.101999 95.178,104.274 C95.2180002,104.446001 95.238,104.615999 95.238,104.784 C95.238,104.872 95.1780006,104.916 95.058,104.916 C94.9859996,104.916 94.9160003,104.9 94.848,104.868 C94.7799997,104.836 94.7380001,104.796 94.722,104.748 C94.5459991,104.307998 94.3440011,103.980001 94.116,103.764 C93.8879989,103.547999 93.6100016,103.44 93.282,103.44 C92.881998,103.44 92.5520013,103.549999 92.292,103.77 C92.0319987,103.990001 91.902,104.335998 91.902,104.808 C91.902,105.032001 91.9739993,105.239999 92.118,105.432 C92.2620007,105.624001 92.4439989,105.799999 92.664,105.96 C92.8840011,106.120001 93.189998,106.319999 93.582,106.56 C93.9580019,106.792001 94.2619988,106.999999 94.494,107.184 C94.7260012,107.368001 94.9219992,107.595999 95.082,107.868 C95.2420008,108.140001 95.322,108.463998 95.322,108.84 C95.322,109.552004 95.0820024,110.121998 94.602,110.55 C94.1219976,110.978002 93.4900039,111.192 92.706,111.192 Z M100.362,111.168 C99.6579965,111.168 99.0000031,111.002002 98.388,110.67 C97.7759969,110.337998 97.2880018,109.872003 96.924,109.272 C96.5599982,108.671997 96.378,107.988004 96.378,107.22 C96.378,106.483996 96.5379984,105.796003 96.858,105.156 C97.1780016,104.515997 97.6459969,104.002002 98.262,103.614 C98.8780031,103.225998 99.6139957,103.032 100.47,103.032 C101.174004,103.032 101.831997,103.197998 102.444,103.53 C103.056003,103.862002 103.543998,104.327997 103.908,104.928 C104.272002,105.528003 104.454,106.211996 104.454,106.98 C104.454,107.716004 104.294002,108.403997 103.974,109.044 C103.653998,109.684003 103.186003,110.197998 102.57,110.586 C101.953997,110.974002 101.218004,111.168 100.362,111.168 Z M100.542,110.688 C101.438004,110.688 102.121998,110.410003 102.594,109.854 C103.066002,109.297997 103.302,108.536005 103.302,107.568 C103.302,106.807996 103.186001,106.124003 102.954,105.516 C102.721999,104.907997 102.380002,104.426002 101.928,104.07 C101.475998,103.713998 100.926003,103.536 100.278,103.536 C99.3899956,103.536 98.7100024,103.809997 98.238,104.358 C97.7659976,104.906003 97.53,105.659995 97.53,106.62 C97.53,107.380004 97.6439989,108.067997 97.872,108.684 C98.1000011,109.300003 98.4399977,109.787998 98.892,110.148 C99.3440023,110.508002 99.8939968,110.688 100.542,110.688 Z M112.638,111.252 C112.269998,111.252 111.952001,111.204 111.684,111.108 C111.415999,111.012 111.182001,110.844001 110.982,110.604 C110.613998,110.147998 110.310001,109.758002 110.07,109.434 C109.829999,109.109998 109.526002,108.648003 109.158,108.048 C109.037999,107.847999 108.866001,107.692001 108.642,107.58 C108.377999,107.451999 108.062002,107.368 107.694,107.328 L107.67,107.328 C107.565999,107.328 107.514,107.407999 107.514,107.568 L107.514,109.68 C107.514,110.272003 107.782,110.616 108.318,110.712 C108.454001,110.736 108.554,110.764 108.618,110.796 C108.682,110.828 108.714,110.872 108.714,110.928 C108.714,111.016 108.598001,111.06 108.366,111.06 C108.109999,111.06 107.878001,111.044 107.67,111.012 C107.525999,110.988 107.366001,110.976 107.19,110.976 C107.045999,110.976 106.900001,110.982 106.752,110.994 C106.603999,111.006 106.498,111.012 106.434,111.012 C106.113998,111.044 105.846001,111.06 105.63,111.06 C105.397999,111.06 105.282,111.016 105.282,110.928 C105.282,110.872 105.314,110.828 105.378,110.796 C105.442,110.764 105.541999,110.736 105.678,110.712 C105.990002,110.656 106.213999,110.562001 106.35,110.43 C106.486001,110.297999 106.554,110.088001 106.554,109.8 L106.554,104.688 C106.554,104.351998 106.54,104.114001 106.512,103.974 C106.484,103.833999 106.420001,103.732 106.32,103.668 C106.22,103.604 106.054001,103.56 105.822,103.536 C105.693999,103.528 105.596,103.5 105.528,103.452 C105.46,103.404 105.426,103.352 105.426,103.296 C105.426,103.208 105.541999,103.164 105.774,103.164 C106.118002,103.164 106.341999,103.168 106.446,103.176 L106.95,103.176 C107.070001,103.176 107.249999,103.168 107.49,103.152 C107.922002,103.128 108.201999,103.116 108.33,103.116 C109.210004,103.116 109.879998,103.281998 110.34,103.614 C110.800002,103.946002 111.03,104.435997 111.03,105.084 C111.03,105.948004 110.558005,106.619998 109.614,107.1 C109.59,107.108 109.578,107.128 109.578,107.16 C109.578,107.184 109.59,107.216 109.614,107.256 C110.118003,108.016004 110.523998,108.599998 110.832,109.008 C111.140002,109.416002 111.545997,109.847998 112.05,110.304 C112.242001,110.472001 112.437999,110.58 112.638,110.628 C112.838001,110.676 113.101998,110.7 113.43,110.7 C113.550001,110.7 113.61,110.744 113.61,110.832 C113.61,110.984001 113.504001,111.092 113.292,111.156 C113.079999,111.22 112.862001,111.252 112.638,111.252 Z M108.15,107.052 C108.502002,107.052 108.815999,106.970001 109.092,106.806 C109.368001,106.641999 109.579999,106.424001 109.728,106.152 C109.876001,105.879999 109.95,105.588002 109.95,105.276 C109.95,104.707997 109.830001,104.266002 109.59,103.95 C109.349999,103.633998 108.882003,103.476 108.186,103.476 C107.937999,103.476 107.772,103.553999 107.688,103.71 C107.604,103.866001 107.554,104.159998 107.538,104.592 C107.522,105.136003 107.514,105.815996 107.514,106.632 C107.514,106.816001 107.562,106.932 107.658,106.98 C107.754,107.028 107.917999,107.052 108.15,107.052 Z M114.918,111.06 C114.685999,111.06 114.57,111.016 114.57,110.928 C114.57,110.872 114.602,110.828 114.666,110.796 C114.73,110.764 114.829999,110.736 114.966,110.712 C115.278002,110.656 115.511999,110.556001 115.668,110.412 C115.824001,110.267999 115.902,110.056001 115.902,109.776 L115.902,105.12 C115.902,104.583997 115.884,104.222001 115.848,104.034 C115.812,103.845999 115.746,103.744 115.65,103.728 C115.545999,103.704 115.424001,103.69 115.284,103.686 C115.143999,103.682 114.982001,103.68 114.798,103.68 L114.234,103.68 C114.025999,103.68 113.830001,103.72 113.646,103.8 C113.461999,103.88 113.33,103.995999 113.25,104.148 C113.202,104.244 113.128,104.343999 113.028,104.448 C112.927999,104.552001 112.838,104.604 112.758,104.604 C112.702,104.604 112.674,104.552001 112.674,104.448 C112.674,104.368 112.694,104.288 112.734,104.208 C112.846001,103.991999 112.926,103.794001 112.974,103.614 C113.022,103.433999 113.066,103.212001 113.106,102.948 C113.13,102.763999 113.197999,102.672 113.31,102.672 C113.334,102.672 113.38,102.716 113.448,102.804 C113.516,102.892 113.57,102.976 113.61,103.056 C113.658,103.136 113.763999,103.196 113.928,103.236 C114.092001,103.276 114.265999,103.296 114.45,103.296 L118.674,103.296 C119.170002,103.296 119.549999,103.236001 119.814,103.116 C119.862,103.092 119.932,103.046 120.024,102.978 C120.116,102.91 120.202,102.876 120.282,102.876 C120.306,102.876 120.326,102.906 120.342,102.966 C120.358,103.026 120.366,103.088 120.366,103.152 C120.366,103.184 120.35,103.295999 120.318,103.488 L120.246,103.848 C120.214,103.944 120.198,104.059999 120.198,104.196 L120.198,104.34 C120.198,104.42 120.18,104.504 120.144,104.592 C120.108,104.68 120.062,104.724 120.006,104.724 C119.95,104.724 119.906,104.686 119.874,104.61 C119.842,104.534 119.81,104.408001 119.778,104.232 C119.746,104.055999 119.646001,103.92 119.478,103.824 C119.309999,103.728 119.042002,103.68 118.674,103.68 L117.462,103.68 C117.261999,103.68 117.124,103.704 117.048,103.752 C116.972,103.8 116.922,103.913999 116.898,104.094 C116.874,104.274001 116.862,104.595998 116.862,105.06 L116.862,109.776 C116.862,110.056001 116.941999,110.267999 117.102,110.412 C117.262001,110.556001 117.497998,110.656 117.81,110.712 C117.946001,110.736 118.046,110.764 118.11,110.796 C118.174,110.828 118.206,110.872 118.206,110.928 C118.206,111.016 118.090001,111.06 117.858,111.06 C117.561999,111.06 117.306001,111.048 117.09,111.024 C116.833999,111.008 116.622001,111 116.454,111 C116.253999,111 116.010001,111.008 115.722,111.024 C115.481999,111.048 115.214001,111.06 114.918,111.06 Z M122.838,111.192 C122.165997,111.192 121.602002,111.000002 121.146,110.616 C121.058,110.528 121.006,110.448 120.99,110.376 C120.958,110.231999 120.922,109.900003 120.882,109.38 L120.87,109.116 C120.87,109.06 120.892,109.018 120.936,108.99 C120.98,108.962 121.038,108.948 121.11,108.948 C121.214001,108.948 121.278,108.992 121.302,109.08 C121.446001,109.664003 121.671998,110.095999 121.98,110.376 C122.288002,110.656001 122.629998,110.796 123.006,110.796 C123.422002,110.796 123.765999,110.662001 124.038,110.394 C124.310001,110.125999 124.446,109.772002 124.446,109.332 C124.446,109.019998 124.396001,108.762001 124.296,108.558 C124.195999,108.353999 124.058001,108.182001 123.882,108.042 C123.705999,107.901999 123.442002,107.724001 123.09,107.508 L122.85,107.364 C122.457998,107.123999 122.150001,106.916001 121.926,106.74 C121.701999,106.563999 121.510001,106.348001 121.35,106.092 C121.189999,105.835999 121.11,105.544002 121.11,105.216 C121.11,104.575997 121.325998,104.052002 121.758,103.644 C122.190002,103.235998 122.809996,103.032 123.618,103.032 C124.026002,103.032 124.445998,103.119999 124.878,103.296 C124.934,103.32 124.986,103.36 125.034,103.416 C125.082,103.472 125.114,103.532 125.13,103.596 C125.21,103.876001 125.27,104.101999 125.31,104.274 C125.35,104.446001 125.37,104.615999 125.37,104.784 C125.37,104.872 125.310001,104.916 125.19,104.916 C125.118,104.916 125.048,104.9 124.98,104.868 C124.912,104.836 124.87,104.796 124.854,104.748 C124.677999,104.307998 124.476001,103.980001 124.248,103.764 C124.019999,103.547999 123.742002,103.44 123.414,103.44 C123.013998,103.44 122.684001,103.549999 122.424,103.77 C122.163999,103.990001 122.034,104.335998 122.034,104.808 C122.034,105.032001 122.105999,105.239999 122.25,105.432 C122.394001,105.624001 122.575999,105.799999 122.796,105.96 C123.016001,106.120001 123.321998,106.319999 123.714,106.56 C124.090002,106.792001 124.393999,106.999999 124.626,107.184 C124.858001,107.368001 125.053999,107.595999 125.214,107.868 C125.374001,108.140001 125.454,108.463998 125.454,108.84 C125.454,109.552004 125.214002,110.121998 124.734,110.55 C124.253998,110.978002 123.622004,111.192 122.838,111.192 Z" id="HOTELS&amp;RESORTS" fill="#C69C6D" fill-rule="nonzero"></path>
                <polygon id="Star" fill="#C69C6D" points="70.5 134.75 66.6793959 136.75861 67.4090663 132.504305 64.3181326 129.49139 68.5896979 128.870695 70.5 125 72.4103021 128.870695 76.6818674 129.49139 73.5909337 132.504305 74.3206041 136.75861"></polygon>
                <polygon id="Star-Copy" fill="#C69C6D" points="85.5 134.75 81.6793959 136.75861 82.4090663 132.504305 79.3181326 129.49139 83.5896979 128.870695 85.5 125 87.4103021 128.870695 91.6818674 129.49139 88.5909337 132.504305 89.3206041 136.75861"></polygon>
                <polygon id="Star-Copy-3" fill="#C69C6D" points="100.5 134.75 96.6793959 136.75861 97.4090663 132.504305 94.3181326 129.49139 98.5896979 128.870695 100.5 125 102.410302 128.870695 106.681867 129.49139 103.590934 132.504305 104.320604 136.75861"></polygon>
                <polygon id="Star-Copy-2" fill="#C69C6D" points="55.5 134.75 51.6793959 136.75861 52.4090663 132.504305 49.3181326 129.49139 53.5896979 128.870695 55.5 125 57.4103021 128.870695 61.6818674 129.49139 58.5909337 132.504305 59.3206041 136.75861"></polygon>
                <polygon id="Star-Copy-4" fill="#C69C6D" points="40.5 134.75 36.6793959 136.75861 37.4090663 132.504305 34.3181326 129.49139 38.5896979 128.870695 40.5 125 42.4103021 128.870695 46.6818674 129.49139 43.5909337 132.504305 44.3206041 136.75861"></polygon>
            </g>
        </g>
    </g>
</svg>