<svg width="120" height="73" viewBox="0 0 120 73" fill="none" xmlns="http://www.w3.org/2000/svg">
<g opacity="0.2">
<path d="M14.2856 0.428711H105.714C108.857 0.428711 111.428 3.00014 111.428 6.143V69.0001H8.57129V6.143C8.57129 3.00014 11.1427 0.428711 14.2856 0.428711Z" fill="#515D6B"/>
<path d="M16.5716 5H103.429C105.314 5 106.857 6.54286 106.857 8.42857V64.4286H13.1431V8.42857C13.1431 6.54286 14.6859 5 16.5716 5Z" fill="#292F36"/>
<path d="M16.5714 6.14282H103.429C104.686 6.14282 105.714 7.17139 105.714 8.42854V63.2857H14.2856V8.42854C14.2856 7.17139 15.3142 6.14282 16.5714 6.14282Z" fill="#2F5A53"/>
<path d="M60.2859 3.85711C60.7592 3.85711 61.143 3.47335 61.143 2.99997C61.143 2.52658 60.7592 2.14282 60.2859 2.14282C59.8125 2.14282 59.4287 2.52658 59.4287 2.99997C59.4287 3.47335 59.8125 3.85711 60.2859 3.85711Z" fill="#2F5A53"/>
<path d="M120 67.2856H0V72.9999H120V67.2856Z" fill="#6B7A8C"/>
<path d="M68.5716 67.2856H51.4287V69.5714H68.5716V67.2856Z" fill="#5D6B7A"/>
<path d="M120 70.7144H0V73.0001H120V70.7144Z" fill="black" fill-opacity="0.1"/>
<path opacity="0.1" d="M97.1429 19.8572H40V59.8572H97.1429V19.8572Z" fill="black"/>
<path d="M97.1429 18.1428H40V58.1428H97.1429V18.1428Z" fill="#353440"/>
<path d="M45.1431 27.2856H52.5716V28.4285H45.1431V27.2856ZM45.1431 40.9999H52.5716V42.1428H45.1431V40.9999ZM45.1431 51.2856H52.5716V52.4285H45.1431V51.2856ZM46.8574 30.7142H54.2859V31.8571H46.8574V30.7142ZM46.8574 37.5714H51.4288V38.7142H46.8574V37.5714ZM46.8574 47.8571H51.4288V48.9999H46.8574V47.8571ZM53.7145 37.5714H58.2859V38.7142H53.7145V37.5714ZM53.7145 47.8571H58.2859V48.9999H53.7145V47.8571ZM60.5716 37.5714H65.1431V38.7142H60.5716V37.5714ZM60.5716 47.8571H65.1431V48.9999H60.5716V47.8571ZM67.4288 37.5714H72.0002V38.7142H67.4288V37.5714ZM67.4288 47.8571H72.0002V48.9999H67.4288V47.8571ZM46.8574 34.1428H58.8574V35.2856H46.8574V34.1428ZM46.8574 44.4285H58.8574V45.5714H46.8574V44.4285ZM61.1431 34.1428H65.1431V35.2856H61.1431V34.1428ZM61.1431 44.4285H65.1431V45.5714H61.1431V44.4285ZM77.7145 30.7142H80.0002V31.8571H77.7145V30.7142ZM56.5716 30.7142H75.4288V31.8571H56.5716V30.7142Z" fill="#454454"/>
<path d="M41.1429 18.1428H96C96.6286 18.1428 97.1429 18.6571 97.1429 19.2857V22.7143H40V19.2857C40 18.6571 40.5143 18.1428 41.1429 18.1428Z" fill="#E8E5E5"/>
<path d="M44.5714 21C44.887 21 45.1429 20.7442 45.1429 20.4286C45.1429 20.113 44.887 19.8572 44.5714 19.8572C44.2558 19.8572 44 20.113 44 20.4286C44 20.7442 44.2558 21 44.5714 21Z" fill="#FDAD5F"/>
<path d="M46.8571 21C47.1727 21 47.4285 20.7442 47.4285 20.4286C47.4285 20.113 47.1727 19.8572 46.8571 19.8572C46.5415 19.8572 46.2856 20.113 46.2856 20.4286C46.2856 20.7442 46.5415 21 46.8571 21Z" fill="#2F5A53"/>
<path d="M42.2858 21C42.6014 21 42.8572 20.7442 42.8572 20.4286C42.8572 20.113 42.6014 19.8572 42.2858 19.8572C41.9702 19.8572 41.7144 20.113 41.7144 20.4286C41.7144 20.7442 41.9702 21 42.2858 21Z" fill="#B00D23"/>
<path d="M59.0856 40.5429L62.457 43.8572C62.9141 44.3143 62.9141 45 62.457 45.4572C61.9998 45.9143 61.3141 45.9143 60.857 45.4572L56.7427 41.4C56.3427 41 56.2856 40.3143 56.6856 39.8572L60.7998 34.9429C61.1998 34.4858 61.9427 34.3715 62.3998 34.8286C62.857 35.2286 62.9713 35.9715 62.5141 36.4286L59.0856 40.5429Z" fill="white"/>
<path d="M75.0283 43.8572C74.5712 44.3143 74.5712 45 75.0283 45.4572C75.4855 45.9143 76.1712 45.9143 76.6283 45.4572L80.7426 41.4C81.1426 41 81.1998 40.3143 80.7998 39.8572L76.6855 34.9429C76.2855 34.4858 75.5426 34.3715 75.0855 34.8286C74.6283 35.2286 74.514 35.9715 74.9712 36.4286L78.3998 40.5429L75.0283 43.8572Z" fill="white"/>
<path d="M69.8282 34.9427C70.114 34.3713 70.7997 34.1427 71.3711 34.4284C71.9425 34.7141 72.1711 35.3999 71.8854 35.9713L67.1997 45.7999C66.914 46.3713 66.2282 46.5999 65.6568 46.3141C65.0854 46.0284 64.8568 45.3427 65.1425 44.7713L69.8282 34.9427Z" fill="white"/>
<path opacity="0.1" d="M48.5714 14.1428H20V48.4285H48.5714V14.1428Z" fill="black"/>
<path d="M48.5714 12.4287H20V46.7144H48.5714V12.4287Z" fill="#EFEFEF"/>
<path d="M45.7141 20.4287H22.8569V46.7144H45.7141V20.4287Z" fill="white"/>
<path d="M45.7141 19.2859H22.8569V20.4287H45.7141V19.2859Z" fill="black" fill-opacity="0.1"/>
<path d="M25.6001 26.0286V23.7429H42.9715V26.0286H25.6001Z" fill="#7B7B7B"/>
<path d="M25.6001 29.4573V28.3145H37.2001V29.4573H25.6001Z" fill="#CCCCCC"/>
<path d="M42.8572 32.4287H25.7144V39.2859H42.8572V32.4287Z" fill="#B00D23"/>
<path d="M21.1429 12.4287H47.4286C48.0571 12.4287 48.5714 12.943 48.5714 13.5716V17.0001H20V13.5716C20 12.943 20.5143 12.4287 21.1429 12.4287Z" fill="#E8E5E5"/>
<path d="M24.5714 15.2857C24.887 15.2857 25.1429 15.0298 25.1429 14.7143C25.1429 14.3987 24.887 14.1428 24.5714 14.1428C24.2558 14.1428 24 14.3987 24 14.7143C24 15.0298 24.2558 15.2857 24.5714 15.2857Z" fill="#FDAD5F"/>
<path d="M26.8571 15.2857C27.1727 15.2857 27.4285 15.0298 27.4285 14.7143C27.4285 14.3987 27.1727 14.1428 26.8571 14.1428C26.5415 14.1428 26.2856 14.3987 26.2856 14.7143C26.2856 15.0298 26.5415 15.2857 26.8571 15.2857Z" fill="#2F5A53"/>
<path d="M22.2858 15.2857C22.6014 15.2857 22.8572 15.0298 22.8572 14.7143C22.8572 14.3987 22.6014 14.1428 22.2858 14.1428C21.9702 14.1428 21.7144 14.3987 21.7144 14.7143C21.7144 15.0298 21.9702 15.2857 22.2858 15.2857Z" fill="#B00D23"/>
</g>
</svg>
