<svg width="34" height="38" viewBox="0 0 34 38" fill="none" xmlns="http://www.w3.org/2000/svg">
<g opacity="0.3">
<path d="M28.1598 5.09448C30.1857 5.71575 32.1035 6.0399 33.8593 6.0399C33.9133 10.4968 33.9133 16.3044 33.8593 23.4625C33.076 25.6775 31.9955 27.6763 30.6179 29.4861C29.2403 29.3781 28.1328 28.2166 28.1328 26.785V5.09448H28.1598Z" fill="black" fill-opacity="0.1"/>
<path d="M15.5723 0.286621C15.5723 1.79928 15.5723 14.3328 15.5723 37.8871C7.60382 35.0778 2.41756 30.2697 0.0405177 23.4627C-0.0135059 16.3046 -0.0135059 10.4971 0.0405177 6.04013C4.38942 6.04013 9.57568 4.1223 15.5723 0.286621ZM15.5993 0.286621C21.6229 4.1223 26.8092 6.04013 31.1851 6.04013C31.2391 10.4971 31.2391 16.3046 31.1851 23.4627C28.7811 30.2697 23.5948 35.0778 15.5993 37.86C15.5993 14.5759 15.5993 2.04239 15.5993 0.286621Z" fill="url(#paint0_linear)"/>
<path d="M15.5996 0.286621C21.6232 4.1223 26.8095 6.04013 31.1854 6.04013C31.2394 10.4971 31.2394 16.3046 31.1854 23.4627C28.7814 30.2697 23.5951 35.0778 15.5996 37.86C15.5996 14.5759 15.5996 2.04239 15.5996 0.286621Z" fill="black" fill-opacity="0.06"/>
<path d="M15.5722 3.0686C15.5722 4.36517 15.5722 15.0348 15.5722 35.0506C8.76522 32.6735 4.3623 28.5948 2.33642 22.8142C2.28239 16.7096 2.28239 11.7664 2.33642 7.98475C6.06404 7.98475 10.467 6.36404 15.5722 3.0686ZM15.5992 3.09562C20.7315 6.36404 25.1344 7.98475 28.835 7.98475C28.889 11.7664 28.889 16.7096 28.835 22.8142C26.8091 28.5948 22.3792 32.6735 15.5992 35.0776C15.5992 15.2509 15.5992 4.60828 15.5992 3.09562Z" fill="#CCCCCC"/>
<path d="M15.5724 4.06812C15.5724 5.28365 15.5724 15.305 15.5724 34.0782C9.19761 31.8362 5.03779 28.0006 3.14696 22.5712C3.09294 16.8447 3.09294 12.1987 3.14696 8.66012C6.6585 8.66012 10.7913 7.12045 15.5724 4.06812ZM15.5994 4.06812C20.4075 7.14746 24.5673 8.66012 28.0248 8.66012C28.0789 12.2257 28.0789 16.8447 28.0248 22.5712C26.107 28.0006 21.9742 31.8362 15.5994 34.0782C15.5994 15.4941 15.5994 5.47273 15.5994 4.06812Z" fill="#497E76"/>
<path d="M15.5996 4.06812C20.4077 7.14746 24.5675 8.66012 28.025 8.66012C28.0791 12.2257 28.0791 16.8447 28.025 22.5712C26.1072 28.0006 21.9744 31.8362 15.5996 34.0782C15.5996 15.4941 15.5996 5.47273 15.5996 4.06812Z" fill="black" fill-opacity="0.1"/>
<path d="M11.1966 18.1681L9.79199 19.1135L15.5995 23.7866L22.8387 14.7647L21.6232 14.0894L15.1403 20.5182L11.1966 18.1681Z" fill="#2F5A53"/>
</g>
<defs>
<linearGradient id="paint0_linear" x1="5.66334" y1="0.299916" x2="34.5472" y2="30.5" gradientUnits="userSpaceOnUse">
<stop stop-color="#FAFAFA"/>
<stop offset="1" stop-color="#F2F2F2"/>
</linearGradient>
</defs>
</svg>
