<svg width="18" height="16" viewBox="0 0 18 16" fill="none" xmlns="http://www.w3.org/2000/svg">
<path d="M16.7816 6.80049L9.55625 0.21676C9.23911 -0.0722639 8.76086 -0.0722324 8.44385 0.216729L1.21843 6.80052C0.964387 7.03202 0.880469 7.3887 1.00458 7.70918C1.12873 8.02966 1.431 8.23671 1.77469 8.23671H2.92871V14.8331C2.92871 15.0947 3.14076 15.3067 3.4023 15.3067H7.3627C7.62424 15.3067 7.8363 15.0947 7.8363 14.8331V10.828H10.1639V14.8332C10.1639 15.0947 10.376 15.3067 10.6375 15.3067H14.5977C14.8592 15.3067 15.0713 15.0947 15.0713 14.8332V8.23671H16.2255C16.5692 8.23671 16.8715 8.02962 16.9956 7.70918C17.1196 7.38867 17.0357 7.03202 16.7816 6.80049Z" fill="white"/>
</svg>
