<svg width="92" height="75" viewBox="0 0 92 75" fill="none" xmlns="http://www.w3.org/2000/svg">
<g opacity="0.2">
<path d="M3.21249 0.927979H88.9209C90.6227 0.927979 91.9733 2.30558 91.9733 3.98031V62.677C91.9733 64.3787 90.5957 65.7293 88.9209 65.7293H3.21249C1.53776 65.7563 0.160156 64.3787 0.160156 62.704V3.98031C0.160156 2.30558 1.53776 0.927979 3.21249 0.927979Z" fill="url(#paint0_linear)"/>
<path d="M2.86134 0.927979H89.2991C90.7847 0.927979 92.0003 2.14351 92.0003 3.62916V54.9516H0.160156V3.62916C0.160156 2.14351 1.37569 0.927979 2.86134 0.927979Z" fill="#292F36"/>
<path d="M4.75215 3.62915H87.4083C88.4617 3.62915 89.2991 4.46652 89.2991 5.51998V52.2504H2.86133V5.51998C2.86133 4.46652 3.69869 3.62915 4.75215 3.62915Z" fill="#13191F"/>
<path d="M4.75235 4.43945H87.5435C88.1378 4.43945 88.624 4.92567 88.624 5.51993V51.44H3.67188V5.51993C3.67188 4.92567 4.15809 4.43945 4.75235 4.43945Z" fill="#2F5A53"/>
<path opacity="0.1" d="M52.2931 9.51782H9.07422V39.8251H52.2931V9.51782Z" fill="black"/>
<path d="M52.2931 8.22119H9.07422V38.5284H52.2931V8.22119Z" fill="#EFEFEF"/>
<path d="M50.1323 14.272H11.2354V38.5286H50.1323V14.272Z" fill="white"/>
<path d="M29.603 26.9945V36.1515H47.5389V27.1296H45.8911L43.9733 25.752L41.6503 27.8048L37.8686 28.8853L36.0588 26.6704L34.087 28.8853L31.926 27.2106L29.603 26.9945Z" fill="#FDAD5F"/>
<path d="M29.603 30.8033V36.1516H47.5389V28.5613L45.8911 30.9383L43.9733 29.5607L41.6503 31.6136L37.8686 32.6941L36.0588 29.7498L34.087 31.9918L31.926 30.317L29.603 30.8033Z" fill="#6EC2E8"/>
<path d="M29.603 32.2616V36.1513H47.5389V30.5059L45.8911 32.8559L43.9733 31.5053L41.6503 33.5582L37.8686 33.9093L36.0588 32.1806L34.087 34.3956L31.926 32.7208L29.603 32.2616Z" fill="#E86E6E"/>
<path d="M50.1323 13.4075H11.2354V14.2718H50.1323V13.4075Z" fill="black" fill-opacity="0.1"/>
<path d="M14.5845 19.404V17.6753H35.2755V19.404H14.5845Z" fill="#7B7B7B"/>
<path d="M14.5845 24.1582V22.4294H26.6317V24.1582H14.5845Z" fill="#7B7B7B"/>
<path d="M14.5845 27.2107V25.4819H26.6317V27.2107H14.5845Z" fill="#7B7B7B"/>
<path d="M14.5845 30.2358V28.5071H22.3098V30.2358H14.5845Z" fill="#7B7B7B"/>
<path d="M9.9386 8.22119H51.4287C51.9149 8.22119 52.2931 8.59936 52.2931 9.08557V11.6787H9.07422V9.08557C9.07422 8.59936 9.45238 8.22119 9.9386 8.22119Z" fill="#E8E5E5"/>
<path d="M12.5318 10.3822C12.7705 10.3822 12.964 10.1887 12.964 9.95001C12.964 9.71132 12.7705 9.51782 12.5318 9.51782C12.2931 9.51782 12.0996 9.71132 12.0996 9.95001C12.0996 10.1887 12.2931 10.3822 12.5318 10.3822Z" fill="#FDAD5F"/>
<path d="M14.2603 10.3822C14.499 10.3822 14.6925 10.1887 14.6925 9.95001C14.6925 9.71132 14.499 9.51782 14.2603 9.51782C14.0216 9.51782 13.8281 9.71132 13.8281 9.95001C13.8281 10.1887 14.0216 10.3822 14.2603 10.3822Z" fill="#588CBE"/>
<path d="M10.8028 10.3822C11.0415 10.3822 11.235 10.1887 11.235 9.95001C11.235 9.71132 11.0415 9.51782 10.8028 9.51782C10.5641 9.51782 10.3706 9.71132 10.3706 9.95001C10.3706 10.1887 10.5641 10.3822 10.8028 10.3822Z" fill="#E86E6E"/>
<path opacity="0.1" d="M82.546 12.219H60.9365V38.2043H82.546V12.219Z" fill="black"/>
<path d="M82.546 10.9224H60.9365V36.9077H82.546V10.9224Z" fill="#EFEFEF"/>
<path d="M80.3852 16.9731H63.0977V36.8808H80.3852V16.9731Z" fill="white"/>
<path d="M71.4981 23.0776V28.2369H76.3332C76.2522 30.9111 74.0372 33.072 71.3361 33.072C68.5808 33.072 66.3389 30.83 66.3389 28.0748C66.3389 25.3196 68.5808 23.0776 71.3361 23.0776C71.3901 23.0776 71.4441 23.0776 71.4981 23.0776Z" fill="#E86E6E"/>
<path d="M71.7681 23.1047C73.2537 23.2398 74.5503 23.9961 75.3876 25.1306L71.7681 27.7238V23.1047Z" fill="#6EC2E8"/>
<path d="M75.5501 25.3738C76.0363 26.1301 76.3064 26.9945 76.3334 27.9399H71.9575L75.5501 25.3738Z" fill="#FDAD5F"/>
<path d="M80.3852 16.1086H63.0977V16.973H80.3852V16.1086Z" fill="black" fill-opacity="0.1"/>
<path d="M66.1768 21.0789V19.3501H70.8768V21.0789H66.1768Z" fill="#7B7B7B"/>
<path d="M61.8009 10.9224H81.6816C82.1678 10.9224 82.546 11.3005 82.546 11.7867V14.3799H60.9365V11.7867C60.9365 11.3005 61.3147 10.9224 61.8009 10.9224Z" fill="#E8E5E5"/>
<path d="M64.3941 13.0834C64.6328 13.0834 64.8263 12.8899 64.8263 12.6512C64.8263 12.4125 64.6328 12.219 64.3941 12.219C64.1554 12.219 63.9619 12.4125 63.9619 12.6512C63.9619 12.8899 64.1554 13.0834 64.3941 13.0834Z" fill="#FDAD5F"/>
<path d="M66.1226 13.0834C66.3613 13.0834 66.5548 12.8899 66.5548 12.6512C66.5548 12.4125 66.3613 12.219 66.1226 12.219C65.8839 12.219 65.6904 12.4125 65.6904 12.6512C65.6904 12.8899 65.8839 13.0834 66.1226 13.0834Z" fill="#588CBE"/>
<path d="M62.6651 13.0834C62.9038 13.0834 63.0973 12.8899 63.0973 12.6512C63.0973 12.4125 62.9038 12.219 62.6651 12.219C62.4264 12.219 62.2329 12.4125 62.2329 12.6512C62.2329 12.8899 62.4264 13.0834 62.6651 13.0834Z" fill="#E86E6E"/>
<path opacity="0.1" d="M49.9161 36.5295H69.7968C70.283 36.5295 70.6612 36.9077 70.6612 37.3939V48.1446C70.6612 48.6308 70.283 49.009 69.7968 49.009H49.9161C49.4299 49.009 49.0518 48.6308 49.0518 48.1446V37.3939C49.0518 36.9077 49.4299 36.5295 49.9161 36.5295Z" fill="black"/>
<path d="M49.9171 35.2329H69.7978C70.284 35.2329 70.6622 35.6111 70.6622 36.0973V46.848C70.6622 47.3342 70.284 47.7124 69.7978 47.7124H49.9171C49.4309 47.7124 49.0527 47.3342 49.0527 46.848V36.0973C49.0527 35.6111 49.4309 35.2329 49.9171 35.2329Z" fill="#EFEFEF"/>
<path d="M68.5004 41.2837H51.2129V47.6855H68.5004V41.2837Z" fill="white"/>
<path d="M53.914 45.4976H52.8335V47.6585H53.914V45.4976Z" fill="#E86E6E"/>
<path d="M60.3969 45.4976H59.3164V47.6585H60.3969V45.4976Z" fill="#E86E6E"/>
<path d="M56.0746 44.417H54.9941V47.6584H56.0746V44.417Z" fill="#FDAD5F"/>
<path d="M67.1498 44.417H66.0693V47.6584H67.1498V44.417Z" fill="#E86E6E"/>
<path d="M62.5575 44.417H61.4771V47.6584H62.5575V44.417Z" fill="#FDAD5F"/>
<path d="M58.2357 46.5781H57.1553V47.6586H58.2357V46.5781Z" fill="#6EC2E8"/>
<path d="M64.7187 42.7964H63.6382V47.6585H64.7187V42.7964Z" fill="#6EC2E8"/>
<path d="M68.5004 40.4192H51.2129V41.2836H68.5004V40.4192Z" fill="black" fill-opacity="0.1"/>
<path d="M49.9171 35.2329H69.7978C70.284 35.2329 70.6622 35.6111 70.6622 36.0973V38.6904H49.0527V36.0973C49.0527 35.6111 49.4309 35.2329 49.9171 35.2329Z" fill="#E8E5E5"/>
<path d="M52.5093 37.3939C52.748 37.3939 52.9415 37.2004 52.9415 36.9617C52.9415 36.723 52.748 36.5295 52.5093 36.5295C52.2706 36.5295 52.0771 36.723 52.0771 36.9617C52.0771 37.2004 52.2706 37.3939 52.5093 37.3939Z" fill="#FDAD5F"/>
<path d="M54.2379 37.3939C54.4765 37.3939 54.67 37.2004 54.67 36.9617C54.67 36.723 54.4765 36.5295 54.2379 36.5295C53.9992 36.5295 53.8057 36.723 53.8057 36.9617C53.8057 37.2004 53.9992 37.3939 54.2379 37.3939Z" fill="#588CBE"/>
<path d="M50.7808 37.3939C51.0195 37.3939 51.213 37.2004 51.213 36.9617C51.213 36.723 51.0195 36.5295 50.7808 36.5295C50.5421 36.5295 50.3486 36.723 50.3486 36.9617C50.3486 37.2004 50.5421 37.3939 50.7808 37.3939Z" fill="#E86E6E"/>
<path d="M54.1836 65.7563H37.9766V71.9691H54.1836V65.7563Z" fill="#B6B6B6"/>
<path d="M62.2872 71.969H29.873V74.1299H62.2872V71.969Z" fill="#D6D4D4"/>
<path opacity="0.1" d="M54.1836 65.7563H37.9766V67.9173H54.1836V65.7563Z" fill="black"/>
<path d="M46.2153 62.5149C47.3342 62.5149 48.2412 61.6079 48.2412 60.489C48.2412 59.3702 47.3342 58.4631 46.2153 58.4631C45.0965 58.4631 44.1895 59.3702 44.1895 60.489C44.1895 61.6079 45.0965 62.5149 46.2153 62.5149Z" fill="#C1C1C1"/>
</g>
<defs>
<linearGradient id="paint0_linear" x1="6.3383" y1="7.91123" x2="56.7683" y2="72.6703" gradientUnits="userSpaceOnUse">
<stop stop-color="#B6B6B6"/>
<stop offset="1" stop-color="#D6D4D4"/>
</linearGradient>
</defs>
</svg>
