<svg width="34" height="33" viewBox="0 0 34 33" fill="none" xmlns="http://www.w3.org/2000/svg">
<circle cx="17.1973" cy="16.4395" r="16.4395" fill="#00A9E7"/>
<path d="M25.6785 17.3175C25.7346 16.8691 25.7906 16.4768 25.7906 16.0285C25.7906 11.545 22.1478 7.84612 17.6083 7.84612C17.1599 7.84612 16.7676 7.90216 16.3193 7.9582C15.5907 7.5659 14.8061 7.39777 14.0215 7.39777C11.2193 7.39777 8.97754 9.63951 8.97754 12.4417C8.97754 13.2263 9.14567 14.0109 9.53798 14.7395C9.48193 15.1878 9.42589 15.5801 9.42589 16.0285C9.42589 20.512 13.0687 24.2109 17.6083 24.2109C18.0566 24.2109 18.4489 24.1548 18.8973 24.0988C19.6258 24.435 20.4104 24.6592 21.1951 24.6592C23.9972 24.6592 26.239 22.4175 26.239 19.6153C26.239 18.8307 26.0148 18.0461 25.6785 17.3175ZM21.0269 18.9988C20.8588 19.3351 20.6346 19.6153 20.2984 19.8395C19.9621 20.0636 19.6258 20.2318 19.1775 20.3439C18.7291 20.4559 18.2247 20.512 17.6643 20.512C16.4874 20.512 15.5346 20.2318 14.8621 19.7274C14.4698 19.3911 14.1336 18.9988 13.9654 18.4944C13.7413 18.0461 14.1336 17.4856 14.694 17.4856H14.8621C15.1984 17.4856 15.5346 17.7098 15.6467 17.99C15.7588 18.2702 15.927 18.4944 16.1511 18.6625C16.4874 18.9428 16.9918 19.0548 17.6083 19.0548C18.1687 19.0548 18.617 18.9428 18.9533 18.7746C19.2896 18.6065 19.4577 18.2702 19.4577 17.934C19.4577 17.7658 19.4017 17.6538 19.3456 17.5417C19.2896 17.4296 19.1214 17.3175 19.0094 17.2615C18.8412 17.1494 18.6731 17.0933 18.3929 17.0373C18.1687 16.9812 17.8885 16.8691 17.5522 16.8131L17.216 16.701C16.8237 16.5889 16.3753 16.4768 16.039 16.3648C15.6467 16.2527 15.3105 16.0845 15.0303 15.9164C14.75 15.7483 14.5259 15.5241 14.3577 15.1878C14.1896 14.9076 14.1336 14.5153 14.1336 14.067C14.1336 13.6186 14.2456 13.2263 14.4138 12.89C14.5819 12.5538 14.8621 12.2736 15.1423 12.1054C15.4786 11.8813 15.8149 11.7131 16.2632 11.6571C16.6555 11.545 17.1039 11.489 17.6083 11.489C18.1687 11.489 18.617 11.545 19.0654 11.6571C19.5137 11.7692 19.85 11.9373 20.1863 12.2175C20.5225 12.4417 20.7467 12.7219 20.9148 13.1142C21.1951 13.6186 20.8028 14.2911 20.1863 14.2911H20.0181C19.6819 14.2911 19.4017 14.123 19.2335 13.8428C19.1214 13.6747 19.0094 13.5065 18.8412 13.3384C18.561 13.1142 18.1127 13.0021 17.6083 13.0021C17.1039 13.0021 16.7116 13.1142 16.4313 13.2824C16.1511 13.4505 16.039 13.7307 16.039 14.0109C16.039 14.179 16.0951 14.2911 16.1511 14.4032C16.2072 14.5153 16.3193 14.6274 16.4874 14.6834C16.6555 14.7395 16.8237 14.8516 17.0478 14.9076C17.272 14.9637 17.5522 15.0197 17.8885 15.1318C18.2247 15.1878 18.505 15.2999 18.8412 15.356C19.1214 15.412 19.4017 15.5241 19.6819 15.5801C19.9621 15.6922 20.1863 15.8043 20.4104 15.9164C20.6346 16.0285 20.8028 16.1966 20.9709 16.3648C21.139 16.5329 21.2511 16.7571 21.3071 16.9812C21.4192 17.2054 21.4192 17.5417 21.4192 17.8779C21.3071 18.2702 21.1951 18.6625 21.0269 18.9988Z" fill="white"/>
</svg>
