<svg width="17" height="17" viewBox="0 0 17 17" fill="none" xmlns="http://www.w3.org/2000/svg">
<path d="M4.93915 9.67911C5.41689 9.67911 5.87867 9.64825 6.31565 9.59081V4.80115C5.87871 4.74375 5.41689 4.71289 4.93915 4.71289C2.21134 4.71289 0 5.71583 0 6.95306V7.43889C0 8.67609 2.21134 9.67911 4.93915 9.67911Z" fill="white"/>
<path d="M4.93915 12.1799C5.41689 12.1799 5.87867 12.1491 6.31565 12.0917V10.6878C5.87859 10.7452 5.41702 10.7765 4.93915 10.7765C2.55807 10.7765 0.570698 10.0122 0.103879 8.99512C0.0358961 9.14327 0 9.29668 0 9.45394V9.93977C0 11.177 2.21134 12.1799 4.93915 12.1799Z" fill="white"/>
<path d="M6.31565 13.298V13.1889C5.87859 13.2463 5.41702 13.2776 4.93915 13.2776C2.55807 13.2776 0.570698 12.5133 0.103879 11.4962C0.0358961 11.6443 0 11.7977 0 11.955V12.4408C0 13.6781 2.21134 14.681 4.93915 14.681C5.48466 14.681 6.00935 14.6408 6.5 14.5667C6.37838 14.318 6.31565 14.0556 6.31565 13.7838V13.298Z" fill="white"/>
<path d="M12.061 0.918701C9.33317 0.918701 7.12183 1.92164 7.12183 3.15887V3.6447C7.12183 4.88193 9.33317 5.88487 12.061 5.88487C14.7888 5.88487 17.0001 4.88193 17.0001 3.6447V3.15887C17.0001 1.92164 14.7888 0.918701 12.061 0.918701Z" fill="white"/>
<path d="M12.061 6.9824C9.67989 6.9824 7.69252 6.21821 7.2257 5.20105C7.15772 5.34916 7.12183 5.50257 7.12183 5.65987V6.1457C7.12183 7.38293 9.33317 8.38586 12.061 8.38586C14.7888 8.38586 17.0001 7.38293 17.0001 6.1457V5.65987C17.0001 5.50257 16.9642 5.34916 16.8963 5.20105C16.4294 6.21821 14.4421 6.9824 12.061 6.9824Z" fill="white"/>
<path d="M12.061 9.48349C9.67989 9.48349 7.69252 8.71926 7.2257 7.70215C7.15772 7.85026 7.12183 8.00367 7.12183 8.16097V8.64679C7.12183 9.88407 9.33317 10.887 12.061 10.887C14.7888 10.887 17.0001 9.88407 17.0001 8.64679V8.16097C17.0001 8.00367 16.9642 7.85026 16.8963 7.70215C16.4294 8.7193 14.4421 9.48349 12.061 9.48349Z" fill="white"/>
<path d="M12.061 12.1196C9.67989 12.1196 7.69252 11.3554 7.2257 10.3383C7.15772 10.4864 7.12183 10.6398 7.12183 10.797V11.2829C7.12183 12.5201 9.33317 13.5231 12.061 13.5231C14.7888 13.5231 17.0001 12.5201 17.0001 11.2829V10.797C17.0001 10.6398 16.9642 10.4863 16.8963 10.3383C16.4294 11.3553 14.4421 12.1196 12.061 12.1196Z" fill="white"/>
<path d="M12.061 14.6205C9.67989 14.6205 7.69252 13.8563 7.2257 12.8392C7.15772 12.9873 7.12183 13.1408 7.12183 13.2979V13.7838C7.12183 15.021 9.33317 16.0239 12.061 16.0239C14.7888 16.0239 17.0001 15.021 17.0001 13.7838V13.2979C17.0001 13.1406 16.9642 12.9872 16.8963 12.8391C16.4294 13.8562 14.4421 14.6205 12.061 14.6205Z" fill="white"/>
</svg>
