<svg width="16" height="15" viewBox="0 0 16 15" fill="none" xmlns="http://www.w3.org/2000/svg">
<path d="M16 4.62158C16 3.57752 16 2.84711 16 2.77783C16 2.00243 15.3692 1.37158 14.5938 1.37158H14.4063V3.09033C14.4063 3.34921 14.1964 3.55908 13.9375 3.55908C13.6786 3.55908 13.4688 3.34921 13.4688 3.09033C13.4688 2.56411 13.4688 1.11433 13.4688 0.590332C13.4688 0.331457 13.2589 0.121582 13 0.121582C12.7411 0.121582 12.5313 0.331457 12.5313 0.590332V1.37158H9.40626V3.09033C9.40626 3.34921 9.19638 3.55908 8.93751 3.55908C8.67863 3.55908 8.46875 3.34921 8.46875 3.09033C8.46875 2.56411 8.46875 1.11433 8.46875 0.590332C8.46875 0.331457 8.25888 0.121582 8 0.121582C7.74113 0.121582 7.53125 0.331457 7.53125 0.590332V1.37158H4.40625V3.09033C4.40625 3.34921 4.19638 3.55908 3.9375 3.55908C3.67863 3.55908 3.46875 3.34921 3.46875 3.09033C3.46875 2.56411 3.46875 1.11433 3.46875 0.590332C3.46875 0.331457 3.25888 0.121582 3 0.121582C2.74113 0.121582 2.53125 0.331457 2.53125 0.590332V1.37158H1.40625C0.630844 1.37158 0 2.00243 0 2.77783V4.62158H16Z" fill="white"/>
<path d="M0 5.5592V13.153C0 13.9284 0.630844 14.5592 1.40625 14.5592H14.5938C15.3692 14.5592 16 13.9284 16 13.153C16 12.9522 16 8.56508 16 5.5592C15.7083 5.5592 0.161375 5.5592 0 5.5592ZM4.5 12.0592H3.5C3.24113 12.0592 3.03125 11.8493 3.03125 11.5905C3.03125 11.3316 3.24113 11.1217 3.5 11.1217H4.5C4.75888 11.1217 4.96875 11.3316 4.96875 11.5905C4.96875 11.8493 4.75888 12.0592 4.5 12.0592ZM4.5 10.0592H3.5C3.24113 10.0592 3.03125 9.84933 3.03125 9.59046C3.03125 9.33158 3.24113 9.12171 3.5 9.12171H4.5C4.75888 9.12171 4.96875 9.33158 4.96875 9.59046C4.96875 9.84933 4.75888 10.0592 4.5 10.0592ZM4.5 8.05921H3.5C3.24113 8.05921 3.03125 7.84933 3.03125 7.59046C3.03125 7.33158 3.24113 7.12171 3.5 7.12171H4.5C4.75888 7.12171 4.96875 7.33158 4.96875 7.59046C4.96875 7.84933 4.75888 8.05921 4.5 8.05921ZM8.5 12.0592H7.5C7.24113 12.0592 7.03125 11.8493 7.03125 11.5905C7.03125 11.3316 7.24113 11.1217 7.5 11.1217H8.5C8.75888 11.1217 8.96876 11.3316 8.96876 11.5905C8.96876 11.8493 8.75888 12.0592 8.5 12.0592ZM8.5 10.0592H7.5C7.24113 10.0592 7.03125 9.84933 7.03125 9.59046C7.03125 9.33158 7.24113 9.12171 7.5 9.12171H8.5C8.75888 9.12171 8.96876 9.33158 8.96876 9.59046C8.96876 9.84933 8.75888 10.0592 8.5 10.0592ZM8.5 8.05921H7.5C7.24113 8.05921 7.03125 7.84933 7.03125 7.59046C7.03125 7.33158 7.24113 7.12171 7.5 7.12171H8.5C8.75888 7.12171 8.96876 7.33158 8.96876 7.59046C8.96876 7.84933 8.75888 8.05921 8.5 8.05921ZM12.5 12.0592H11.5C11.2411 12.0592 11.0313 11.8493 11.0313 11.5905C11.0313 11.3316 11.2411 11.1217 11.5 11.1217H12.5C12.7589 11.1217 12.9688 11.3316 12.9688 11.5905C12.9688 11.8493 12.7589 12.0592 12.5 12.0592ZM12.5 10.0592H11.5C11.2411 10.0592 11.0313 9.84933 11.0313 9.59046C11.0313 9.33158 11.2411 9.12171 11.5 9.12171H12.5C12.7589 9.12171 12.9688 9.33158 12.9688 9.59046C12.9688 9.84933 12.7589 10.0592 12.5 10.0592ZM12.5 8.05921H11.5C11.2411 8.05921 11.0313 7.84933 11.0313 7.59046C11.0313 7.33158 11.2411 7.12171 11.5 7.12171H12.5C12.7589 7.12171 12.9688 7.33158 12.9688 7.59046C12.9688 7.84933 12.7589 8.05921 12.5 8.05921Z" fill="white"/>
</svg>
