<svg width="16" height="14" viewBox="0 0 16 14" fill="none" xmlns="http://www.w3.org/2000/svg">
<path d="M13.6903 7.50687H12.4529C12.579 7.83428 12.6479 8.18762 12.6479 8.5559V12.9901C12.6479 13.1436 12.6197 13.291 12.5684 13.4281H14.6141C15.3783 13.4281 15.9999 12.8386 15.9999 12.1141V9.69682C15.9999 8.48929 14.9638 7.50687 13.6903 7.50687Z" fill="#8E8E92"/>
<path d="M3.35204 8.55593C3.35204 8.18762 3.42095 7.83431 3.54707 7.5069H2.30969C1.03613 7.5069 0 8.48932 0 9.69688V12.1142C0 12.8387 0.621658 13.4281 1.38582 13.4281H3.43151C3.38023 13.291 3.35204 13.1437 3.35204 12.9901V8.55593Z" fill="#8E8E92"/>
<path d="M9.41439 6.36595H6.58557C5.31201 6.36595 4.27588 7.34838 4.27588 8.55593V12.9901C4.27588 13.232 4.48269 13.4281 4.73782 13.4281H11.2621C11.5173 13.4281 11.7241 13.232 11.7241 12.9901V8.55593C11.7241 7.34838 10.688 6.36595 9.41439 6.36595Z" fill="#8E8E92"/>
<path d="M8.00011 0.559143C6.46848 0.559143 5.22241 1.74062 5.22241 3.1929C5.22241 4.17796 5.79582 5.03828 6.64263 5.48996C7.04429 5.70419 7.50735 5.82662 8.00011 5.82662C8.49286 5.82662 8.95592 5.70419 9.35758 5.48996C10.2044 5.03828 10.7778 4.17793 10.7778 3.1929C10.7778 1.74065 9.53173 0.559143 8.00011 0.559143Z" fill="#8E8E92"/>
<path d="M3.12251 3.01399C1.97704 3.01399 1.04517 3.89757 1.04517 4.98367C1.04517 6.06977 1.97704 6.95335 3.12251 6.95335C3.41308 6.95335 3.68977 6.89628 3.94111 6.7937C4.37567 6.61631 4.73399 6.30228 4.95571 5.90894C5.11133 5.63287 5.19986 5.31793 5.19986 4.98367C5.19986 3.8976 4.26799 3.01399 3.12251 3.01399Z" fill="#8E8E92"/>
<path d="M12.8776 3.01399C11.7322 3.01399 10.8003 3.89757 10.8003 4.98367C10.8003 5.31796 10.8888 5.6329 11.0445 5.90894C11.2662 6.30231 11.6245 6.61634 12.059 6.7937C12.3104 6.89628 12.5871 6.95335 12.8776 6.95335C14.0231 6.95335 14.955 6.06977 14.955 4.98367C14.955 3.89757 14.0231 3.01399 12.8776 3.01399Z" fill="#8E8E92"/>
</svg>
