<svg width="33" height="33" viewBox="0 0 33 33" fill="none" xmlns="http://www.w3.org/2000/svg">
<circle cx="16.4395" cy="16.4395" r="16.4395" fill="#2F89CE"/>
<path d="M7.68597 16.747L11.4655 18.1563L12.9388 22.8967C13.0029 23.217 13.3873 23.281 13.6435 23.0888L15.7575 21.3592C15.9496 21.1671 16.2699 21.1671 16.5262 21.3592L20.3057 24.1138C20.5619 24.306 20.9463 24.1778 21.0103 23.8575L23.8289 10.4051C23.893 10.0848 23.5727 9.76449 23.2524 9.89261L7.68597 15.9142C7.30162 16.0423 7.30162 16.6188 7.68597 16.747ZM12.7467 17.4516L20.1775 12.9034C20.3057 12.8393 20.4338 13.0315 20.3057 13.0956L14.22 18.7969C14.0279 18.989 13.8357 19.2453 13.8357 19.5656L13.6435 21.103C13.6435 21.2952 13.3232 21.3592 13.2591 21.103L12.4904 18.2844C12.2982 17.9641 12.4264 17.5797 12.7467 17.4516Z" fill="white"/>
</svg>
