<svg width="34" height="33" viewBox="0 0 34 33" fill="none" xmlns="http://www.w3.org/2000/svg">
<circle cx="17.3184" cy="16.4395" r="16.4395" fill="#7C509A"/>
<path d="M22.4589 8.66847C19.326 8.07017 16.0725 8.07017 12.9395 8.66847C11.5538 8.96762 9.80656 10.6429 9.50532 11.9591C8.96307 14.5318 8.96307 17.1644 9.50532 19.7371C9.86681 21.0533 11.614 22.7286 12.9395 23.0277C12.9998 23.0277 13.06 23.0876 13.06 23.1474V26.9167C13.06 27.0962 13.301 27.2158 13.4215 27.0363L15.229 25.1816C15.229 25.1816 16.675 23.6859 16.916 23.4465C16.916 23.4465 16.9762 23.3867 17.0365 23.3867C18.844 23.4465 20.7117 23.267 22.5192 22.9679C23.9049 22.6687 25.6521 20.9935 25.9534 19.6772C26.4956 17.1045 26.4956 14.472 25.9534 11.8993C25.5919 10.6429 23.8447 8.96762 22.4589 8.66847ZM22.5192 19.9166C22.2179 20.5149 21.8564 20.9935 21.2539 21.2926C21.0732 21.3525 20.8924 21.4123 20.7117 21.4721C20.4707 21.4123 20.29 21.3525 20.1092 21.2926C18.1812 20.5149 16.3737 19.4379 14.9278 17.8823C14.1445 16.9849 13.4818 15.9678 12.9395 14.8908C12.6985 14.3523 12.4575 13.8737 12.2768 13.3352C12.096 12.8566 12.3973 12.3779 12.6985 12.019C12.9998 11.66 13.3613 11.4207 13.783 11.2412C14.0843 11.0617 14.3855 11.1813 14.6265 11.4207C15.1085 12.019 15.5905 12.6173 15.952 13.2754C16.193 13.6942 16.1327 14.1728 15.711 14.472C15.5905 14.5318 15.5303 14.5917 15.4098 14.7113C15.3495 14.7712 15.229 14.831 15.1688 14.9506C15.0483 15.1301 15.0483 15.3096 15.1085 15.4891C15.5905 16.8652 16.4942 17.9422 17.88 18.5405C18.121 18.6601 18.3017 18.7199 18.603 18.7199C19.0247 18.6601 19.2055 18.1815 19.5067 17.9422C19.808 17.7028 20.1695 17.7028 20.531 17.8823C20.8322 18.0618 21.1334 18.3011 21.4949 18.5405C21.7962 18.7798 22.0974 18.9593 22.3987 19.1986C22.5794 19.3182 22.6397 19.6174 22.5192 19.9166ZM19.9887 15.4293C19.8682 15.4293 19.9285 15.4293 19.9887 15.4293C19.7477 15.4293 19.6875 15.3096 19.6272 15.1301C19.6272 15.0105 19.6272 14.831 19.567 14.7113C19.5067 14.472 19.3862 14.2327 19.1452 14.0532C19.0247 13.9934 18.9042 13.9335 18.7837 13.8737C18.603 13.8139 18.4825 13.8139 18.3017 13.8139C18.121 13.754 18.0607 13.6344 18.0607 13.4549C18.0607 13.3352 18.2415 13.2156 18.362 13.2156C19.326 13.2754 20.049 13.8139 20.1695 14.9506C20.1695 15.0105 20.1695 15.1301 20.1695 15.19C20.1695 15.3096 20.1092 15.4293 19.9887 15.4293ZM19.3862 12.7968C19.085 12.6771 18.7837 12.5574 18.4222 12.4976C18.3017 12.4976 18.121 12.4378 18.0005 12.4378C17.8197 12.4378 17.6992 12.3181 17.7595 12.1386C17.7595 11.9591 17.88 11.8395 18.0607 11.8993C18.6632 11.9591 19.2055 12.0788 19.7477 12.3181C20.8322 12.8566 21.4347 13.754 21.6154 14.9506C21.6154 15.0105 21.6154 15.0703 21.6154 15.1301C21.6154 15.2498 21.6154 15.3695 21.6154 15.5489C21.6154 15.6088 21.6154 15.6686 21.6154 15.7284C21.5552 15.9678 21.1334 16.0276 21.0732 15.7284C21.0732 15.6686 21.0129 15.5489 21.0129 15.4891C21.0129 14.9506 20.8925 14.4122 20.6515 13.9335C20.29 13.3951 19.8682 13.0361 19.3862 12.7968ZM22.6397 16.3866C22.4589 16.3866 22.3384 16.2071 22.3384 16.0276C22.3384 15.6686 22.2782 15.3096 22.2179 14.9506C21.9769 13.0361 20.4105 11.4805 18.5427 11.1813C18.2415 11.1215 17.9402 11.1215 17.6992 11.0617C17.5185 11.0617 17.2775 11.0617 17.2172 10.8224C17.157 10.6429 17.3377 10.4634 17.5185 10.4634C17.5787 10.4634 17.639 10.4634 17.639 10.4634C20.1092 10.5232 17.7595 10.4634 17.639 10.4634C20.1695 10.5232 22.2782 12.1985 22.6999 14.7113C22.7602 15.1301 22.8204 15.5489 22.8204 16.0276C22.9409 16.2071 22.8204 16.3866 22.6397 16.3866Z" fill="white"/>
</svg>
