<svg width="34" height="33" viewBox="0 0 34 33" fill="none" xmlns="http://www.w3.org/2000/svg">
<circle cx="16.9551" cy="16.4395" r="16.4395" fill="#7294C7"/>
<path d="M25.0154 20.6441C25.0154 20.5759 24.9471 20.5759 24.9471 20.5076C24.6742 19.9617 24.06 19.2793 23.2411 18.5286C22.8316 18.1874 22.6269 17.9144 22.4904 17.7779C22.2857 17.505 22.2857 17.3002 22.3539 17.0273C22.4222 16.8225 22.6951 16.4813 23.1728 15.8671C23.4458 15.5259 23.5823 15.3212 23.787 15.1165C24.8106 13.7516 25.2883 12.8645 25.1519 12.455L25.0836 12.3868C25.0154 12.3185 24.9471 12.2503 24.8106 12.2503C24.6742 12.182 24.4694 12.182 24.2647 12.2503H21.6715C21.6032 12.2503 21.6032 12.2503 21.4668 12.2503C21.3985 12.2503 21.3303 12.2503 21.3303 12.2503H21.262H21.1938L21.1255 12.3185C21.0573 12.3868 21.0573 12.3868 21.0573 12.455C20.7843 13.2057 20.4431 13.8199 20.1019 14.5023C19.8972 14.8435 19.6924 15.1847 19.4877 15.4577C19.283 15.7307 19.1465 15.9354 19.01 16.0719C18.8735 16.2084 18.737 16.2766 18.6688 16.4131C18.6006 16.4813 18.4641 16.5496 18.4641 16.4813C18.3958 16.4813 18.3276 16.4813 18.3276 16.4131C18.2593 16.3448 18.1911 16.2766 18.1229 16.2084C18.0546 16.1401 18.0546 16.0036 17.9864 15.8671C17.9864 15.7307 17.9864 15.5942 17.9864 15.5259C17.9864 15.4577 17.9864 15.253 17.9864 15.1165C17.9864 14.9118 17.9864 14.7753 17.9864 14.707C17.9864 14.5023 17.9864 14.2293 17.9864 13.9564C17.9864 13.6834 17.9864 13.4787 17.9864 13.3422C17.9864 13.2057 17.9864 13.001 17.9864 12.8645C17.9864 12.6597 17.9864 12.5233 17.9864 12.455C17.9864 12.3868 17.9181 12.2503 17.9181 12.182C17.8499 12.1138 17.7816 12.0456 17.7134 11.9773C17.6452 11.9091 17.5087 11.9091 17.4404 11.8408C17.0992 11.7726 16.6898 11.7043 16.2121 11.7043C15.1202 11.7043 14.3695 11.7726 14.0966 11.9091C13.9601 11.9773 13.8236 12.0456 13.7553 12.182C13.6189 12.3185 13.6188 12.3868 13.6871 12.3868C14.0283 12.455 14.3013 12.5915 14.4378 12.7962L14.506 12.9327C14.5743 13.001 14.5742 13.1374 14.6425 13.3422C14.7107 13.5469 14.7107 13.7516 14.7107 14.0246C14.7107 14.434 14.7107 14.8435 14.7107 15.1165C14.7107 15.4577 14.6425 15.6624 14.6425 15.8671C14.6425 16.0719 14.5743 16.2084 14.506 16.2766C14.4378 16.4131 14.4378 16.4813 14.3695 16.4813C14.3695 16.4813 14.3695 16.5496 14.3013 16.5496C14.233 16.5496 14.1648 16.6178 14.0283 16.6178C13.9601 16.6178 13.8236 16.5496 13.7553 16.4813C13.6189 16.4131 13.4824 16.2766 13.4141 16.1401C13.2776 16.0036 13.1412 15.7989 13.0047 15.5259C12.8682 15.253 12.6634 14.98 12.527 14.5705L12.3905 14.2976C12.3222 14.1611 12.1858 13.8881 12.0493 13.5469C11.9128 13.2057 11.7763 12.9327 11.6398 12.5915C11.5716 12.455 11.5033 12.3868 11.4351 12.3185H11.3668C11.3668 12.3185 11.2986 12.2503 11.2304 12.2503C11.1621 12.2503 11.0939 12.182 11.0256 12.182H8.56889C8.29592 12.182 8.15944 12.2503 8.0912 12.3185L8.02295 12.3868C8.02295 12.3868 8.02295 12.455 8.02295 12.5233C8.02295 12.5915 8.02295 12.6597 8.0912 12.7962C8.43241 13.6151 8.84186 14.4341 9.25132 15.253C9.66078 16.0036 10.0702 16.6861 10.3432 17.1638C10.6844 17.6415 10.9574 18.1192 11.2986 18.5286C11.6398 18.9381 11.8445 19.211 11.9128 19.3475C12.0493 19.484 12.1175 19.5522 12.1857 19.6205L12.3905 19.8252C12.527 19.9617 12.7317 20.1664 13.0047 20.3712C13.2776 20.5759 13.6188 20.7806 13.9601 20.9853C14.3013 21.1901 14.7107 21.3266 15.1202 21.463C15.5979 21.5995 16.0073 21.6678 16.4168 21.5995H17.4404C17.6452 21.5995 17.7817 21.5313 17.9181 21.3948L17.9864 21.3266C17.9864 21.2583 18.0546 21.2583 18.0546 21.1901C18.0546 21.1218 18.0546 21.0536 18.0546 20.9171C18.0546 20.6441 18.0546 20.4394 18.1229 20.2347C18.1911 20.03 18.1911 19.8935 18.2594 19.757C18.3276 19.6205 18.3958 19.5522 18.4641 19.484C18.5323 19.4158 18.6006 19.3475 18.6006 19.3475H18.6688C18.8053 19.2793 19.01 19.3475 19.1465 19.484C19.3512 19.6205 19.556 19.8252 19.6924 20.0299C19.8289 20.2347 20.0337 20.4394 20.3066 20.7124C20.5796 20.9853 20.7843 21.1901 20.9208 21.2583L21.1255 21.3948C21.262 21.463 21.3985 21.5313 21.6032 21.5995C21.808 21.6678 21.9444 21.6678 22.0809 21.6678L24.4012 21.5995C24.6059 21.5995 24.8106 21.5313 24.9471 21.463C25.0836 21.3948 25.1519 21.3266 25.1519 21.1901C25.1519 21.1218 25.1519 20.9853 25.1519 20.9171C25.0154 20.7806 25.0154 20.7124 25.0154 20.6441Z" fill="white"/>
</svg>
