<svg width="18" height="20" viewBox="0 0 18 20" fill="none" xmlns="http://www.w3.org/2000/svg">
<path d="M16.8111 8.9133C16.8111 8.33963 16.7484 7.77022 16.6243 7.21518L17.5646 6.67231L15.2534 2.66913L14.3113 3.213C13.4667 2.4343 12.4636 1.8545 11.3719 1.51388V0.428131H6.74942V1.51391C5.65762 1.85454 4.65459 2.43434 3.80995 3.21304L2.86785 2.66913L0.556641 6.67231L1.49696 7.21518C1.3729 7.77019 1.31018 8.33959 1.31018 8.9133C1.31018 9.48701 1.3729 10.0564 1.49696 10.6114L0.556641 11.1543L2.86785 15.1575L3.80987 14.6136C4.31953 15.0835 4.88731 15.4801 5.49698 15.7963V12.5095C4.54108 11.5615 3.9975 10.2649 3.9975 8.91334C3.9975 6.12156 6.26881 3.85025 9.06059 3.85025C11.8524 3.85025 14.1237 6.12156 14.1237 8.91334C14.1237 10.2649 13.5801 11.5615 12.6242 12.5095V15.7963C13.2339 15.4801 13.8016 15.0835 14.3113 14.6136L15.2534 15.1575L17.5646 11.1543L16.6243 10.6114C16.7484 10.0564 16.8111 9.48698 16.8111 8.9133Z" fill="#8E8E92"/>
<path d="M6.97949 17.2139V17.347C6.97949 18.4945 7.91309 19.4281 9.06066 19.4281C10.2082 19.4281 11.1418 18.4945 11.1418 17.347V17.2139H6.97949Z" fill="#8E8E92"/>
<path d="M8.5038 13.3298V10.1587L7.08351 8.73842L7.87072 7.95121L9.06044 9.14094L10.2502 7.95121L11.0374 8.73842L9.61708 10.1587V13.3298H11.5107V12.021L11.6958 11.855C12.5311 11.1061 13.0102 10.0339 13.0102 8.91327C13.0102 6.73536 11.2384 4.96346 9.0604 4.96346C6.88249 4.96346 5.1106 6.73536 5.1106 8.91327C5.1106 10.0339 5.58968 11.1061 6.42501 11.855L6.61007 12.0209V13.3298H8.5038V13.3298Z" fill="#8E8E92"/>
<path d="M6.61035 14.4431H11.511V16.1007H6.61035V14.4431Z" fill="#8E8E92"/>
</svg>
